# MagicaVoxel @ Ephtracy

# group
o 

# material
mtllib TitleBoxSmall.mtl
usemtl palette

# normals
vn -1 0 0
vn 1 0 0
vn 0 0 1
vn 0 0 -1
vn 0 -1 0
vn 0 1 0

# texcoords
vt 0.361328 0.5
vt 0.365234 0.5
vt 0.369141 0.5
vt 0.982422 0.5

# verts
v -2 0 1.9
v -2 0 1.2
v -2 0 1.1
v -2 0 0.9
v -2 0 0.8
v -2 0 -2.38419e-07
v -2 0.1 2
v -2 0.1 1.9
v -2 0.1 1.1
v -2 0.1 0.9
v -2 0.3 1.2
v -2 0.3 0.8
v -2 0.6 1.2
v -2 0.6 0.8
v -2 1.2 1.4
v -2 1.2 1.2
v -2 1.2 0.8
v -2 1.2 0.6
v -2 1.3 1.4
v -2 1.3 1.3
v -2 1.3 0.7
v -2 1.3 0.6
v -2 1.4 1.3
v -2 1.4 1.2
v -2 1.4 0.8
v -2 1.4 0.7
v -2 1.5 1.2
v -2 1.5 1.1
v -2 1.5 0.9
v -2 1.5 0.8
v -2 1.6 1.1
v -2 1.6 0.9
v -2 1.8 1.2
v -2 1.8 0.8
v -2 2 1.1
v -2 2 0.9
v -2 2.1 2
v -2 2.1 1.2
v -2 2.1 1.1
v -2 2.1 0.9
v -2 2.1 0.8
v -2 2.1 -2.38419e-07
v -1.9 0 2
v -1.9 0 1.9
v -1.9 0.1 2
v -1.9 0.1 1.9
v 0.8 0.2 1.8
v 0.8 0.2 0.2
v 0.8 1.9 1.8
v 0.8 1.9 0.2
v -1.8 0.2 1.8
v -1.8 0.2 0.2
v -1.8 1.9 1.8
v -1.8 1.9 0.2
v 0.8 0 2
v 0.8 0 1.9
v 0.8 0.1 2
v 0.8 0.1 1.9
v 0.9 0 1.9
v 0.9 0 1.8
v 0.9 0 0.0999999
v 0.9 0 -2.38419e-07
v 0.9 0.1 2
v 0.9 0.1 1.9
v 0.9 0.1 1.8
v 0.9 0.1 0.0999999
v 0.9 0.1 -2.38419e-07
v 0.9 0.3 2
v 0.9 0.3 1.9
v 1 0 1.8
v 1 0 1.2
v 1 0 1.1
v 1 0 0.9
v 1 0 0.8
v 1 0 0.0999999
v 1 0.1 1.9
v 1 0.1 1.8
v 1 0.1 1.1
v 1 0.1 0.9
v 1 0.1 0.0999999
v 1 0.1 -2.38419e-07
v 1 0.3 2
v 1 0.3 1.9
v 1 0.3 1.2
v 1 0.3 0.8
v 1 0.6 1.2
v 1 0.6 0.8
v 1 1.2 1.4
v 1 1.2 1.2
v 1 1.2 0.8
v 1 1.2 0.6
v 1 1.3 1.4
v 1 1.3 1.3
v 1 1.3 0.7
v 1 1.3 0.6
v 1 1.4 1.3
v 1 1.4 1.2
v 1 1.4 0.8
v 1 1.4 0.7
v 1 1.5 1.2
v 1 1.5 1.1
v 1 1.5 0.9
v 1 1.5 0.8
v 1 1.6 1.1
v 1 1.6 0.9
v 1 1.8 1.2
v 1 1.8 0.8
v 1 2 1.1
v 1 2 0.9
v 1 2.1 2
v 1 2.1 1.2
v 1 2.1 1.1
v 1 2.1 0.9
v 1 2.1 0.8
v 1 2.1 -2.38419e-07
v -2 0.1 2
v -2 2.1 2
v -1.9 0 2
v -1.9 0.1 2
v -0.5 0.1 2
v -0.5 0.5 2
v -0.4 0.2 2
v -0.4 0.3 2
v -0.2 0.2 2
v -0.2 0.3 2
v -0.0999999 0.1 2
v -0.0999999 0.5 2
v 2.38419e-07 0.1 2
v 2.38419e-07 0.5 2
v 0.2 0.3 2
v 0.2 0.4 2
v 0.3 0.3 2
v 0.3 0.4 2
v 0.4 0.1 2
v 0.4 0.5 2
v 0.5 0.1 2
v 0.5 0.5 2
v 0.6 0.3 2
v 0.6 0.4 2
v 0.7 0.2 2
v 0.7 0.3 2
v 0.7 0.4 2
v 0.8 0 2
v 0.8 0.1 2
v 0.8 0.2 2
v 0.8 0.3 2
v 0.9 0.1 2
v 0.9 0.3 2
v 0.9 0.5 2
v 1 0.3 2
v 1 2.1 2
v -2 0 1.9
v -2 0.1 1.9
v -1.9 0 1.9
v -1.9 0.1 1.9
v 0.8 0 1.9
v 0.8 0.1 1.9
v 0.9 0 1.9
v 0.9 0.1 1.9
v 0.9 0.3 1.9
v 1 0.1 1.9
v 1 0.3 1.9
v 0.9 0 1.8
v 0.9 0.1 1.8
v 1 0 1.8
v 1 0.1 1.8
v -1.8 0.2 0.2
v -1.8 1.9 0.2
v 0.8 0.2 0.2
v 0.8 1.9 0.2
v -1.8 0.2 1.8
v -1.8 1.9 1.8
v 0.8 0.2 1.8
v 0.8 1.9 1.8
v 0.9 0 0.0999999
v 0.9 0.1 0.0999999
v 1 0 0.0999999
v 1 0.1 0.0999999
v -2 0 -2.38419e-07
v -2 2.1 -2.38419e-07
v -1.9 0.1 -2.38419e-07
v -1.9 0.4 -2.38419e-07
v -1.8 0.2 -2.38419e-07
v -1.8 0.3 -2.38419e-07
v -1.8 0.4 -2.38419e-07
v -1.8 0.5 -2.38419e-07
v -1.7 0.5 -2.38419e-07
v -1.7 0.6 -2.38419e-07
v -1.6 0.3 -2.38419e-07
v -1.6 0.4 -2.38419e-07
v -1.5 0.2 -2.38419e-07
v -1.5 0.4 -2.38419e-07
v -1.5 0.5 -2.38419e-07
v -1.5 0.6 -2.38419e-07
v -1.4 0.3 -2.38419e-07
v -1.4 0.5 -2.38419e-07
v -1.3 0.1 -2.38419e-07
v -1.3 0.3 -2.38419e-07
v 0.9 0 -2.38419e-07
v 0.9 0.1 -2.38419e-07
v 1 0.1 -2.38419e-07
v 1 2.1 -2.38419e-07
v -1.9 0 2
v 0.8 0 2
v -2 0 1.9
v -1.9 0 1.9
v 0.8 0 1.9
v 0.9 0 1.9
v 0.9 0 1.8
v 1 0 1.8
v -2 0 1.2
v 1 0 1.2
v -2 0 1.1
v 1 0 1.1
v -2 0 0.9
v 1 0 0.9
v -2 0 0.8
v 1 0 0.8
v 0.9 0 0.0999999
v 1 0 0.0999999
v -2 0 -2.38419e-07
v 0.9 0 -2.38419e-07
v -2 0.1 2
v -1.9 0.1 2
v 0.8 0.1 2
v 0.9 0.1 2
v -2 0.1 1.9
v -1.9 0.1 1.9
v 0.8 0.1 1.9
v 0.9 0.1 1.9
v 1 0.1 1.9
v 0.9 0.1 1.8
v 1 0.1 1.8
v 0.9 0.1 0.0999999
v 1 0.1 0.0999999
v 0.9 0.1 -2.38419e-07
v 1 0.1 -2.38419e-07
v 0.9 0.3 2
v 1 0.3 2
v 0.9 0.3 1.9
v 1 0.3 1.9
v -1.8 1.9 1.8
v 0.8 1.9 1.8
v -1.8 1.9 0.2
v 0.8 1.9 0.2
v -1.8 0.2 1.8
v 0.8 0.2 1.8
v -1.8 0.2 0.2
v 0.8 0.2 0.2
v -2 2.1 2
v 1 2.1 2
v -2 2.1 1.2
v 1 2.1 1.2
v -2 2.1 1.1
v 1 2.1 1.1
v -2 2.1 0.9
v 1 2.1 0.9
v -2 2.1 0.8
v 1 2.1 0.8
v -2 2.1 -2.38419e-07
v 1 2.1 -2.38419e-07

# faces
f 8/3/1 2/3/1 1/3/1
f 9/2/1 3/2/1 2/2/1
f 9/1/1 4/1/1 3/1/1
f 10/2/1 5/2/1 4/2/1
f 10/1/1 4/1/1 9/1/1
f 11/3/1 8/3/1 7/3/1
f 11/3/1 2/3/1 8/3/1
f 11/2/1 10/2/1 9/2/1
f 11/2/1 9/2/1 2/2/1
f 12/3/1 6/3/1 5/3/1
f 12/2/1 10/2/1 11/2/1
f 12/2/1 5/2/1 10/2/1
f 13/3/1 11/3/1 7/3/1
f 13/3/1 12/3/1 11/3/1
f 14/3/1 6/3/1 12/3/1
f 14/3/1 12/3/1 13/3/1
f 15/3/1 13/3/1 7/3/1
f 16/4/1 14/4/1 13/4/1
f 16/3/1 13/3/1 15/3/1
f 17/3/1 6/3/1 14/3/1
f 17/4/1 14/4/1 16/4/1
f 18/3/1 6/3/1 17/3/1
f 19/4/1 16/4/1 15/4/1
f 19/3/1 15/3/1 7/3/1
f 19/4/1 18/4/1 17/4/1
f 19/4/1 17/4/1 16/4/1
f 20/4/1 18/4/1 19/4/1
f 21/4/1 18/4/1 20/4/1
f 22/3/1 6/3/1 18/3/1
f 22/4/1 18/4/1 21/4/1
f 23/4/1 21/4/1 20/4/1
f 23/3/1 20/3/1 19/3/1
f 24/4/1 21/4/1 23/4/1
f 25/4/1 21/4/1 24/4/1
f 26/3/1 22/3/1 21/3/1
f 26/4/1 21/4/1 25/4/1
f 27/4/1 25/4/1 24/4/1
f 27/3/1 24/3/1 23/3/1
f 28/4/1 25/4/1 27/4/1
f 29/4/1 25/4/1 28/4/1
f 30/3/1 26/3/1 25/3/1
f 30/4/1 25/4/1 29/4/1
f 31/4/1 29/4/1 28/4/1
f 31/3/1 28/3/1 27/3/1
f 32/3/1 30/3/1 29/3/1
f 32/4/1 29/4/1 31/4/1
f 33/3/1 27/3/1 23/3/1
f 33/3/1 31/3/1 27/3/1
f 33/3/1 32/3/1 31/3/1
f 34/3/1 26/3/1 30/3/1
f 34/3/1 32/3/1 33/3/1
f 34/3/1 30/3/1 32/3/1
f 35/2/1 34/2/1 33/2/1
f 36/2/1 34/2/1 35/2/1
f 37/3/1 19/3/1 7/3/1
f 37/3/1 23/3/1 19/3/1
f 37/3/1 33/3/1 23/3/1
f 38/2/1 35/2/1 33/2/1
f 38/3/1 33/3/1 37/3/1
f 39/1/1 36/1/1 35/1/1
f 39/2/1 35/2/1 38/2/1
f 40/2/1 34/2/1 36/2/1
f 40/1/1 36/1/1 39/1/1
f 41/3/1 26/3/1 34/3/1
f 41/2/1 34/2/1 40/2/1
f 42/3/1 6/3/1 22/3/1
f 42/3/1 26/3/1 41/3/1
f 42/3/1 22/3/1 26/3/1
f 45/3/1 44/3/1 43/3/1
f 46/3/1 44/3/1 45/3/1
f 49/3/1 48/3/1 47/3/1
f 50/3/1 48/3/1 49/3/1
f 51/3/2 52/3/2 53/3/2
f 53/3/2 52/3/2 54/3/2
f 55/3/2 56/3/2 57/3/2
f 57/3/2 56/3/2 58/3/2
f 59/3/2 60/3/2 64/3/2
f 64/3/2 60/3/2 65/3/2
f 61/3/2 62/3/2 66/3/2
f 66/3/2 62/3/2 67/3/2
f 63/4/2 64/4/2 68/4/2
f 68/4/2 64/4/2 69/4/2
f 70/3/2 71/3/2 77/3/2
f 71/2/2 72/2/2 78/2/2
f 72/1/2 73/1/2 78/1/2
f 73/2/2 74/2/2 79/2/2
f 78/1/2 73/1/2 79/1/2
f 74/3/2 75/3/2 80/3/2
f 76/3/2 77/3/2 83/3/2
f 77/3/2 71/3/2 84/3/2
f 71/2/2 78/2/2 84/2/2
f 83/3/2 77/3/2 84/3/2
f 78/2/2 79/2/2 84/2/2
f 79/2/2 74/2/2 85/2/2
f 84/2/2 79/2/2 85/2/2
f 80/3/2 81/3/2 85/3/2
f 74/3/2 80/3/2 85/3/2
f 83/3/2 84/3/2 86/3/2
f 82/3/2 83/3/2 86/3/2
f 84/3/2 85/3/2 86/3/2
f 85/3/2 81/3/2 87/3/2
f 86/3/2 85/3/2 87/3/2
f 82/3/2 86/3/2 88/3/2
f 86/4/2 87/4/2 89/4/2
f 88/3/2 86/3/2 89/3/2
f 87/3/2 81/3/2 90/3/2
f 89/4/2 87/4/2 90/4/2
f 90/3/2 81/3/2 91/3/2
f 88/4/2 89/4/2 92/4/2
f 82/3/2 88/3/2 92/3/2
f 90/4/2 91/4/2 92/4/2
f 89/4/2 90/4/2 92/4/2
f 92/4/2 91/4/2 93/4/2
f 93/4/2 91/4/2 94/4/2
f 91/3/2 81/3/2 95/3/2
f 94/4/2 91/4/2 95/4/2
f 93/4/2 94/4/2 96/4/2
f 92/3/2 93/3/2 96/3/2
f 96/4/2 94/4/2 97/4/2
f 97/4/2 94/4/2 98/4/2
f 94/3/2 95/3/2 99/3/2
f 98/4/2 94/4/2 99/4/2
f 97/4/2 98/4/2 100/4/2
f 96/3/2 97/3/2 100/3/2
f 100/4/2 98/4/2 101/4/2
f 101/4/2 98/4/2 102/4/2
f 98/3/2 99/3/2 103/3/2
f 102/4/2 98/4/2 103/4/2
f 101/4/2 102/4/2 104/4/2
f 100/3/2 101/3/2 104/3/2
f 102/3/2 103/3/2 105/3/2
f 104/4/2 102/4/2 105/4/2
f 96/3/2 100/3/2 106/3/2
f 100/3/2 104/3/2 106/3/2
f 104/3/2 105/3/2 106/3/2
f 103/3/2 99/3/2 107/3/2
f 106/3/2 105/3/2 107/3/2
f 105/3/2 103/3/2 107/3/2
f 106/2/2 107/2/2 108/2/2
f 108/2/2 107/2/2 109/2/2
f 82/3/2 92/3/2 110/3/2
f 92/3/2 96/3/2 110/3/2
f 96/3/2 106/3/2 110/3/2
f 106/2/2 108/2/2 111/2/2
f 110/3/2 106/3/2 111/3/2
f 108/1/2 109/1/2 112/1/2
f 111/2/2 108/2/2 112/2/2
f 109/2/2 107/2/2 113/2/2
f 112/1/2 109/1/2 113/1/2
f 107/3/2 99/3/2 114/3/2
f 113/2/2 107/2/2 114/2/2
f 95/3/2 81/3/2 115/3/2
f 114/3/2 99/3/2 115/3/2
f 99/3/2 95/3/2 115/3/2
f 119/3/3 117/3/3 116/3/3
f 120/3/3 117/3/3 119/3/3
f 120/3/3 119/3/3 118/3/3
f 121/3/3 117/3/3 120/3/3
f 122/4/3 121/4/3 120/4/3
f 123/4/3 121/4/3 122/4/3
f 124/4/3 122/4/3 120/4/3
f 124/3/3 123/3/3 122/3/3
f 125/4/3 121/4/3 123/4/3
f 125/3/3 123/3/3 124/3/3
f 126/3/3 120/3/3 118/3/3
f 126/4/3 124/4/3 120/4/3
f 126/4/3 125/4/3 124/4/3
f 127/4/3 121/4/3 125/4/3
f 127/4/3 125/4/3 126/4/3
f 127/3/3 117/3/3 121/3/3
f 128/3/3 126/3/3 118/3/3
f 128/3/3 127/3/3 126/3/3
f 129/3/3 117/3/3 127/3/3
f 129/3/3 127/3/3 128/3/3
f 130/4/3 129/4/3 128/4/3
f 131/4/3 129/4/3 130/4/3
f 132/4/3 130/4/3 128/4/3
f 132/3/3 131/3/3 130/3/3
f 133/4/3 129/4/3 131/4/3
f 133/3/3 131/3/3 132/3/3
f 134/3/3 128/3/3 118/3/3
f 134/4/3 132/4/3 128/4/3
f 134/4/3 133/4/3 132/4/3
f 135/4/3 129/4/3 133/4/3
f 135/4/3 133/4/3 134/4/3
f 135/3/3 117/3/3 129/3/3
f 136/3/3 134/3/3 118/3/3
f 136/3/3 135/3/3 134/3/3
f 137/3/3 117/3/3 135/3/3
f 137/3/3 135/3/3 136/3/3
f 138/4/3 137/4/3 136/4/3
f 139/4/3 137/4/3 138/4/3
f 140/4/3 138/4/3 136/4/3
f 141/3/3 139/3/3 138/3/3
f 141/4/3 138/4/3 140/4/3
f 142/4/3 137/4/3 139/4/3
f 142/3/3 139/3/3 141/3/3
f 143/3/3 136/3/3 118/3/3
f 144/4/3 140/4/3 136/4/3
f 144/3/3 136/3/3 143/3/3
f 145/3/3 141/3/3 140/3/3
f 145/4/3 140/4/3 144/4/3
f 146/4/3 142/4/3 141/4/3
f 146/3/3 141/3/3 145/3/3
f 147/4/3 145/4/3 144/4/3
f 147/4/3 146/4/3 145/4/3
f 148/4/3 142/4/3 146/4/3
f 148/4/3 146/4/3 147/4/3
f 149/4/3 137/4/3 142/4/3
f 149/4/3 142/4/3 148/4/3
f 149/3/3 117/3/3 137/3/3
f 150/3/3 149/3/3 148/3/3
f 151/3/3 117/3/3 149/3/3
f 151/3/3 149/3/3 150/3/3
f 154/3/3 153/3/3 152/3/3
f 155/3/3 153/3/3 154/3/3
f 158/3/3 157/3/3 156/3/3
f 159/3/3 157/3/3 158/3/3
f 161/3/3 160/3/3 159/3/3
f 162/3/3 160/3/3 161/3/3
f 165/3/3 164/3/3 163/3/3
f 166/3/3 164/3/3 165/3/3
f 169/3/3 168/3/3 167/3/3
f 170/3/3 168/3/3 169/3/3
f 171/3/4 172/3/4 173/3/4
f 173/3/4 172/3/4 174/3/4
f 175/3/4 176/3/4 177/3/4
f 177/3/4 176/3/4 178/3/4
f 179/3/4 180/3/4 181/3/4
f 181/3/4 180/3/4 182/3/4
f 181/4/4 182/4/4 183/4/4
f 183/4/4 182/4/4 184/4/4
f 182/3/4 180/3/4 185/3/4
f 184/4/4 182/4/4 185/4/4
f 185/3/4 180/3/4 186/3/4
f 184/4/4 185/4/4 187/4/4
f 186/3/4 180/3/4 187/3/4
f 185/4/4 186/4/4 187/4/4
f 187/3/4 180/3/4 188/3/4
f 183/3/4 184/3/4 189/3/4
f 184/4/4 187/4/4 189/4/4
f 187/4/4 188/4/4 189/4/4
f 189/4/4 188/4/4 190/4/4
f 181/4/4 183/4/4 191/4/4
f 183/3/4 189/3/4 191/3/4
f 189/3/4 190/3/4 191/3/4
f 190/4/4 188/4/4 192/4/4
f 191/3/4 190/3/4 192/3/4
f 192/4/4 188/4/4 193/4/4
f 188/3/4 180/3/4 194/3/4
f 193/4/4 188/4/4 194/4/4
f 192/4/4 193/4/4 195/4/4
f 191/4/4 192/4/4 195/4/4
f 193/3/4 194/3/4 196/3/4
f 195/4/4 193/4/4 196/4/4
f 179/3/4 181/3/4 197/3/4
f 181/4/4 191/4/4 197/4/4
f 191/4/4 195/4/4 197/4/4
f 195/3/4 196/3/4 198/3/4
f 197/4/4 195/4/4 198/4/4
f 179/3/4 197/3/4 199/3/4
f 197/3/4 198/3/4 199/3/4
f 199/3/4 198/3/4 200/3/4
f 200/3/4 198/3/4 201/3/4
f 196/3/4 194/3/4 202/3/4
f 201/3/4 198/3/4 202/3/4
f 194/3/4 180/3/4 202/3/4
f 198/3/4 196/3/4 202/3/4
f 206/3/5 204/3/5 203/3/5
f 207/3/5 204/3/5 206/3/5
f 209/3/5 206/3/5 205/3/5
f 209/3/5 208/3/5 207/3/5
f 209/3/5 207/3/5 206/3/5
f 211/3/5 209/3/5 205/3/5
f 211/3/5 210/3/5 209/3/5
f 212/3/5 210/3/5 211/3/5
f 213/2/5 212/2/5 211/2/5
f 214/2/5 212/2/5 213/2/5
f 215/1/5 214/1/5 213/1/5
f 216/1/5 214/1/5 215/1/5
f 217/2/5 216/2/5 215/2/5
f 218/2/5 216/2/5 217/2/5
f 219/3/5 218/3/5 217/3/5
f 220/3/5 218/3/5 219/3/5
f 221/3/5 219/3/5 217/3/5
f 222/3/5 219/3/5 221/3/5
f 227/3/5 224/3/5 223/3/5
f 228/3/5 224/3/5 227/3/5
f 229/4/5 226/4/5 225/4/5
f 230/4/5 226/4/5 229/4/5
f 232/3/5 231/3/5 230/3/5
f 233/3/5 231/3/5 232/3/5
f 236/3/5 235/3/5 234/3/5
f 237/3/5 235/3/5 236/3/5
f 240/3/5 239/3/5 238/3/5
f 241/3/5 239/3/5 240/3/5
f 244/3/5 243/3/5 242/3/5
f 245/3/5 243/3/5 244/3/5
f 246/3/6 247/3/6 248/3/6
f 248/3/6 247/3/6 249/3/6
f 250/3/6 251/3/6 252/3/6
f 252/3/6 251/3/6 253/3/6
f 252/2/6 253/2/6 254/2/6
f 254/2/6 253/2/6 255/2/6
f 254/1/6 255/1/6 256/1/6
f 256/1/6 255/1/6 257/1/6
f 256/2/6 257/2/6 258/2/6
f 258/2/6 257/2/6 259/2/6
f 258/3/6 259/3/6 260/3/6
f 260/3/6 259/3/6 261/3/6
