# MagicaVoxel @ Ephtracy

# group
o 

# material
mtllib meat_grinder_Button.mtl
usemtl palette

# normals
vn -1 0 0
vn 1 0 0
vn 0 0 1
vn 0 0 -1
vn 0 -1 0
vn 0 1 0

# texcoords
vt 0.849609 0.5
vt 0.857422 0.5
vt 0.880859 0.5
vt 0.986328 0.5

# verts
v 1.2 1 -3
v 1.2 1 -3.1
v 1.2 1 -3.3
v 1.2 1.1 -3
v 1.2 1.1 -3.1
v 1.2 1.2 -3
v 1.2 1.2 -3.1
v 1.2 1.2 -3.2
v 1.2 1.2 -3.3
v 1.2 1.3 -3
v 1.2 1.3 -3.1
v 1.2 1.3 -3.2
v 1.2 1.3 -3.3
v 1.3 0.9 -3
v 1.3 0.9 -3.2
v 1.3 0.9 -3.3
v 1.3 1 -2.9
v 1.3 1 -3
v 1.3 1 -3.1
v 1.3 1 -3.2
v 1.3 1 -3.3
v 1.3 1 -3.4
v 1.3 1.1 -3
v 1.3 1.1 -3.3
v 1.3 1.1 -3.4
v 1.3 1.2 -3
v 1.3 1.2 -3.3
v 1.3 1.2 -3.4
v 1.3 1.3 -2.9
v 1.3 1.3 -3
v 1.3 1.3 -3.1
v 1.3 1.3 -3.2
v 1.3 1.3 -3.3
v 1.3 1.3 -3.4
v 1.3 1.4 -3
v 1.3 1.4 -3.2
v 1.3 1.4 -3.3
v 1.4 0.8 -2.9
v 1.4 0.8 -3.1
v 1.4 0.8 -3.2
v 1.4 0.8 -3.3
v 1.4 0.8 -3.4
v 1.4 0.9 -2.8
v 1.4 0.9 -2.9
v 1.4 0.9 -3
v 1.4 0.9 -3.1
v 1.4 0.9 -3.2
v 1.4 0.9 -3.3
v 1.4 0.9 -3.4
v 1.4 0.9 -3.5
v 1.4 1 -2.9
v 1.4 1 -3
v 1.4 1 -3.3
v 1.4 1 -3.4
v 1.4 1 -3.5
v 1.4 1.1 -3.4
v 1.4 1.2 -3.4
v 1.4 1.2 -3.5
v 1.4 1.3 -2.9
v 1.4 1.3 -3
v 1.4 1.3 -3.3
v 1.4 1.3 -3.4
v 1.4 1.3 -3.5
v 1.4 1.4 -2.8
v 1.4 1.4 -2.9
v 1.4 1.4 -3
v 1.4 1.4 -3.2
v 1.4 1.4 -3.3
v 1.4 1.4 -3.4
v 1.4 1.4 -3.5
v 1.4 1.5 -2.9
v 1.4 1.5 -3.4
v 1.5 0.8 -2.9
v 1.5 0.8 -3.1
v 1.5 0.8 -3.2
v 1.5 0.8 -3.3
v 1.5 0.8 -3.4
v 1.5 0.9 -2.8
v 1.5 0.9 -2.9
v 1.5 0.9 -3.1
v 1.5 0.9 -3.2
v 1.5 0.9 -3.3
v 1.5 0.9 -3.4
v 1.5 0.9 -3.5
v 1.5 1 -3.4
v 1.5 1 -3.5
v 1.5 1.2 -3.4
v 1.5 1.2 -3.5
v 1.5 1.3 -3.4
v 1.5 1.3 -3.5
v 1.5 1.4 -2.8
v 1.5 1.4 -2.9
v 1.5 1.4 -3.4
v 1.5 1.4 -3.5
v 1.5 1.5 -2.9
v 1.5 1.5 -3.4
v 1.4 0.9 -2.8
v 1.4 1.4 -2.8
v 1.5 0.9 -2.8
v 1.5 1.4 -2.8
v 1.3 1 -2.9
v 1.3 1.3 -2.9
v 1.4 0.8 -2.9
v 1.4 0.9 -2.9
v 1.4 1 -2.9
v 1.4 1.3 -2.9
v 1.4 1.4 -2.9
v 1.4 1.5 -2.9
v 1.5 0.8 -2.9
v 1.5 0.9 -2.9
v 1.5 1.4 -2.9
v 1.5 1.5 -2.9
v 1.2 1 -3
v 1.2 1.1 -3
v 1.2 1.2 -3
v 1.2 1.3 -3
v 1.3 0.9 -3
v 1.3 1 -3
v 1.3 1.1 -3
v 1.3 1.2 -3
v 1.3 1.3 -3
v 1.3 1.4 -3
v 1.4 0.9 -3
v 1.4 1 -3
v 1.4 1.3 -3
v 1.4 1.4 -3
v 1.2 1 -3.3
v 1.2 1.2 -3.3
v 1.2 1.3 -3.3
v 1.3 0.9 -3.3
v 1.3 1 -3.3
v 1.3 1.1 -3.3
v 1.3 1.2 -3.3
v 1.3 1.3 -3.3
v 1.3 1.4 -3.3
v 1.4 0.9 -3.3
v 1.4 1 -3.3
v 1.4 1.3 -3.3
v 1.4 1.4 -3.3
v 1.3 1 -3.4
v 1.3 1.1 -3.4
v 1.3 1.2 -3.4
v 1.3 1.3 -3.4
v 1.4 0.8 -3.4
v 1.4 0.9 -3.4
v 1.4 1 -3.4
v 1.4 1.1 -3.4
v 1.4 1.2 -3.4
v 1.4 1.3 -3.4
v 1.4 1.4 -3.4
v 1.4 1.5 -3.4
v 1.5 0.8 -3.4
v 1.5 0.9 -3.4
v 1.5 1.4 -3.4
v 1.5 1.5 -3.4
v 1.4 0.9 -3.5
v 1.4 1 -3.5
v 1.4 1.2 -3.5
v 1.4 1.3 -3.5
v 1.4 1.4 -3.5
v 1.5 0.9 -3.5
v 1.5 1 -3.5
v 1.5 1.2 -3.5
v 1.5 1.3 -3.5
v 1.5 1.4 -3.5
v 1.4 0.8 -2.9
v 1.5 0.8 -2.9
v 1.4 0.8 -3.1
v 1.5 0.8 -3.1
v 1.4 0.8 -3.2
v 1.5 0.8 -3.2
v 1.4 0.8 -3.3
v 1.5 0.8 -3.3
v 1.4 0.8 -3.4
v 1.5 0.8 -3.4
v 1.4 0.9 -2.8
v 1.5 0.9 -2.8
v 1.4 0.9 -2.9
v 1.5 0.9 -2.9
v 1.3 0.9 -3
v 1.4 0.9 -3
v 1.4 0.9 -3.1
v 1.3 0.9 -3.2
v 1.4 0.9 -3.2
v 1.3 0.9 -3.3
v 1.4 0.9 -3.3
v 1.4 0.9 -3.4
v 1.5 0.9 -3.4
v 1.4 0.9 -3.5
v 1.5 0.9 -3.5
v 1.3 1 -2.9
v 1.4 1 -2.9
v 1.2 1 -3
v 1.3 1 -3
v 1.4 1 -3
v 1.2 1 -3.1
v 1.3 1 -3.1
v 1.3 1 -3.2
v 1.2 1 -3.3
v 1.3 1 -3.3
v 1.4 1 -3.3
v 1.3 1 -3.4
v 1.4 1 -3.4
v 1.3 1.3 -2.9
v 1.4 1.3 -2.9
v 1.2 1.3 -3
v 1.3 1.3 -3
v 1.4 1.3 -3
v 1.2 1.3 -3.1
v 1.3 1.3 -3.1
v 1.2 1.3 -3.2
v 1.3 1.3 -3.2
v 1.2 1.3 -3.3
v 1.3 1.3 -3.3
v 1.4 1.3 -3.3
v 1.3 1.3 -3.4
v 1.4 1.3 -3.4
v 1.4 1.4 -2.8
v 1.5 1.4 -2.8
v 1.4 1.4 -2.9
v 1.5 1.4 -2.9
v 1.3 1.4 -3
v 1.4 1.4 -3
v 1.3 1.4 -3.2
v 1.4 1.4 -3.2
v 1.3 1.4 -3.3
v 1.4 1.4 -3.3
v 1.4 1.4 -3.4
v 1.5 1.4 -3.4
v 1.4 1.4 -3.5
v 1.5 1.4 -3.5
v 1.4 1.5 -2.9
v 1.5 1.5 -2.9
v 1.4 1.5 -3.4
v 1.5 1.5 -3.4

# faces
f 4/1/1 2/1/1 1/1/1
f 5/3/1 3/3/1 2/3/1
f 5/1/1 2/1/1 4/1/1
f 6/3/1 5/3/1 4/3/1
f 7/3/1 3/3/1 5/3/1
f 7/3/1 5/3/1 6/3/1
f 8/3/1 3/3/1 7/3/1
f 9/3/1 3/3/1 8/3/1
f 10/2/1 7/2/1 6/2/1
f 11/3/1 8/3/1 7/3/1
f 11/2/1 7/2/1 10/2/1
f 12/2/1 9/2/1 8/2/1
f 12/3/1 8/3/1 11/3/1
f 13/2/1 9/2/1 12/2/1
f 18/3/1 15/3/1 14/3/1
f 19/3/1 15/3/1 18/3/1
f 20/1/1 16/1/1 15/1/1
f 20/3/1 15/3/1 19/3/1
f 21/1/1 16/1/1 20/1/1
f 23/3/1 18/3/1 17/3/1
f 24/3/1 22/3/1 21/3/1
f 25/3/1 22/3/1 24/3/1
f 26/3/1 23/3/1 17/3/1
f 27/1/1 25/1/1 24/1/1
f 28/1/1 25/1/1 27/1/1
f 29/3/1 26/3/1 17/3/1
f 30/3/1 26/3/1 29/3/1
f 33/3/1 28/3/1 27/3/1
f 34/3/1 28/3/1 33/3/1
f 35/2/1 32/2/1 31/2/1
f 35/2/1 31/2/1 30/2/1
f 36/1/1 33/1/1 32/1/1
f 36/2/1 32/2/1 35/2/1
f 37/1/1 33/1/1 36/1/1
f 44/4/1 39/4/1 38/4/1
f 45/4/1 39/4/1 44/4/1
f 46/1/1 40/1/1 39/1/1
f 46/4/1 39/4/1 45/4/1
f 47/4/1 41/4/1 40/4/1
f 47/1/1 40/1/1 46/1/1
f 48/1/1 42/1/1 41/1/1
f 48/4/1 41/4/1 47/4/1
f 49/1/1 42/1/1 48/1/1
f 51/4/1 45/4/1 44/4/1
f 51/4/1 44/4/1 43/4/1
f 52/4/1 45/4/1 51/4/1
f 53/4/1 50/4/1 49/4/1
f 53/4/1 49/4/1 48/4/1
f 54/4/1 50/4/1 53/4/1
f 55/4/1 50/4/1 54/4/1
f 56/2/1 55/2/1 54/2/1
f 57/2/1 55/2/1 56/2/1
f 58/2/1 55/2/1 57/2/1
f 59/4/1 51/4/1 43/4/1
f 62/1/1 58/1/1 57/1/1
f 63/1/1 58/1/1 62/1/1
f 64/4/1 60/4/1 59/4/1
f 64/4/1 59/4/1 43/4/1
f 65/4/1 60/4/1 64/4/1
f 66/4/1 60/4/1 65/4/1
f 68/4/1 62/4/1 61/4/1
f 69/2/1 63/2/1 62/2/1
f 69/4/1 62/4/1 68/4/1
f 70/2/1 63/2/1 69/2/1
f 71/4/1 68/4/1 67/4/1
f 71/4/1 67/4/1 66/4/1
f 71/4/1 69/4/1 68/4/1
f 71/4/1 66/4/1 65/4/1
f 72/4/1 69/4/1 71/4/1
f 73/4/2 74/4/2 79/4/2
f 74/1/2 75/1/2 80/1/2
f 79/4/2 74/4/2 80/4/2
f 75/4/2 76/4/2 81/4/2
f 80/1/2 75/1/2 81/1/2
f 76/1/2 77/1/2 82/1/2
f 81/4/2 76/4/2 82/4/2
f 82/1/2 77/1/2 83/1/2
f 80/4/2 81/4/2 85/4/2
f 83/4/2 84/4/2 85/4/2
f 82/4/2 83/4/2 85/4/2
f 81/4/2 82/4/2 85/4/2
f 78/4/2 79/4/2 85/4/2
f 79/4/2 80/4/2 85/4/2
f 85/4/2 84/4/2 86/4/2
f 78/4/2 85/4/2 87/4/2
f 85/2/2 86/2/2 87/2/2
f 87/2/2 86/2/2 88/2/2
f 78/4/2 87/4/2 89/4/2
f 87/1/2 88/1/2 89/1/2
f 89/1/2 88/1/2 90/1/2
f 78/4/2 89/4/2 91/4/2
f 91/4/2 89/4/2 92/4/2
f 89/2/2 90/2/2 93/2/2
f 92/4/2 89/4/2 93/4/2
f 93/2/2 90/2/2 94/2/2
f 92/4/2 93/4/2 95/4/2
f 95/4/2 93/4/2 96/4/2
f 99/4/3 98/4/3 97/4/3
f 100/4/3 98/4/3 99/4/3
f 105/3/3 102/3/3 101/3/3
f 106/3/3 102/3/3 105/3/3
f 109/4/3 104/4/3 103/4/3
f 110/4/3 104/4/3 109/4/3
f 111/4/3 108/4/3 107/4/3
f 112/4/3 108/4/3 111/4/3
f 118/1/3 114/1/3 113/1/3
f 119/3/3 115/3/3 114/3/3
f 119/1/3 114/1/3 118/1/3
f 120/2/3 116/2/3 115/2/3
f 120/3/3 115/3/3 119/3/3
f 121/2/3 116/2/3 120/2/3
f 123/3/3 118/3/3 117/3/3
f 124/3/3 118/3/3 123/3/3
f 125/2/3 122/2/3 121/2/3
f 126/2/3 122/2/3 125/2/3
f 127/3/4 128/3/4 131/3/4
f 131/3/4 128/3/4 132/3/4
f 128/2/4 129/2/4 133/2/4
f 132/3/4 128/3/4 133/3/4
f 133/2/4 129/2/4 134/2/4
f 130/1/4 131/1/4 136/1/4
f 136/1/4 131/1/4 137/1/4
f 134/1/4 135/1/4 138/1/4
f 138/1/4 135/1/4 139/1/4
f 140/3/4 141/3/4 146/3/4
f 141/1/4 142/1/4 147/1/4
f 146/3/4 141/3/4 147/3/4
f 142/3/4 143/3/4 148/3/4
f 147/1/4 142/1/4 148/1/4
f 148/3/4 143/3/4 149/3/4
f 144/1/4 145/1/4 152/1/4
f 152/1/4 145/1/4 153/1/4
f 150/4/4 151/4/4 154/4/4
f 154/4/4 151/4/4 155/4/4
f 156/4/4 157/4/4 161/4/4
f 157/2/4 158/2/4 162/2/4
f 161/4/4 157/4/4 162/4/4
f 158/1/4 159/1/4 163/1/4
f 162/2/4 158/2/4 163/2/4
f 159/2/4 160/2/4 164/2/4
f 163/1/4 159/1/4 164/1/4
f 164/2/4 160/2/4 165/2/4
f 168/4/5 167/4/5 166/4/5
f 169/4/5 167/4/5 168/4/5
f 170/1/5 169/1/5 168/1/5
f 171/1/5 169/1/5 170/1/5
f 172/4/5 171/4/5 170/4/5
f 173/4/5 171/4/5 172/4/5
f 174/1/5 173/1/5 172/1/5
f 175/1/5 173/1/5 174/1/5
f 178/4/5 177/4/5 176/4/5
f 179/4/5 177/4/5 178/4/5
f 182/3/5 181/3/5 180/3/5
f 183/3/5 182/3/5 180/3/5
f 184/3/5 182/3/5 183/3/5
f 185/1/5 184/1/5 183/1/5
f 186/1/5 184/1/5 185/1/5
f 189/4/5 188/4/5 187/4/5
f 190/4/5 188/4/5 189/4/5
f 194/3/5 192/3/5 191/3/5
f 195/3/5 192/3/5 194/3/5
f 196/1/5 194/1/5 193/1/5
f 197/1/5 194/1/5 196/1/5
f 198/3/5 197/3/5 196/3/5
f 199/3/5 198/3/5 196/3/5
f 200/3/5 198/3/5 199/3/5
f 202/3/5 201/3/5 200/3/5
f 203/3/5 201/3/5 202/3/5
f 204/3/6 205/3/6 207/3/6
f 207/3/6 205/3/6 208/3/6
f 206/2/6 207/2/6 209/2/6
f 209/2/6 207/2/6 210/2/6
f 209/3/6 210/3/6 211/3/6
f 211/3/6 210/3/6 212/3/6
f 211/2/6 212/2/6 213/2/6
f 213/2/6 212/2/6 214/2/6
f 214/3/6 215/3/6 216/3/6
f 216/3/6 215/3/6 217/3/6
f 218/4/6 219/4/6 220/4/6
f 220/4/6 219/4/6 221/4/6
f 222/2/6 223/2/6 224/2/6
f 224/2/6 223/2/6 225/2/6
f 224/1/6 225/1/6 226/1/6
f 226/1/6 225/1/6 227/1/6
f 228/2/6 229/2/6 230/2/6
f 230/2/6 229/2/6 231/2/6
f 232/4/6 233/4/6 234/4/6
f 234/4/6 233/4/6 235/4/6
