# MagicaVoxel @ Ephtracy

# group
o 

# material
mtllib can2.mtl
usemtl palette

# normals
vn -1 0 0
vn 1 0 0
vn 0 0 1
vn 0 0 -1
vn 0 -1 0
vn 0 1 0

# texcoords
vt 0.00195312 0.5
vt 0.0214844 0.5
vt 0.142578 0.5
vt 0.369141 0.5
vt 0.373047 0.5
vt 0.970703 0.5

# verts
v 1.1 0 1.8
v 1.1 0 1.7
v 1.1 0 1.6
v 1.1 0 1.4
v 1.1 0 1.3
v 1.1 0 1.2
v 1.1 0.1 1.9
v 1.1 0.1 1.8
v 1.1 0.1 1.7
v 1.1 0.1 1.6
v 1.1 0.1 1.5
v 1.1 0.1 1.4
v 1.1 0.1 1.3
v 1.1 0.1 1.2
v 1.1 0.1 1.1
v 1.1 0.2 1.9
v 1.1 0.2 1.8
v 1.1 0.2 1.6
v 1.1 0.2 1.5
v 1.1 0.2 1.2
v 1.1 0.2 1.1
v 1.1 0.3 1.9
v 1.1 0.3 1.8
v 1.1 0.3 1.6
v 1.1 0.3 1.5
v 1.1 0.3 1.2
v 1.1 0.3 1.1
v 1.1 0.4 1.6
v 1.1 0.4 1.5
v 1.1 0.4 1.4
v 1.1 0.4 1.3
v 1.1 0.5 1.8
v 1.1 0.5 1.7
v 1.1 0.5 1.4
v 1.1 0.5 1.3
v 1.1 0.6 1.8
v 1.1 0.6 1.7
v 1.1 0.6 1.6
v 1.1 0.7 1.9
v 1.1 0.7 1.8
v 1.1 0.7 1.7
v 1.1 0.7 1.6
v 1.1 0.7 1.2
v 1.1 0.7 1.1
v 1.1 0.8 1.7
v 1.1 0.8 1.6
v 1.1 0.8 1.4
v 1.1 0.8 1.3
v 1.1 0.8 1.2
v 1.1 0.8 1.1
v 1.1 0.9 1.9
v 1.1 0.9 1.8
v 1.1 0.9 1.7
v 1.1 0.9 1.6
v 1.1 0.9 1.4
v 1.1 0.9 1.3
v 1.1 0.9 1.2
v 1.1 0.9 1.1
v 1.1 1 1.8
v 1.1 1 1.7
v 1.1 1 1.3
v 1.1 1 1.2
v 1.1 1.2 1.7
v 1.1 1.2 1.3
v 1.2 0 1.9
v 1.2 0 1.8
v 1.2 0 1.2
v 1.2 0 1.1
v 1.2 0.1 1.9
v 1.2 0.1 1.8
v 1.2 0.1 1.2
v 1.2 0.1 1.1
v 1.2 0.3 1.9
v 1.2 0.3 1.8
v 1.2 0.3 1.2
v 1.2 0.3 1.1
v 1.2 0.4 1.9
v 1.2 0.4 1.8
v 1.2 0.4 1.2
v 1.2 0.4 1.1
v 1.2 0.5 1.8
v 1.2 0.5 1.2
v 1.2 0.5 1.1
v 1.2 0.6 1.9
v 1.2 0.6 1.8
v 1.2 0.7 1.9
v 1.2 0.7 1.8
v 1.2 0.7 1.2
v 1.2 0.7 1.1
v 1.2 0.9 1.9
v 1.2 0.9 1.8
v 1.2 0.9 1.2
v 1.2 0.9 1.1
v 1.2 1 1.9
v 1.2 1 1.8
v 1.2 1 1.7
v 1.2 1 1.3
v 1.2 1 1.2
v 1.2 1 1.1
v 1.2 1.2 1.8
v 1.2 1.2 1.7
v 1.2 1.2 1.3
v 1.2 1.2 1.2
v 1.3 1 1.9
v 1.3 1 1.8
v 1.3 1 1.2
v 1.3 1 1.1
v 1.3 1.2 1.9
v 1.3 1.2 1.8
v 1.3 1.2 1.2
v 1.3 1.2 1.1
v 1.6 0 1.7
v 1.6 0 1.6
v 1.6 0 1.4
v 1.6 0 1.3
v 1.6 0.1 1.7
v 1.6 0.1 1.6
v 1.6 0.1 1.4
v 1.6 0.1 1.3
v 1.7 0 1.6
v 1.7 0 1.4
v 1.7 0.1 1.6
v 1.7 0.1 1.4
v 1.3 0 1.6
v 1.3 0 1.4
v 1.3 0.1 1.6
v 1.3 0.1 1.4
v 1.4 0 1.7
v 1.4 0 1.6
v 1.4 0 1.4
v 1.4 0 1.3
v 1.4 0.1 1.7
v 1.4 0.1 1.6
v 1.4 0.1 1.4
v 1.4 0.1 1.3
v 1.7 1 1.9
v 1.7 1 1.8
v 1.7 1.1 1.2
v 1.7 1.1 1.1
v 1.7 1.2 1.9
v 1.7 1.2 1.8
v 1.7 1.2 1.2
v 1.7 1.2 1.1
v 1.8 0 1.9
v 1.8 0 1.8
v 1.8 0 1.2
v 1.8 0 1.1
v 1.8 0.1 1.9
v 1.8 0.1 1.8
v 1.8 0.1 1.2
v 1.8 0.1 1.1
v 1.8 0.3 1.9
v 1.8 0.3 1.8
v 1.8 0.3 1.2
v 1.8 0.3 1.1
v 1.8 0.6 1.9
v 1.8 0.6 1.8
v 1.8 0.7 1.9
v 1.8 0.7 1.8
v 1.8 0.7 1.2
v 1.8 0.7 1.1
v 1.8 0.9 1.9
v 1.8 0.9 1.8
v 1.8 0.9 1.2
v 1.8 0.9 1.1
v 1.8 1 1.9
v 1.8 1 1.8
v 1.8 1 1.7
v 1.8 1 1.3
v 1.8 1 1.2
v 1.8 1 1.1
v 1.8 1.1 1.2
v 1.8 1.1 1.1
v 1.8 1.2 1.8
v 1.8 1.2 1.7
v 1.8 1.2 1.3
v 1.8 1.2 1.2
v 1.9 0 1.8
v 1.9 0 1.4
v 1.9 0 1.3
v 1.9 0 1.2
v 1.9 0.1 1.9
v 1.9 0.1 1.8
v 1.9 0.1 1.7
v 1.9 0.1 1.6
v 1.9 0.1 1.4
v 1.9 0.1 1.3
v 1.9 0.1 1.2
v 1.9 0.1 1.1
v 1.9 0.2 1.9
v 1.9 0.2 1.8
v 1.9 0.2 1.7
v 1.9 0.2 1.6
v 1.9 0.2 1.3
v 1.9 0.2 1.2
v 1.9 0.2 1.1
v 1.9 0.3 1.9
v 1.9 0.3 1.8
v 1.9 0.3 1.2
v 1.9 0.3 1.1
v 1.9 0.4 1.5
v 1.9 0.4 1.4
v 1.9 0.5 1.5
v 1.9 0.5 1.4
v 1.9 0.6 1.6
v 1.9 0.6 1.5
v 1.9 0.6 1.4
v 1.9 0.6 1.3
v 1.9 0.7 1.9
v 1.9 0.7 1.8
v 1.9 0.7 1.7
v 1.9 0.7 1.6
v 1.9 0.7 1.5
v 1.9 0.7 1.4
v 1.9 0.7 1.3
v 1.9 0.7 1.2
v 1.9 0.7 1.1
v 1.9 0.8 1.8
v 1.9 0.8 1.7
v 1.9 0.8 1.3
v 1.9 0.8 1.2
v 1.9 0.9 1.9
v 1.9 0.9 1.8
v 1.9 0.9 1.7
v 1.9 0.9 1.5
v 1.9 0.9 1.4
v 1.9 0.9 1.3
v 1.9 0.9 1.2
v 1.9 0.9 1.1
v 1.9 1 1.8
v 1.9 1 1.7
v 1.9 1 1.5
v 1.9 1 1.4
v 1.9 1 1.3
v 1.9 1 1.2
v 1.9 1.2 1.7
v 1.9 1.2 1.3
v 1.1 0.1 1.9
v 1.1 0.2 1.9
v 1.1 0.3 1.9
v 1.1 0.7 1.9
v 1.1 0.9 1.9
v 1.2 0 1.9
v 1.2 0.1 1.9
v 1.2 0.2 1.9
v 1.2 0.3 1.9
v 1.2 0.4 1.9
v 1.2 0.6 1.9
v 1.2 0.7 1.9
v 1.2 0.8 1.9
v 1.2 0.9 1.9
v 1.2 1 1.9
v 1.3 0.1 1.9
v 1.3 0.2 1.9
v 1.3 0.6 1.9
v 1.3 0.7 1.9
v 1.3 1 1.9
v 1.3 1.2 1.9
v 1.4 0.1 1.9
v 1.4 0.2 1.9
v 1.4 0.4 1.9
v 1.4 0.5 1.9
v 1.5 0 1.9
v 1.5 0.1 1.9
v 1.5 0.4 1.9
v 1.5 0.5 1.9
v 1.5 0.7 1.9
v 1.6 0 1.9
v 1.6 0.1 1.9
v 1.6 0.8 1.9
v 1.6 0.9 1.9
v 1.7 0.1 1.9
v 1.7 0.2 1.9
v 1.7 0.5 1.9
v 1.7 0.6 1.9
v 1.7 0.8 1.9
v 1.7 0.9 1.9
v 1.7 1 1.9
v 1.7 1.2 1.9
v 1.8 0 1.9
v 1.8 0.1 1.9
v 1.8 0.2 1.9
v 1.8 0.3 1.9
v 1.8 0.6 1.9
v 1.8 0.7 1.9
v 1.8 0.8 1.9
v 1.8 0.9 1.9
v 1.8 1 1.9
v 1.9 0.1 1.9
v 1.9 0.2 1.9
v 1.9 0.3 1.9
v 1.9 0.7 1.9
v 1.9 0.9 1.9
v 1.1 0 1.8
v 1.1 0.1 1.8
v 1.1 0.3 1.8
v 1.1 0.5 1.8
v 1.1 0.6 1.8
v 1.1 0.7 1.8
v 1.1 0.9 1.8
v 1.1 1 1.8
v 1.2 0 1.8
v 1.2 0.1 1.8
v 1.2 0.3 1.8
v 1.2 0.4 1.8
v 1.2 0.5 1.8
v 1.2 0.6 1.8
v 1.2 0.7 1.8
v 1.2 0.9 1.8
v 1.2 1 1.8
v 1.2 1.2 1.8
v 1.3 1 1.8
v 1.3 1.2 1.8
v 1.7 1 1.8
v 1.7 1.2 1.8
v 1.8 0 1.8
v 1.8 0.1 1.8
v 1.8 0.3 1.8
v 1.8 0.6 1.8
v 1.8 0.7 1.8
v 1.8 0.9 1.8
v 1.8 1 1.8
v 1.8 1.2 1.8
v 1.9 0 1.8
v 1.9 0.1 1.8
v 1.9 0.3 1.8
v 1.9 0.7 1.8
v 1.9 0.9 1.8
v 1.9 1 1.8
v 1.1 1 1.7
v 1.1 1.2 1.7
v 1.2 1 1.7
v 1.2 1.2 1.7
v 1.8 1 1.7
v 1.8 1.2 1.7
v 1.9 1 1.7
v 1.9 1.2 1.7
v 1.3 0 1.4
v 1.3 0.1 1.4
v 1.4 0 1.4
v 1.4 0.1 1.4
v 1.6 0 1.4
v 1.6 0.1 1.4
v 1.7 0 1.4
v 1.7 0.1 1.4
v 1.4 0 1.3
v 1.4 0.1 1.3
v 1.6 0 1.3
v 1.6 0.1 1.3
v 1.4 0 1.7
v 1.4 0.1 1.7
v 1.6 0 1.7
v 1.6 0.1 1.7
v 1.3 0 1.6
v 1.3 0.1 1.6
v 1.4 0 1.6
v 1.4 0.1 1.6
v 1.6 0 1.6
v 1.6 0.1 1.6
v 1.7 0 1.6
v 1.7 0.1 1.6
v 1.1 1 1.3
v 1.1 1.2 1.3
v 1.2 1 1.3
v 1.2 1.2 1.3
v 1.8 1 1.3
v 1.8 1.2 1.3
v 1.9 1 1.3
v 1.9 1.2 1.3
v 1.1 0 1.2
v 1.1 0.1 1.2
v 1.1 0.3 1.2
v 1.1 0.7 1.2
v 1.1 0.9 1.2
v 1.1 1 1.2
v 1.2 0 1.2
v 1.2 0.1 1.2
v 1.2 0.3 1.2
v 1.2 0.4 1.2
v 1.2 0.5 1.2
v 1.2 0.7 1.2
v 1.2 0.9 1.2
v 1.2 1 1.2
v 1.2 1.2 1.2
v 1.3 1 1.2
v 1.3 1.2 1.2
v 1.7 1.1 1.2
v 1.7 1.2 1.2
v 1.8 0 1.2
v 1.8 0.1 1.2
v 1.8 0.3 1.2
v 1.8 0.7 1.2
v 1.8 0.9 1.2
v 1.8 1 1.2
v 1.8 1.1 1.2
v 1.8 1.2 1.2
v 1.9 0 1.2
v 1.9 0.1 1.2
v 1.9 0.3 1.2
v 1.9 0.7 1.2
v 1.9 0.9 1.2
v 1.9 1 1.2
v 1.1 0.1 1.1
v 1.1 0.2 1.1
v 1.1 0.3 1.1
v 1.1 0.7 1.1
v 1.1 0.8 1.1
v 1.1 0.9 1.1
v 1.2 0 1.1
v 1.2 0.1 1.1
v 1.2 0.2 1.1
v 1.2 0.3 1.1
v 1.2 0.4 1.1
v 1.2 0.5 1.1
v 1.2 0.7 1.1
v 1.2 0.8 1.1
v 1.2 0.9 1.1
v 1.2 1 1.1
v 1.3 0 1.1
v 1.3 0.1 1.1
v 1.3 0.2 1.1
v 1.3 0.3 1.1
v 1.3 0.4 1.1
v 1.3 0.5 1.1
v 1.3 0.6 1.1
v 1.3 0.8 1.1
v 1.3 1 1.1
v 1.3 1.2 1.1
v 1.4 0.1 1.1
v 1.4 0.2 1.1
v 1.4 0.3 1.1
v 1.4 0.4 1.1
v 1.4 0.5 1.1
v 1.4 0.6 1.1
v 1.4 0.7 1.1
v 1.5 0.1 1.1
v 1.5 0.2 1.1
v 1.5 0.3 1.1
v 1.5 0.4 1.1
v 1.5 0.5 1.1
v 1.5 0.6 1.1
v 1.5 0.7 1.1
v 1.5 0.8 1.1
v 1.5 0.9 1.1
v 1.6 0.3 1.1
v 1.6 0.4 1.1
v 1.6 0.5 1.1
v 1.6 0.6 1.1
v 1.6 0.7 1.1
v 1.6 0.8 1.1
v 1.6 0.9 1.1
v 1.7 0.1 1.1
v 1.7 0.2 1.1
v 1.7 0.4 1.1
v 1.7 0.5 1.1
v 1.7 0.6 1.1
v 1.7 0.7 1.1
v 1.7 0.8 1.1
v 1.7 0.9 1.1
v 1.7 1.1 1.1
v 1.7 1.2 1.1
v 1.8 0 1.1
v 1.8 0.1 1.1
v 1.8 0.2 1.1
v 1.8 0.3 1.1
v 1.8 0.7 1.1
v 1.8 0.8 1.1
v 1.8 0.9 1.1
v 1.8 1 1.1
v 1.8 1.1 1.1
v 1.9 0.1 1.1
v 1.9 0.2 1.1
v 1.9 0.3 1.1
v 1.9 0.7 1.1
v 1.9 0.9 1.1
v 1.2 0 1.9
v 1.5 0 1.9
v 1.6 0 1.9
v 1.8 0 1.9
v 1.1 0 1.8
v 1.2 0 1.8
v 1.5 0 1.8
v 1.6 0 1.8
v 1.8 0 1.8
v 1.9 0 1.8
v 1.1 0 1.7
v 1.2 0 1.7
v 1.4 0 1.7
v 1.6 0 1.7
v 1.1 0 1.6
v 1.2 0 1.6
v 1.3 0 1.6
v 1.4 0 1.6
v 1.6 0 1.6
v 1.7 0 1.6
v 1.1 0 1.4
v 1.2 0 1.4
v 1.3 0 1.4
v 1.4 0 1.4
v 1.6 0 1.4
v 1.7 0 1.4
v 1.8 0 1.4
v 1.9 0 1.4
v 1.1 0 1.3
v 1.2 0 1.3
v 1.4 0 1.3
v 1.6 0 1.3
v 1.8 0 1.3
v 1.9 0 1.3
v 1.1 0 1.2
v 1.2 0 1.2
v 1.3 0 1.2
v 1.8 0 1.2
v 1.9 0 1.2
v 1.2 0 1.1
v 1.3 0 1.1
v 1.8 0 1.1
v 1.1 0.1 1.9
v 1.2 0.1 1.9
v 1.8 0.1 1.9
v 1.9 0.1 1.9
v 1.1 0.1 1.8
v 1.2 0.1 1.8
v 1.8 0.1 1.8
v 1.9 0.1 1.8
v 1.4 0.1 1.7
v 1.6 0.1 1.7
v 1.3 0.1 1.6
v 1.4 0.1 1.6
v 1.6 0.1 1.6
v 1.7 0.1 1.6
v 1.3 0.1 1.4
v 1.4 0.1 1.4
v 1.6 0.1 1.4
v 1.7 0.1 1.4
v 1.4 0.1 1.3
v 1.6 0.1 1.3
v 1.1 0.1 1.2
v 1.2 0.1 1.2
v 1.8 0.1 1.2
v 1.9 0.1 1.2
v 1.1 0.1 1.1
v 1.2 0.1 1.1
v 1.8 0.1 1.1
v 1.9 0.1 1.1
v 1.1 0.7 1.9
v 1.2 0.7 1.9
v 1.8 0.7 1.9
v 1.9 0.7 1.9
v 1.1 0.7 1.8
v 1.2 0.7 1.8
v 1.8 0.7 1.8
v 1.9 0.7 1.8
v 1.1 0.7 1.2
v 1.2 0.7 1.2
v 1.8 0.7 1.2
v 1.9 0.7 1.2
v 1.1 0.7 1.1
v 1.2 0.7 1.1
v 1.8 0.7 1.1
v 1.9 0.7 1.1
v 1.1 0.3 1.9
v 1.2 0.3 1.9
v 1.8 0.3 1.9
v 1.9 0.3 1.9
v 1.1 0.3 1.8
v 1.2 0.3 1.8
v 1.8 0.3 1.8
v 1.9 0.3 1.8
v 1.1 0.3 1.2
v 1.2 0.3 1.2
v 1.8 0.3 1.2
v 1.9 0.3 1.2
v 1.1 0.3 1.1
v 1.2 0.3 1.1
v 1.8 0.3 1.1
v 1.9 0.3 1.1
v 1.1 0.9 1.9
v 1.2 0.9 1.9
v 1.8 0.9 1.9
v 1.9 0.9 1.9
v 1.1 0.9 1.8
v 1.2 0.9 1.8
v 1.8 0.9 1.8
v 1.9 0.9 1.8
v 1.1 0.9 1.2
v 1.2 0.9 1.2
v 1.8 0.9 1.2
v 1.9 0.9 1.2
v 1.1 0.9 1.1
v 1.2 0.9 1.1
v 1.8 0.9 1.1
v 1.9 0.9 1.1
v 1.2 1 1.9
v 1.3 1 1.9
v 1.7 1 1.9
v 1.8 1 1.9
v 1.1 1 1.8
v 1.2 1 1.8
v 1.3 1 1.8
v 1.7 1 1.8
v 1.8 1 1.8
v 1.9 1 1.8
v 1.1 1 1.7
v 1.2 1 1.7
v 1.8 1 1.7
v 1.9 1 1.7
v 1.1 1 1.3
v 1.2 1 1.3
v 1.8 1 1.3
v 1.9 1 1.3
v 1.1 1 1.2
v 1.2 1 1.2
v 1.3 1 1.2
v 1.8 1 1.2
v 1.9 1 1.2
v 1.2 1 1.1
v 1.3 1 1.1
v 1.7 1.1 1.2
v 1.8 1.1 1.2
v 1.7 1.1 1.1
v 1.8 1.1 1.1
v 1.3 1.2 1.9
v 1.7 1.2 1.9
v 1.2 1.2 1.8
v 1.3 1.2 1.8
v 1.7 1.2 1.8
v 1.8 1.2 1.8
v 1.1 1.2 1.7
v 1.2 1.2 1.7
v 1.8 1.2 1.7
v 1.9 1.2 1.7
v 1.1 1.2 1.3
v 1.2 1.2 1.3
v 1.8 1.2 1.3
v 1.9 1.2 1.3
v 1.2 1.2 1.2
v 1.3 1.2 1.2
v 1.7 1.2 1.2
v 1.8 1.2 1.2
v 1.3 1.2 1.1
v 1.7 1.2 1.1

# faces
f 8/4/1 2/4/1 1/4/1
f 9/5/1 3/5/1 2/5/1
f 9/4/1 2/4/1 8/4/1
f 10/4/1 4/4/1 3/4/1
f 10/5/1 3/5/1 9/5/1
f 11/4/1 4/4/1 10/4/1
f 12/5/1 5/5/1 4/5/1
f 12/4/1 4/4/1 11/4/1
f 13/4/1 6/4/1 5/4/1
f 13/5/1 5/5/1 12/5/1
f 14/4/1 6/4/1 13/4/1
f 16/5/1 8/5/1 7/5/1
f 17/4/1 9/4/1 8/4/1
f 17/5/1 8/5/1 16/5/1
f 17/4/1 10/4/1 9/4/1
f 18/5/1 11/5/1 10/5/1
f 18/4/1 10/4/1 17/4/1
f 19/4/1 12/4/1 11/4/1
f 19/5/1 11/5/1 18/5/1
f 19/4/1 14/4/1 13/4/1
f 19/4/1 13/4/1 12/4/1
f 20/5/1 15/5/1 14/5/1
f 20/4/1 14/4/1 19/4/1
f 21/5/1 15/5/1 20/5/1
f 22/4/1 18/4/1 17/4/1
f 22/4/1 19/4/1 18/4/1
f 22/4/1 21/4/1 20/4/1
f 22/4/1 20/4/1 19/4/1
f 22/4/1 17/4/1 16/4/1
f 23/4/1 21/4/1 22/4/1
f 24/4/1 21/4/1 23/4/1
f 25/4/1 21/4/1 24/4/1
f 26/4/1 21/4/1 25/4/1
f 27/4/1 21/4/1 26/4/1
f 28/4/1 24/4/1 23/4/1
f 28/5/1 25/5/1 24/5/1
f 29/4/1 26/4/1 25/4/1
f 29/5/1 25/5/1 28/5/1
f 30/4/1 26/4/1 29/4/1
f 31/4/1 26/4/1 30/4/1
f 32/4/1 28/4/1 23/4/1
f 32/4/1 29/4/1 28/4/1
f 32/4/1 30/4/1 29/4/1
f 33/4/1 30/4/1 32/4/1
f 34/5/1 31/5/1 30/5/1
f 34/4/1 30/4/1 33/4/1
f 35/4/1 26/4/1 31/4/1
f 35/5/1 31/5/1 34/5/1
f 36/5/1 33/5/1 32/5/1
f 37/4/1 34/4/1 33/4/1
f 37/5/1 33/5/1 36/5/1
f 37/4/1 35/4/1 34/4/1
f 38/4/1 35/4/1 37/4/1
f 40/4/1 37/4/1 36/4/1
f 41/5/1 38/5/1 37/5/1
f 41/4/1 37/4/1 40/4/1
f 42/4/1 35/4/1 38/4/1
f 42/5/1 38/5/1 41/5/1
f 43/4/1 26/4/1 35/4/1
f 43/4/1 35/4/1 42/4/1
f 45/4/1 42/4/1 41/4/1
f 45/4/1 41/4/1 40/4/1
f 45/4/1 43/4/1 42/4/1
f 45/4/1 40/4/1 39/4/1
f 46/4/1 43/4/1 45/4/1
f 47/4/1 43/4/1 46/4/1
f 48/4/1 43/4/1 47/4/1
f 49/5/1 44/5/1 43/5/1
f 49/4/1 43/4/1 48/4/1
f 50/5/1 44/5/1 49/5/1
f 51/4/1 45/4/1 39/4/1
f 52/4/1 45/4/1 51/4/1
f 53/5/1 46/5/1 45/5/1
f 53/4/1 45/4/1 52/4/1
f 54/4/1 47/4/1 46/4/1
f 54/5/1 46/5/1 53/5/1
f 55/5/1 48/5/1 47/5/1
f 55/4/1 47/4/1 54/4/1
f 56/4/1 49/4/1 48/4/1
f 56/5/1 48/5/1 55/5/1
f 56/4/1 50/4/1 49/4/1
f 57/4/1 50/4/1 56/4/1
f 58/4/1 50/4/1 57/4/1
f 59/4/1 54/4/1 53/4/1
f 59/4/1 57/4/1 56/4/1
f 59/4/1 56/4/1 55/4/1
f 59/4/1 53/4/1 52/4/1
f 59/4/1 55/4/1 54/4/1
f 60/4/1 57/4/1 59/4/1
f 61/4/1 57/4/1 60/4/1
f 62/4/1 57/4/1 61/4/1
f 63/2/1 61/2/1 60/2/1
f 64/2/1 61/2/1 63/2/1
f 69/4/1 66/4/1 65/4/1
f 70/4/1 66/4/1 69/4/1
f 71/5/1 68/5/1 67/5/1
f 72/5/1 68/5/1 71/5/1
f 77/2/1 74/2/1 73/2/1
f 78/2/1 74/2/1 77/2/1
f 79/4/1 76/4/1 75/4/1
f 80/4/1 76/4/1 79/4/1
f 81/3/1 78/3/1 77/3/1
f 82/5/1 80/5/1 79/5/1
f 83/5/1 80/5/1 82/5/1
f 84/3/1 81/3/1 77/3/1
f 85/3/1 81/3/1 84/3/1
f 86/1/1 85/1/1 84/1/1
f 87/1/1 85/1/1 86/1/1
f 88/4/1 83/4/1 82/4/1
f 89/4/1 83/4/1 88/4/1
f 94/4/1 91/4/1 90/4/1
f 95/4/1 91/4/1 94/4/1
f 98/4/1 93/4/1 92/4/1
f 99/4/1 93/4/1 98/4/1
f 100/2/1 96/2/1 95/2/1
f 101/2/1 96/2/1 100/2/1
f 102/2/1 98/2/1 97/2/1
f 103/2/1 98/2/1 102/2/1
f 108/2/1 105/2/1 104/2/1
f 109/2/1 105/2/1 108/2/1
f 110/2/1 107/2/1 106/2/1
f 111/2/1 107/2/1 110/2/1
f 116/4/1 113/4/1 112/4/1
f 117/4/1 113/4/1 116/4/1
f 118/4/1 115/4/1 114/4/1
f 119/4/1 115/4/1 118/4/1
f 122/4/1 121/4/1 120/4/1
f 123/4/1 121/4/1 122/4/1
f 124/4/2 125/4/2 126/4/2
f 126/4/2 125/4/2 127/4/2
f 128/4/2 129/4/2 132/4/2
f 132/4/2 129/4/2 133/4/2
f 130/4/2 131/4/2 134/4/2
f 134/4/2 131/4/2 135/4/2
f 136/2/2 137/2/2 140/2/2
f 140/2/2 137/2/2 141/2/2
f 138/2/2 139/2/2 142/2/2
f 142/2/2 139/2/2 143/2/2
f 144/4/2 145/4/2 148/4/2
f 148/4/2 145/4/2 149/4/2
f 146/4/2 147/4/2 150/4/2
f 150/4/2 147/4/2 151/4/2
f 152/2/2 153/2/2 156/2/2
f 156/2/2 153/2/2 157/2/2
f 156/1/2 157/1/2 158/1/2
f 158/1/2 157/1/2 159/1/2
f 154/4/2 155/4/2 160/4/2
f 160/4/2 155/4/2 161/4/2
f 162/4/2 163/4/2 166/4/2
f 166/4/2 163/4/2 167/4/2
f 164/4/2 165/4/2 170/4/2
f 170/4/2 165/4/2 171/4/2
f 169/2/2 170/2/2 172/2/2
f 170/2/2 171/2/2 172/2/2
f 172/2/2 171/2/2 173/2/2
f 167/2/2 168/2/2 174/2/2
f 174/2/2 168/2/2 175/2/2
f 169/2/2 172/2/2 176/2/2
f 176/2/2 172/2/2 177/2/2
f 178/4/2 179/4/2 183/4/2
f 183/4/2 179/4/2 184/4/2
f 184/4/2 179/4/2 185/4/2
f 179/5/2 180/5/2 186/5/2
f 185/4/2 179/4/2 186/4/2
f 180/4/2 181/4/2 187/4/2
f 186/5/2 180/5/2 187/5/2
f 187/4/2 181/4/2 188/4/2
f 182/4/2 183/4/2 190/4/2
f 183/4/2 184/4/2 190/4/2
f 190/4/2 184/4/2 191/4/2
f 184/5/2 185/5/2 192/5/2
f 191/4/2 184/4/2 192/4/2
f 185/4/2 186/4/2 193/4/2
f 192/5/2 185/5/2 193/5/2
f 186/4/2 187/4/2 193/4/2
f 187/5/2 188/5/2 194/5/2
f 193/4/2 187/4/2 194/4/2
f 188/4/2 189/4/2 195/4/2
f 194/5/2 188/5/2 195/5/2
f 195/4/2 189/4/2 196/4/2
f 190/5/2 191/5/2 197/5/2
f 191/4/2 192/4/2 198/4/2
f 197/5/2 191/5/2 198/5/2
f 193/4/2 194/4/2 198/4/2
f 192/4/2 193/4/2 198/4/2
f 194/4/2 195/4/2 198/4/2
f 195/5/2 196/5/2 199/5/2
f 198/4/2 195/4/2 199/4/2
f 199/5/2 196/5/2 200/5/2
f 198/4/2 199/4/2 201/4/2
f 201/4/2 199/4/2 202/4/2
f 198/4/2 201/4/2 203/4/2
f 201/5/2 202/5/2 203/5/2
f 202/4/2 199/4/2 204/4/2
f 203/5/2 202/5/2 204/5/2
f 198/4/2 203/4/2 205/4/2
f 203/4/2 204/4/2 205/4/2
f 205/4/2 204/4/2 206/4/2
f 204/4/2 199/4/2 207/4/2
f 206/4/2 204/4/2 207/4/2
f 207/4/2 199/4/2 208/4/2
f 198/4/2 205/4/2 210/4/2
f 210/4/2 205/4/2 211/4/2
f 205/5/2 206/5/2 212/5/2
f 211/4/2 205/4/2 212/4/2
f 206/4/2 207/4/2 213/4/2
f 212/5/2 206/5/2 213/5/2
f 207/5/2 208/5/2 214/5/2
f 213/4/2 207/4/2 214/4/2
f 208/4/2 199/4/2 215/4/2
f 214/5/2 208/5/2 215/5/2
f 215/4/2 199/4/2 216/4/2
f 210/5/2 211/5/2 218/5/2
f 209/4/2 210/4/2 218/4/2
f 216/4/2 217/4/2 219/4/2
f 218/5/2 211/5/2 219/5/2
f 213/4/2 214/4/2 219/4/2
f 214/4/2 215/4/2 219/4/2
f 215/4/2 216/4/2 219/4/2
f 211/4/2 212/4/2 219/4/2
f 212/4/2 213/4/2 219/4/2
f 219/4/2 217/4/2 220/4/2
f 220/4/2 217/4/2 221/4/2
f 209/4/2 218/4/2 222/4/2
f 218/4/2 219/4/2 222/4/2
f 219/4/2 220/4/2 222/4/2
f 222/4/2 220/4/2 223/4/2
f 223/4/2 220/4/2 224/4/2
f 224/4/2 220/4/2 225/4/2
f 225/4/2 220/4/2 226/4/2
f 220/5/2 221/5/2 227/5/2
f 226/4/2 220/4/2 227/4/2
f 221/4/2 217/4/2 228/4/2
f 227/5/2 221/5/2 228/5/2
f 228/4/2 217/4/2 229/4/2
f 223/5/2 224/5/2 230/5/2
f 224/4/2 225/4/2 231/4/2
f 230/5/2 224/5/2 231/5/2
f 225/5/2 226/5/2 232/5/2
f 231/4/2 225/4/2 232/4/2
f 226/4/2 227/4/2 233/4/2
f 232/5/2 226/5/2 233/5/2
f 227/4/2 228/4/2 233/4/2
f 233/4/2 228/4/2 234/4/2
f 234/4/2 228/4/2 235/4/2
f 231/2/2 232/2/2 236/2/2
f 233/2/2 234/2/2 236/2/2
f 232/2/2 233/2/2 236/2/2
f 236/2/2 234/2/2 237/2/2
f 244/5/3 239/5/3 238/5/3
f 245/4/3 240/4/3 239/4/3
f 245/5/3 239/5/3 244/5/3
f 246/4/3 240/4/3 245/4/3
f 249/4/3 242/4/3 241/4/3
f 250/4/3 242/4/3 249/4/3
f 251/4/3 242/4/3 250/4/3
f 253/4/3 244/4/3 243/4/3
f 253/4/3 245/4/3 244/4/3
f 254/2/3 246/2/3 245/2/3
f 254/4/3 245/4/3 253/4/3
f 254/2/3 247/2/3 246/2/3
f 255/3/3 248/3/3 247/3/3
f 255/1/3 250/1/3 249/1/3
f 255/1/3 249/1/3 248/1/3
f 256/1/3 250/1/3 255/1/3
f 257/4/3 252/4/3 251/4/3
f 257/4/3 251/4/3 250/4/3
f 259/4/3 253/4/3 243/4/3
f 259/5/3 254/5/3 253/5/3
f 260/2/3 247/2/3 254/2/3
f 260/5/3 254/5/3 259/5/3
f 261/3/3 256/3/3 255/3/3
f 261/2/3 247/2/3 260/2/3
f 261/3/3 255/3/3 247/3/3
f 262/3/3 256/3/3 261/3/3
f 263/4/3 259/4/3 243/4/3
f 263/4/3 260/4/3 259/4/3
f 264/4/3 260/4/3 263/4/3
f 265/1/3 262/1/3 261/1/3
f 265/2/3 261/2/3 260/2/3
f 266/3/3 256/3/3 262/3/3
f 266/1/3 262/1/3 265/1/3
f 267/1/3 250/1/3 256/1/3
f 267/3/3 256/3/3 266/3/3
f 268/5/3 264/5/3 263/5/3
f 269/4/3 260/4/3 264/4/3
f 269/5/3 264/5/3 268/5/3
f 270/4/3 257/4/3 250/4/3
f 270/1/3 250/1/3 267/1/3
f 270/1/3 267/1/3 266/1/3
f 271/4/3 257/4/3 270/4/3
f 272/4/3 260/4/3 269/4/3
f 272/4/3 269/4/3 268/4/3
f 273/2/3 265/2/3 260/2/3
f 273/4/3 260/4/3 272/4/3
f 273/2/3 266/2/3 265/2/3
f 274/1/3 270/1/3 266/1/3
f 274/2/3 266/2/3 273/2/3
f 275/1/3 270/1/3 274/1/3
f 276/5/3 271/5/3 270/5/3
f 276/1/3 270/1/3 275/1/3
f 277/4/3 257/4/3 271/4/3
f 277/5/3 271/5/3 276/5/3
f 278/2/3 258/2/3 257/2/3
f 278/4/3 257/4/3 277/4/3
f 279/2/3 258/2/3 278/2/3
f 280/4/3 272/4/3 268/4/3
f 281/5/3 273/5/3 272/5/3
f 281/4/3 272/4/3 280/4/3
f 282/2/3 275/2/3 274/2/3
f 282/5/3 273/5/3 281/5/3
f 282/2/3 274/2/3 273/2/3
f 283/2/3 275/2/3 282/2/3
f 284/1/3 276/1/3 275/1/3
f 284/2/3 275/2/3 283/2/3
f 285/1/3 276/1/3 284/1/3
f 286/4/3 277/4/3 276/4/3
f 286/1/3 276/1/3 285/1/3
f 286/4/3 278/4/3 277/4/3
f 287/4/3 278/4/3 286/4/3
f 288/4/3 278/4/3 287/4/3
f 289/4/3 282/4/3 281/4/3
f 290/5/3 283/5/3 282/5/3
f 290/4/3 282/4/3 289/4/3
f 291/5/3 283/5/3 290/5/3
f 292/4/3 287/4/3 286/4/3
f 292/4/3 286/4/3 285/4/3
f 293/4/3 287/4/3 292/4/3
f 302/4/3 295/4/3 294/4/3
f 303/4/3 295/4/3 302/4/3
f 304/4/3 297/4/3 296/4/3
f 305/4/3 297/4/3 304/4/3
f 306/5/3 298/5/3 297/5/3
f 306/4/3 297/4/3 305/4/3
f 307/4/3 299/4/3 298/4/3
f 307/5/3 298/5/3 306/5/3
f 308/4/3 299/4/3 307/4/3
f 309/4/3 301/4/3 300/4/3
f 310/4/3 301/4/3 309/4/3
f 312/2/3 311/2/3 310/2/3
f 313/2/3 311/2/3 312/2/3
f 322/2/3 315/2/3 314/2/3
f 323/2/3 315/2/3 322/2/3
f 324/4/3 317/4/3 316/4/3
f 325/4/3 317/4/3 324/4/3
f 326/4/3 320/4/3 319/4/3
f 326/4/3 319/4/3 318/4/3
f 327/4/3 320/4/3 326/4/3
f 328/5/3 322/5/3 321/5/3
f 329/5/3 322/5/3 328/5/3
f 332/2/3 331/2/3 330/2/3
f 333/2/3 331/2/3 332/2/3
f 336/2/3 335/2/3 334/2/3
f 337/2/3 335/2/3 336/2/3
f 340/4/3 339/4/3 338/4/3
f 341/4/3 339/4/3 340/4/3
f 344/4/3 343/4/3 342/4/3
f 345/4/3 343/4/3 344/4/3
f 348/4/3 347/4/3 346/4/3
f 349/4/3 347/4/3 348/4/3
f 350/4/4 351/4/4 352/4/4
f 352/4/4 351/4/4 353/4/4
f 354/4/4 355/4/4 356/4/4
f 356/4/4 355/4/4 357/4/4
f 358/4/4 359/4/4 360/4/4
f 360/4/4 359/4/4 361/4/4
f 362/2/4 363/2/4 364/2/4
f 364/2/4 363/2/4 365/2/4
f 366/2/4 367/2/4 368/2/4
f 368/2/4 367/2/4 369/2/4
f 370/4/4 371/4/4 376/4/4
f 376/4/4 371/4/4 377/4/4
f 372/4/4 373/4/4 378/4/4
f 378/4/4 373/4/4 379/4/4
f 379/4/4 373/4/4 380/4/4
f 380/4/4 373/4/4 381/4/4
f 374/4/4 375/4/4 382/4/4
f 382/4/4 375/4/4 383/4/4
f 383/2/4 384/2/4 385/2/4
f 385/2/4 384/2/4 386/2/4
f 387/2/4 388/2/4 395/2/4
f 395/2/4 388/2/4 396/2/4
f 389/4/4 390/4/4 397/4/4
f 397/4/4 390/4/4 398/4/4
f 391/4/4 392/4/4 399/4/4
f 399/4/4 392/4/4 400/4/4
f 393/4/4 394/4/4 401/4/4
f 401/4/4 394/4/4 402/4/4
f 403/5/4 404/5/4 410/5/4
f 404/4/4 405/4/4 411/4/4
f 410/5/4 404/5/4 411/5/4
f 411/4/4 405/4/4 412/4/4
f 406/5/4 407/5/4 415/5/4
f 407/4/4 408/4/4 416/4/4
f 415/5/4 407/5/4 416/5/4
f 416/4/4 408/4/4 417/4/4
f 409/5/4 410/5/4 419/5/4
f 410/4/4 411/4/4 420/4/4
f 419/5/4 410/5/4 420/5/4
f 411/4/4 412/4/4 420/4/4
f 412/4/4 413/4/4 420/4/4
f 420/4/4 413/4/4 421/4/4
f 421/4/4 413/4/4 422/4/4
f 413/5/4 414/5/4 423/5/4
f 422/4/4 413/4/4 423/4/4
f 414/4/4 415/4/4 424/4/4
f 423/5/4 414/5/4 424/5/4
f 417/4/4 418/4/4 424/4/4
f 416/4/4 417/4/4 424/4/4
f 415/4/4 416/4/4 424/4/4
f 424/4/4 418/4/4 425/4/4
f 425/4/4 418/4/4 426/4/4
f 426/4/4 418/4/4 427/4/4
f 420/4/4 421/4/4 429/4/4
f 419/4/4 420/4/4 429/4/4
f 421/1/4 422/1/4 430/1/4
f 429/4/4 421/4/4 430/4/4
f 422/6/4 423/6/4 431/6/4
f 430/1/4 422/1/4 431/1/4
f 423/1/4 424/1/4 432/1/4
f 431/6/4 423/6/4 432/6/4
f 424/6/4 425/6/4 433/6/4
f 432/1/4 424/1/4 433/1/4
f 425/1/4 426/1/4 434/1/4
f 433/6/4 425/6/4 434/6/4
f 434/1/4 426/1/4 435/1/4
f 429/5/4 430/5/4 436/5/4
f 419/4/4 429/4/4 436/4/4
f 430/1/4 431/1/4 437/1/4
f 436/5/4 430/5/4 437/5/4
f 431/1/4 432/1/4 437/1/4
f 437/1/4 432/1/4 438/1/4
f 432/6/4 433/6/4 439/6/4
f 438/1/4 432/1/4 439/1/4
f 433/1/4 434/1/4 440/1/4
f 439/6/4 433/6/4 440/6/4
f 434/6/4 435/6/4 441/6/4
f 440/1/4 434/1/4 441/1/4
f 435/1/4 426/1/4 442/1/4
f 441/6/4 435/6/4 442/6/4
f 426/4/4 427/4/4 443/4/4
f 442/1/4 426/1/4 443/1/4
f 443/4/4 427/4/4 444/4/4
f 438/6/4 439/6/4 445/6/4
f 437/1/4 438/1/4 445/1/4
f 439/1/4 440/1/4 446/1/4
f 445/6/4 439/6/4 446/6/4
f 440/6/4 441/6/4 447/6/4
f 446/1/4 440/1/4 447/1/4
f 441/1/4 442/1/4 448/1/4
f 447/6/4 441/6/4 448/6/4
f 442/1/4 443/1/4 448/1/4
f 448/1/4 443/1/4 449/1/4
f 443/5/4 444/5/4 450/5/4
f 449/1/4 443/1/4 450/1/4
f 444/4/4 427/4/4 451/4/4
f 450/5/4 444/5/4 451/5/4
f 419/4/4 436/4/4 452/4/4
f 436/4/4 437/4/4 452/4/4
f 445/1/4 446/1/4 453/1/4
f 452/4/4 437/4/4 453/4/4
f 437/1/4 445/1/4 453/1/4
f 446/6/4 447/6/4 454/6/4
f 453/1/4 446/1/4 454/1/4
f 447/1/4 448/1/4 455/1/4
f 454/6/4 447/6/4 455/6/4
f 448/6/4 449/6/4 456/6/4
f 455/1/4 448/1/4 456/1/4
f 449/1/4 450/1/4 457/1/4
f 456/6/4 449/6/4 457/6/4
f 450/4/4 451/4/4 458/4/4
f 457/1/4 450/1/4 458/1/4
f 451/4/4 427/4/4 459/4/4
f 458/4/4 451/4/4 459/4/4
f 427/2/4 428/2/4 460/2/4
f 460/2/4 428/2/4 461/2/4
f 419/4/4 452/4/4 462/4/4
f 452/5/4 453/5/4 463/5/4
f 462/4/4 452/4/4 463/4/4
f 453/4/4 454/4/4 464/4/4
f 463/5/4 453/5/4 464/5/4
f 457/4/4 458/4/4 464/4/4
f 455/4/4 456/4/4 464/4/4
f 454/4/4 455/4/4 464/4/4
f 456/4/4 457/4/4 464/4/4
f 464/4/4 458/4/4 465/4/4
f 465/4/4 458/4/4 466/4/4
f 458/5/4 459/5/4 467/5/4
f 466/4/4 458/4/4 467/4/4
f 459/4/4 427/4/4 468/4/4
f 467/5/4 459/5/4 468/5/4
f 427/2/4 460/2/4 469/2/4
f 468/4/4 427/4/4 469/4/4
f 469/2/4 460/2/4 470/2/4
f 463/4/4 464/4/4 471/4/4
f 464/5/4 465/5/4 472/5/4
f 471/4/4 464/4/4 472/4/4
f 472/5/4 465/5/4 473/5/4
f 466/4/4 467/4/4 474/4/4
f 467/4/4 468/4/4 474/4/4
f 474/4/4 468/4/4 475/4/4
f 481/4/5 477/4/5 476/4/5
f 482/5/5 478/5/5 477/5/5
f 482/4/5 477/4/5 481/4/5
f 483/4/5 479/4/5 478/4/5
f 483/5/5 478/5/5 482/5/5
f 484/4/5 479/4/5 483/4/5
f 486/4/5 482/4/5 481/4/5
f 486/4/5 485/4/5 484/4/5
f 486/4/5 484/4/5 483/4/5
f 486/4/5 483/4/5 482/4/5
f 486/4/5 481/4/5 480/4/5
f 487/4/5 485/4/5 486/4/5
f 488/4/5 485/4/5 487/4/5
f 489/4/5 485/4/5 488/4/5
f 490/5/5 487/5/5 486/5/5
f 491/4/5 488/4/5 487/4/5
f 491/5/5 487/5/5 490/5/5
f 492/4/5 488/4/5 491/4/5
f 493/4/5 488/4/5 492/4/5
f 494/4/5 485/4/5 489/4/5
f 495/4/5 485/4/5 494/4/5
f 496/4/5 491/4/5 490/4/5
f 496/4/5 492/4/5 491/4/5
f 497/4/5 492/4/5 496/4/5
f 498/4/5 492/4/5 497/4/5
f 501/4/5 485/4/5 495/4/5
f 502/4/5 485/4/5 501/4/5
f 503/4/5 485/4/5 502/4/5
f 504/5/5 497/5/5 496/5/5
f 505/4/5 499/4/5 498/4/5
f 505/5/5 497/5/5 504/5/5
f 505/4/5 498/4/5 497/4/5
f 506/4/5 499/4/5 505/4/5
f 507/4/5 501/4/5 500/4/5
f 507/4/5 502/4/5 501/4/5
f 508/5/5 503/5/5 502/5/5
f 508/4/5 502/4/5 507/4/5
f 509/5/5 503/5/5 508/5/5
f 510/4/5 507/4/5 506/4/5
f 510/4/5 506/4/5 505/4/5
f 510/4/5 509/4/5 508/4/5
f 510/4/5 508/4/5 507/4/5
f 510/4/5 505/4/5 504/4/5
f 511/4/5 509/4/5 510/4/5
f 512/4/5 509/4/5 511/4/5
f 513/4/5 509/4/5 512/4/5
f 514/4/5 509/4/5 513/4/5
f 515/5/5 512/5/5 511/5/5
f 516/4/5 513/4/5 512/4/5
f 516/5/5 512/5/5 515/5/5
f 517/4/5 513/4/5 516/4/5
f 522/5/5 519/5/5 518/5/5
f 523/5/5 519/5/5 522/5/5
f 524/4/5 521/4/5 520/4/5
f 525/4/5 521/4/5 524/4/5
f 529/4/5 527/4/5 526/4/5
f 530/4/5 527/4/5 529/4/5
f 532/4/5 529/4/5 528/4/5
f 532/4/5 531/4/5 530/4/5
f 532/4/5 530/4/5 529/4/5
f 533/4/5 531/4/5 532/4/5
f 534/4/5 531/4/5 533/4/5
f 535/4/5 531/4/5 534/4/5
f 536/4/5 534/4/5 533/4/5
f 537/4/5 534/4/5 536/4/5
f 542/5/5 539/5/5 538/5/5
f 543/5/5 539/5/5 542/5/5
f 544/4/5 541/4/5 540/4/5
f 545/4/5 541/4/5 544/4/5
f 550/4/5 547/4/5 546/4/5
f 551/4/5 547/4/5 550/4/5
f 552/4/5 549/4/5 548/4/5
f 553/4/5 549/4/5 552/4/5
f 558/5/5 555/5/5 554/5/5
f 559/5/5 555/5/5 558/5/5
f 560/4/5 557/4/5 556/4/5
f 561/4/5 557/4/5 560/4/5
f 562/4/6 563/4/6 566/4/6
f 566/4/6 563/4/6 567/4/6
f 564/5/6 565/5/6 568/5/6
f 568/5/6 565/5/6 569/5/6
f 570/4/6 571/4/6 574/4/6
f 574/4/6 571/4/6 575/4/6
f 572/5/6 573/5/6 576/5/6
f 576/5/6 573/5/6 577/5/6
f 578/4/6 579/4/6 582/4/6
f 582/4/6 579/4/6 583/4/6
f 580/4/6 581/4/6 584/4/6
f 584/4/6 581/4/6 585/4/6
f 586/4/6 587/4/6 590/4/6
f 590/4/6 587/4/6 591/4/6
f 588/4/6 589/4/6 592/4/6
f 592/4/6 589/4/6 593/4/6
f 594/4/6 595/4/6 599/4/6
f 599/4/6 595/4/6 600/4/6
f 596/4/6 597/4/6 601/4/6
f 601/4/6 597/4/6 602/4/6
f 598/4/6 599/4/6 604/4/6
f 604/4/6 599/4/6 605/4/6
f 602/5/6 603/5/6 606/5/6
f 606/5/6 603/5/6 607/5/6
f 608/4/6 609/4/6 612/4/6
f 612/4/6 609/4/6 613/4/6
f 610/4/6 611/4/6 615/4/6
f 615/4/6 611/4/6 616/4/6
f 613/4/6 614/4/6 617/4/6
f 617/4/6 614/4/6 618/4/6
f 619/2/6 620/2/6 621/2/6
f 621/2/6 620/2/6 622/2/6
f 623/2/6 624/2/6 626/2/6
f 626/2/6 624/2/6 627/2/6
f 625/2/6 626/2/6 630/2/6
f 627/2/6 628/2/6 630/2/6
f 626/2/6 627/2/6 630/2/6
f 630/2/6 628/2/6 631/2/6
f 629/2/6 630/2/6 633/2/6
f 631/2/6 632/2/6 633/2/6
f 630/2/6 631/2/6 633/2/6
f 633/2/6 632/2/6 634/2/6
f 634/2/6 632/2/6 635/2/6
f 635/2/6 632/2/6 636/2/6
f 634/2/6 635/2/6 637/2/6
f 637/2/6 635/2/6 638/2/6
f 638/2/6 635/2/6 639/2/6
f 639/2/6 635/2/6 640/2/6
f 638/2/6 639/2/6 641/2/6
f 641/2/6 639/2/6 642/2/6
