# MagicaVoxel @ Ephtracy

# group
o 

# material
mtllib can3.mtl
usemtl palette

# normals
vn -1 0 0
vn 1 0 0
vn 0 0 1
vn 0 0 -1
vn 0 -1 0
vn 0 1 0

# texcoords
vt 0.00195312 0.5
vt 0.00585938 0.5
vt 0.712891 0.5
vt 0.958984 0.5
vt 0.970703 0.5

# verts
v 0.1 0 -0.2
v 0.1 0 -0.7
v 0.1 0.2 -0.2
v 0.1 0.2 -0.3
v 0.1 0.3 -0.3
v 0.1 0.3 -0.5
v 0.1 0.3 -0.6
v 0.1 0.3 -0.7
v 0.1 0.4 -0.5
v 0.1 0.4 -0.6
v 0.1 0.5 -0.2
v 0.1 0.5 -0.3
v 0.1 0.6 -0.3
v 0.1 0.6 -0.5
v 0.1 0.6 -0.6
v 0.1 0.6 -0.7
v 0.1 0.7 -0.5
v 0.1 0.7 -0.6
v 0.1 0.8 -0.3
v 0.1 0.8 -0.6
v 0.1 0.9 -0.2
v 0.1 0.9 -0.3
v 0.1 0.9 -0.4
v 0.1 0.9 -0.5
v 0.1 0.9 -0.6
v 0.1 0.9 -0.7
v 0.1 1 -0.3
v 0.1 1 -0.4
v 0.1 1 -0.5
v 0.1 1 -0.6
v 0.1 1.1 -0.4
v 0.1 1.1 -0.5
v 0.2 0.8 -0.3
v 0.2 0.8 -0.6
v 0.2 0.9 -0.3
v 0.2 0.9 -0.4
v 0.2 0.9 -0.5
v 0.2 0.9 -0.6
v 0.3 0.9 -0.4
v 0.3 0.9 -0.5
v 0.3 1 -0.4
v 0.3 1 -0.5
v 0.7 0.9 -0.4
v 0.7 0.9 -0.5
v 0.7 1 -0.4
v 0.7 1 -0.5
v 0.8 0.8 -0.3
v 0.8 0.8 -0.6
v 0.8 0.9 -0.3
v 0.8 0.9 -0.4
v 0.8 0.9 -0.5
v 0.8 0.9 -0.6
v 0.9 0 -0.2
v 0.9 0 -0.7
v 0.9 0.1 -0.2
v 0.9 0.1 -0.3
v 0.9 0.2 -0.6
v 0.9 0.2 -0.7
v 0.9 0.3 -0.2
v 0.9 0.3 -0.3
v 0.9 0.3 -0.4
v 0.9 0.3 -0.6
v 0.9 0.4 -0.2
v 0.9 0.4 -0.4
v 0.9 0.5 -0.6
v 0.9 0.5 -0.7
v 0.9 0.6 -0.4
v 0.9 0.6 -0.6
v 0.9 0.7 -0.2
v 0.9 0.7 -0.4
v 0.9 0.8 -0.3
v 0.9 0.8 -0.6
v 0.9 0.9 -0.2
v 0.9 0.9 -0.3
v 0.9 0.9 -0.4
v 0.9 0.9 -0.5
v 0.9 0.9 -0.6
v 0.9 0.9 -0.7
v 0.9 1 -0.3
v 0.9 1 -0.4
v 0.9 1 -0.5
v 0.9 1 -0.6
v 0.9 1.1 -0.4
v 0.9 1.1 -0.5
v 0.1 0 -0.2
v 0.1 0.2 -0.2
v 0.1 0.5 -0.2
v 0.1 0.9 -0.2
v 0.2 0.4 -0.2
v 0.2 0.5 -0.2
v 0.2 0.6 -0.2
v 0.2 0.7 -0.2
v 0.2 0.8 -0.2
v 0.3 0.4 -0.2
v 0.3 0.5 -0.2
v 0.3 0.6 -0.2
v 0.3 0.7 -0.2
v 0.3 0.8 -0.2
v 0.4 0.6 -0.2
v 0.4 0.7 -0.2
v 0.4 0.8 -0.2
v 0.5 0.2 -0.2
v 0.5 0.3 -0.2
v 0.5 0.5 -0.2
v 0.5 0.6 -0.2
v 0.5 0.7 -0.2
v 0.5 0.8 -0.2
v 0.6 0.1 -0.2
v 0.6 0.3 -0.2
v 0.6 0.6 -0.2
v 0.6 0.7 -0.2
v 0.6 0.8 -0.2
v 0.7 0.1 -0.2
v 0.7 0.2 -0.2
v 0.7 0.3 -0.2
v 0.7 0.4 -0.2
v 0.7 0.7 -0.2
v 0.7 0.8 -0.2
v 0.8 0.2 -0.2
v 0.8 0.3 -0.2
v 0.8 0.6 -0.2
v 0.8 0.7 -0.2
v 0.8 0.8 -0.2
v 0.9 0 -0.2
v 0.9 0.1 -0.2
v 0.9 0.3 -0.2
v 0.9 0.4 -0.2
v 0.9 0.7 -0.2
v 0.9 0.9 -0.2
v 0.1 0.9 -0.3
v 0.1 1 -0.3
v 0.9 0.9 -0.3
v 0.9 1 -0.3
v 0.1 1 -0.4
v 0.1 1.1 -0.4
v 0.9 1 -0.4
v 0.9 1.1 -0.4
v 0.1 0.9 -0.5
v 0.1 1 -0.5
v 0.2 0.9 -0.5
v 0.3 0.9 -0.5
v 0.3 1 -0.5
v 0.7 0.9 -0.5
v 0.7 1 -0.5
v 0.8 0.9 -0.5
v 0.9 0.9 -0.5
v 0.9 1 -0.5
v 0.1 0.8 -0.6
v 0.1 0.9 -0.6
v 0.2 0.8 -0.6
v 0.2 0.9 -0.6
v 0.8 0.8 -0.6
v 0.8 0.9 -0.6
v 0.9 0.8 -0.6
v 0.9 0.9 -0.6
v 0.1 0.8 -0.3
v 0.1 0.9 -0.3
v 0.2 0.8 -0.3
v 0.2 0.9 -0.3
v 0.8 0.8 -0.3
v 0.8 0.9 -0.3
v 0.9 0.8 -0.3
v 0.9 0.9 -0.3
v 0.1 0.9 -0.4
v 0.1 1 -0.4
v 0.2 0.9 -0.4
v 0.3 0.9 -0.4
v 0.3 1 -0.4
v 0.7 0.9 -0.4
v 0.7 1 -0.4
v 0.8 0.9 -0.4
v 0.9 0.9 -0.4
v 0.9 1 -0.4
v 0.1 1 -0.5
v 0.1 1.1 -0.5
v 0.9 1 -0.5
v 0.9 1.1 -0.5
v 0.1 0.9 -0.6
v 0.1 1 -0.6
v 0.9 0.9 -0.6
v 0.9 1 -0.6
v 0.1 0 -0.7
v 0.1 0.3 -0.7
v 0.1 0.6 -0.7
v 0.1 0.9 -0.7
v 0.4 0.2 -0.7
v 0.4 0.3 -0.7
v 0.4 0.6 -0.7
v 0.4 0.7 -0.7
v 0.8 0.2 -0.7
v 0.8 0.3 -0.7
v 0.8 0.5 -0.7
v 0.8 0.6 -0.7
v 0.8 0.7 -0.7
v 0.9 0 -0.7
v 0.9 0.2 -0.7
v 0.9 0.5 -0.7
v 0.9 0.9 -0.7
v 0.1 0 -0.2
v 0.9 0 -0.2
v 0.2 0 -0.3
v 0.8 0 -0.3
v 0.2 0 -0.6
v 0.8 0 -0.6
v 0.1 0 -0.7
v 0.9 0 -0.7
v 0.1 0.9 -0.3
v 0.2 0.9 -0.3
v 0.8 0.9 -0.3
v 0.9 0.9 -0.3
v 0.1 0.9 -0.4
v 0.2 0.9 -0.4
v 0.8 0.9 -0.4
v 0.9 0.9 -0.4
v 0.1 0.9 -0.5
v 0.2 0.9 -0.5
v 0.8 0.9 -0.5
v 0.9 0.9 -0.5
v 0.1 0.9 -0.6
v 0.2 0.9 -0.6
v 0.8 0.9 -0.6
v 0.9 0.9 -0.6
v 0.1 1 -0.4
v 0.3 1 -0.4
v 0.7 1 -0.4
v 0.9 1 -0.4
v 0.1 1 -0.5
v 0.3 1 -0.5
v 0.7 1 -0.5
v 0.9 1 -0.5
v 0.1 0.8 -0.3
v 0.2 0.8 -0.3
v 0.8 0.8 -0.3
v 0.9 0.8 -0.3
v 0.1 0.8 -0.6
v 0.2 0.8 -0.6
v 0.8 0.8 -0.6
v 0.9 0.8 -0.6
v 0.1 0.9 -0.2
v 0.9 0.9 -0.2
v 0.1 0.9 -0.3
v 0.9 0.9 -0.3
v 0.2 0.9 -0.4
v 0.3 0.9 -0.4
v 0.7 0.9 -0.4
v 0.8 0.9 -0.4
v 0.2 0.9 -0.5
v 0.3 0.9 -0.5
v 0.7 0.9 -0.5
v 0.8 0.9 -0.5
v 0.1 0.9 -0.6
v 0.9 0.9 -0.6
v 0.1 0.9 -0.7
v 0.9 0.9 -0.7
v 0.1 1 -0.3
v 0.9 1 -0.3
v 0.1 1 -0.4
v 0.9 1 -0.4
v 0.1 1 -0.5
v 0.9 1 -0.5
v 0.1 1 -0.6
v 0.9 1 -0.6
v 0.1 1.1 -0.4
v 0.9 1.1 -0.4
v 0.1 1.1 -0.5
v 0.9 1.1 -0.5

# faces
f 3/2/1 2/2/1 1/2/1
f 4/2/1 2/2/1 3/2/1
f 5/3/1 4/3/1 3/3/1
f 5/2/1 2/2/1 4/2/1
f 6/2/1 2/2/1 5/2/1
f 7/2/1 2/2/1 6/2/1
f 8/2/1 2/2/1 7/2/1
f 9/3/1 6/3/1 5/3/1
f 9/2/1 7/2/1 6/2/1
f 10/3/1 8/3/1 7/3/1
f 10/2/1 7/2/1 9/2/1
f 11/3/1 5/3/1 3/3/1
f 11/3/1 9/3/1 5/3/1
f 11/3/1 10/3/1 9/3/1
f 12/3/1 10/3/1 11/3/1
f 13/2/1 12/2/1 11/2/1
f 13/3/1 10/3/1 12/3/1
f 14/3/1 10/3/1 13/3/1
f 15/3/1 8/3/1 10/3/1
f 15/3/1 10/3/1 14/3/1
f 16/3/1 8/3/1 15/3/1
f 17/2/1 14/2/1 13/2/1
f 17/3/1 15/3/1 14/3/1
f 18/2/1 16/2/1 15/2/1
f 18/3/1 15/3/1 17/3/1
f 19/2/1 13/2/1 11/2/1
f 19/2/1 17/2/1 13/2/1
f 19/2/1 18/2/1 17/2/1
f 20/2/1 16/2/1 18/2/1
f 20/2/1 18/2/1 19/2/1
f 21/2/1 19/2/1 11/2/1
f 22/2/1 19/2/1 21/2/1
f 25/2/1 16/2/1 20/2/1
f 26/2/1 16/2/1 25/2/1
f 27/2/1 23/2/1 22/2/1
f 28/2/1 23/2/1 27/2/1
f 29/2/1 25/2/1 24/2/1
f 30/2/1 25/2/1 29/2/1
f 31/2/1 29/2/1 28/2/1
f 32/2/1 29/2/1 31/2/1
f 35/2/1 34/2/1 33/2/1
f 36/2/1 34/2/1 35/2/1
f 37/2/1 34/2/1 36/2/1
f 38/2/1 34/2/1 37/2/1
f 41/2/1 40/2/1 39/2/1
f 42/2/1 40/2/1 41/2/1
f 43/2/2 44/2/2 45/2/2
f 45/2/2 44/2/2 46/2/2
f 47/2/2 48/2/2 49/2/2
f 49/2/2 48/2/2 50/2/2
f 50/2/2 48/2/2 51/2/2
f 51/2/2 48/2/2 52/2/2
f 53/2/2 54/2/2 55/2/2
f 55/2/2 54/2/2 56/2/2
f 56/2/2 54/2/2 57/2/2
f 57/2/2 54/2/2 58/2/2
f 55/4/2 56/4/2 59/4/2
f 56/2/2 57/2/2 60/2/2
f 59/4/2 56/4/2 60/4/2
f 60/2/2 57/2/2 61/2/2
f 57/3/2 58/3/2 62/3/2
f 61/2/2 57/2/2 62/2/2
f 60/2/2 61/2/2 63/2/2
f 59/2/2 60/2/2 63/2/2
f 61/3/2 62/3/2 64/3/2
f 63/2/2 61/2/2 64/2/2
f 62/3/2 58/3/2 65/3/2
f 64/3/2 62/3/2 65/3/2
f 63/3/2 64/3/2 65/3/2
f 65/3/2 58/3/2 66/3/2
f 63/3/2 65/3/2 67/3/2
f 65/2/2 66/2/2 68/2/2
f 67/3/2 65/3/2 68/3/2
f 63/3/2 67/3/2 69/3/2
f 67/2/2 68/2/2 70/2/2
f 69/3/2 67/3/2 70/3/2
f 69/2/2 70/2/2 71/2/2
f 68/2/2 66/2/2 72/2/2
f 71/2/2 70/2/2 72/2/2
f 70/2/2 68/2/2 72/2/2
f 69/2/2 71/2/2 73/2/2
f 73/2/2 71/2/2 74/2/2
f 72/2/2 66/2/2 77/2/2
f 77/2/2 66/2/2 78/2/2
f 74/2/2 75/2/2 79/2/2
f 79/2/2 75/2/2 80/2/2
f 76/2/2 77/2/2 81/2/2
f 81/2/2 77/2/2 82/2/2
f 80/2/2 81/2/2 83/2/2
f 83/2/2 81/2/2 84/2/2
f 89/3/3 87/3/3 86/3/3
f 90/2/3 88/2/3 87/2/3
f 90/3/3 87/3/3 89/3/3
f 91/2/3 88/2/3 90/2/3
f 92/2/3 88/2/3 91/2/3
f 93/2/3 88/2/3 92/2/3
f 94/3/3 89/3/3 86/3/3
f 94/2/3 90/2/3 89/2/3
f 94/2/3 91/2/3 90/2/3
f 95/2/3 91/2/3 94/2/3
f 96/4/3 92/4/3 91/4/3
f 96/2/3 91/2/3 95/2/3
f 97/1/3 93/1/3 92/1/3
f 97/4/3 92/4/3 96/4/3
f 98/2/3 88/2/3 93/2/3
f 98/1/3 93/1/3 97/1/3
f 99/1/3 97/1/3 96/1/3
f 99/2/3 96/2/3 95/2/3
f 100/2/3 98/2/3 97/2/3
f 100/1/3 97/1/3 99/1/3
f 101/2/3 88/2/3 98/2/3
f 101/2/3 98/2/3 100/2/3
f 102/2/3 86/2/3 85/2/3
f 102/3/3 95/3/3 94/3/3
f 102/3/3 94/3/3 86/3/3
f 103/3/3 95/3/3 102/3/3
f 104/2/3 99/2/3 95/2/3
f 104/3/3 95/3/3 103/3/3
f 105/4/3 100/4/3 99/4/3
f 105/2/3 99/2/3 104/2/3
f 106/1/3 101/1/3 100/1/3
f 106/4/3 100/4/3 105/4/3
f 107/2/3 88/2/3 101/2/3
f 107/1/3 101/1/3 106/1/3
f 108/2/3 103/2/3 102/2/3
f 108/2/3 102/2/3 85/2/3
f 109/3/3 104/3/3 103/3/3
f 109/2/3 103/2/3 108/2/3
f 109/3/3 105/3/3 104/3/3
f 110/2/3 106/2/3 105/2/3
f 110/3/3 105/3/3 109/3/3
f 111/4/3 107/4/3 106/4/3
f 111/2/3 106/2/3 110/2/3
f 112/2/3 88/2/3 107/2/3
f 112/4/3 107/4/3 111/4/3
f 113/1/3 109/1/3 108/1/3
f 113/2/3 108/2/3 85/2/3
f 114/1/3 109/1/3 113/1/3
f 115/3/3 110/3/3 109/3/3
f 115/1/3 109/1/3 114/1/3
f 116/3/3 110/3/3 115/3/3
f 117/2/3 112/2/3 111/2/3
f 117/1/3 111/1/3 110/1/3
f 118/2/3 88/2/3 112/2/3
f 118/2/3 112/2/3 117/2/3
f 119/4/3 114/4/3 113/4/3
f 119/1/3 115/1/3 114/1/3
f 120/2/3 116/2/3 115/2/3
f 120/1/3 115/1/3 119/1/3
f 121/1/3 117/1/3 110/1/3
f 121/3/3 110/3/3 116/3/3
f 122/4/3 118/4/3 117/4/3
f 122/1/3 117/1/3 121/1/3
f 123/2/3 88/2/3 118/2/3
f 123/4/3 118/4/3 122/4/3
f 124/2/3 113/2/3 85/2/3
f 125/4/3 120/4/3 119/4/3
f 125/2/3 113/2/3 124/2/3
f 125/4/3 119/4/3 113/4/3
f 126/2/3 116/2/3 120/2/3
f 126/4/3 120/4/3 125/4/3
f 127/3/3 122/3/3 121/3/3
f 127/2/3 116/2/3 126/2/3
f 127/3/3 121/3/3 116/3/3
f 128/2/3 123/2/3 122/2/3
f 128/3/3 122/3/3 127/3/3
f 129/2/3 88/2/3 123/2/3
f 129/2/3 123/2/3 128/2/3
f 132/2/3 131/2/3 130/2/3
f 133/2/3 131/2/3 132/2/3
f 136/2/3 135/2/3 134/2/3
f 137/2/3 135/2/3 136/2/3
f 140/2/3 139/2/3 138/2/3
f 141/2/3 139/2/3 140/2/3
f 142/2/3 139/2/3 141/2/3
f 145/2/3 144/2/3 143/2/3
f 146/2/3 144/2/3 145/2/3
f 147/2/3 144/2/3 146/2/3
f 150/2/3 149/2/3 148/2/3
f 151/2/3 149/2/3 150/2/3
f 154/2/3 153/2/3 152/2/3
f 155/2/3 153/2/3 154/2/3
f 156/2/4 157/2/4 158/2/4
f 158/2/4 157/2/4 159/2/4
f 160/2/4 161/2/4 162/2/4
f 162/2/4 161/2/4 163/2/4
f 164/2/4 165/2/4 166/2/4
f 166/2/4 165/2/4 167/2/4
f 167/2/4 165/2/4 168/2/4
f 169/2/4 170/2/4 171/2/4
f 171/2/4 170/2/4 172/2/4
f 172/2/4 170/2/4 173/2/4
f 174/2/4 175/2/4 176/2/4
f 176/2/4 175/2/4 177/2/4
f 178/2/4 179/2/4 180/2/4
f 180/2/4 179/2/4 181/2/4
f 182/2/4 183/2/4 186/2/4
f 183/3/4 184/3/4 187/3/4
f 186/2/4 183/2/4 187/2/4
f 184/2/4 185/2/4 188/2/4
f 187/3/4 184/3/4 188/3/4
f 188/2/4 185/2/4 189/2/4
f 186/4/4 187/4/4 190/4/4
f 182/2/4 186/2/4 190/2/4
f 187/1/4 188/1/4 191/1/4
f 190/4/4 187/4/4 191/4/4
f 191/1/4 188/1/4 192/1/4
f 188/4/4 189/4/4 193/4/4
f 192/1/4 188/1/4 193/1/4
f 189/2/4 185/2/4 194/2/4
f 193/4/4 189/4/4 194/4/4
f 182/2/4 190/2/4 195/2/4
f 191/3/4 192/3/4 196/3/4
f 195/2/4 190/2/4 196/2/4
f 190/3/4 191/3/4 196/3/4
f 192/2/4 193/2/4 197/2/4
f 196/3/4 192/3/4 197/3/4
f 193/2/4 194/2/4 197/2/4
f 194/2/4 185/2/4 198/2/4
f 197/2/4 194/2/4 198/2/4
f 201/2/5 200/2/5 199/2/5
f 202/2/5 200/2/5 201/2/5
f 203/2/5 201/2/5 199/2/5
f 203/5/5 202/5/5 201/5/5
f 204/2/5 200/2/5 202/2/5
f 204/5/5 202/5/5 203/5/5
f 205/2/5 203/2/5 199/2/5
f 205/2/5 204/2/5 203/2/5
f 206/2/5 200/2/5 204/2/5
f 206/2/5 204/2/5 205/2/5
f 211/2/5 208/2/5 207/2/5
f 212/2/5 208/2/5 211/2/5
f 213/2/5 210/2/5 209/2/5
f 214/2/5 210/2/5 213/2/5
f 219/2/5 216/2/5 215/2/5
f 220/2/5 216/2/5 219/2/5
f 221/2/5 218/2/5 217/2/5
f 222/2/5 218/2/5 221/2/5
f 227/2/5 224/2/5 223/2/5
f 228/2/5 224/2/5 227/2/5
f 229/2/5 226/2/5 225/2/5
f 230/2/5 226/2/5 229/2/5
f 231/2/6 232/2/6 235/2/6
f 235/2/6 232/2/6 236/2/6
f 233/2/6 234/2/6 237/2/6
f 237/2/6 234/2/6 238/2/6
f 239/2/6 240/2/6 241/2/6
f 241/2/6 240/2/6 242/2/6
f 243/2/6 244/2/6 247/2/6
f 247/2/6 244/2/6 248/2/6
f 245/2/6 246/2/6 249/2/6
f 249/2/6 246/2/6 250/2/6
f 251/2/6 252/2/6 253/2/6
f 253/2/6 252/2/6 254/2/6
f 255/2/6 256/2/6 257/2/6
f 257/2/6 256/2/6 258/2/6
f 259/2/6 260/2/6 261/2/6
f 261/2/6 260/2/6 262/2/6
f 263/2/6 264/2/6 265/2/6
f 265/2/6 264/2/6 266/2/6
