# MagicaVoxel @ Ephtracy

# group
o 

# material
mtllib can4.mtl
usemtl palette

# normals
vn -1 0 0
vn 1 0 0
vn 0 0 1
vn 0 0 -1
vn 0 -1 0
vn 0 1 0

# texcoords
vt 0.0292969 0.5
vt 0.591797 0.5
vt 0.837891 0.5
vt 0.958984 0.5

# verts
v -0.7 0 1
v -0.7 0 0.9
v -0.7 0.7 1
v -0.7 0.7 0.9
v -0.7 1.5 1
v -0.7 1.5 0.9
v -0.6 0 1.1
v -0.6 0 1
v -0.6 0 0.9
v -0.6 0 0.8
v -0.6 0.6 0.9
v -0.6 0.6 0.8
v -0.6 0.7 1.1
v -0.6 0.7 1
v -0.6 0.7 0.9
v -0.6 0.7 0.8
v -0.6 0.9 1.1
v -0.6 0.9 1
v -0.6 0.9 0.9
v -0.6 0.9 0.8
v -0.5 0.9 1.1
v -0.5 0.9 1
v -0.5 0.9 0.9
v -0.5 0.9 0.8
v -0.5 1 1
v -0.5 1 0.9
v -0.5 1 0.8
v -0.5 1.1 1.1
v -0.5 1.1 1
v -0.5 1.1 0.9
v -0.5 1.1 0.8
v -0.5 1.2 1.1
v -0.5 1.2 1
v -0.5 1.2 0.9
v -0.5 1.2 0.8
v -0.4 0 1.2
v -0.4 0 1.1
v -0.4 0 0.8
v -0.4 0 0.7
v -0.4 0.6 1.2
v -0.4 0.6 1.1
v -0.4 0.6 0.8
v -0.4 0.6 0.7
v -0.4 1.2 1.1
v -0.4 1.2 1
v -0.4 1.2 0.9
v -0.4 1.2 0.8
v -0.4 1.4 1.1
v -0.4 1.4 1
v -0.4 1.4 0.9
v -0.4 1.4 0.8
v -0.3 0.6 1.2
v -0.3 0.6 1.1
v -0.3 0.6 0.8
v -0.3 0.6 0.7
v -0.3 0.7 1.2
v -0.3 0.7 1.1
v -0.3 0.7 0.8
v -0.3 0.7 0.7
v -0.3 0.8 1.2
v -0.3 0.8 1.1
v -0.3 0.8 0.8
v -0.3 0.8 0.7
v -0.3 0.9 1.2
v -0.3 0.9 1.1
v -0.3 0.9 0.8
v -0.3 0.9 0.7
v -0.3 1 1.2
v -0.3 1 1.1
v -0.3 1 0.8
v -0.3 1 0.7
v -0.2 0 1.3
v -0.2 0 1.2
v -0.2 0 0.7
v -0.2 0 0.6
v -0.2 0.2 0.7
v -0.2 0.2 0.6
v -0.2 0.6 1.3
v -0.2 0.6 1.2
v -0.2 0.6 0.7
v -0.2 0.6 0.6
v -0.2 1 1.2
v -0.2 1 1.1
v -0.2 1 0.8
v -0.2 1 0.7
v -0.2 1.1 0.8
v -0.2 1.1 0.7
v -0.2 1.2 1.2
v -0.2 1.2 1.1
v -0.2 1.2 0.8
v -0.2 1.2 0.7
v 0.2 0 1.1
v 0.2 0 1
v 0.2 0 0.9
v 0.2 0 0.8
v 0.2 0.1 1.1
v 0.2 0.1 1
v 0.2 0.1 0.9
v 0.2 0.1 0.8
v 0.3 0 1
v 0.3 0 0.9
v 0.3 0.1 1
v 0.3 0.1 0.9
v -0.5 0 1
v -0.5 0 0.9
v -0.5 0.1 1
v -0.5 0.1 0.9
v -0.4 0 1.1
v -0.4 0 1
v -0.4 0 0.9
v -0.4 0 0.8
v -0.4 0.1 1.1
v -0.4 0.1 1
v -0.4 0.1 0.9
v -0.4 0.1 0.8
v 5.96046e-08 0 1.3
v 5.96046e-08 0 1.2
v 5.96046e-08 0 0.7
v 5.96046e-08 0 0.6
v 5.96046e-08 0.2 1.3
v 5.96046e-08 0.2 1.2
v 5.96046e-08 0.6 1.3
v 5.96046e-08 0.6 1.2
v 5.96046e-08 0.6 0.7
v 5.96046e-08 0.6 0.6
v 5.96046e-08 1 1.2
v 5.96046e-08 1 1.1
v 5.96046e-08 1 0.8
v 5.96046e-08 1 0.7
v 5.96046e-08 1.1 1.2
v 5.96046e-08 1.1 1.1
v 5.96046e-08 1.2 1.2
v 5.96046e-08 1.2 1.1
v 5.96046e-08 1.2 0.8
v 5.96046e-08 1.2 0.7
v 0.1 0.6 1.2
v 0.1 0.6 1.1
v 0.1 0.6 0.8
v 0.1 0.6 0.7
v 0.1 0.7 1.2
v 0.1 0.7 1.1
v 0.1 0.7 0.8
v 0.1 0.7 0.7
v 0.1 0.8 1.2
v 0.1 0.8 1.1
v 0.1 0.8 0.8
v 0.1 0.8 0.7
v 0.1 0.9 1.2
v 0.1 0.9 1.1
v 0.1 0.9 0.8
v 0.1 0.9 0.7
v 0.1 1 1.2
v 0.1 1 1.1
v 0.1 1 0.8
v 0.1 1 0.7
v 0.2 0 1.2
v 0.2 0 1.1
v 0.2 0 0.8
v 0.2 0 0.7
v 0.2 0.6 1.2
v 0.2 0.6 1.1
v 0.2 0.6 0.8
v 0.2 0.6 0.7
v 0.2 1.2 1.1
v 0.2 1.2 1
v 0.2 1.2 0.9
v 0.2 1.2 0.8
v 0.2 1.4 1.1
v 0.2 1.4 1
v 0.2 1.4 0.9
v 0.2 1.4 0.8
v 0.3 0.9 1.1
v 0.3 0.9 1
v 0.3 0.9 0.9
v 0.3 0.9 0.8
v 0.3 1 1.1
v 0.3 1 1
v 0.3 1 0.9
v 0.3 1.1 1.1
v 0.3 1.1 1
v 0.3 1.1 0.9
v 0.3 1.1 0.8
v 0.3 1.2 1.1
v 0.3 1.2 1
v 0.3 1.2 0.9
v 0.3 1.2 0.8
v 0.4 0 1.1
v 0.4 0 1
v 0.4 0 0.9
v 0.4 0 0.8
v 0.4 0.6 1.1
v 0.4 0.6 1
v 0.4 0.7 1.1
v 0.4 0.7 1
v 0.4 0.7 0.9
v 0.4 0.7 0.8
v 0.4 0.9 1.1
v 0.4 0.9 1
v 0.4 0.9 0.9
v 0.4 0.9 0.8
v 0.5 0 1
v 0.5 0 0.9
v 0.5 0.7 1
v 0.5 0.7 0.9
v 0.5 1.5 1
v 0.5 1.5 0.9
v -0.2 0 1.3
v -0.2 0.6 1.3
v -0.1 0.2 1.3
v -0.1 0.6 1.3
v 5.96046e-08 0 1.3
v 5.96046e-08 0.2 1.3
v 5.96046e-08 0.6 1.3
v -0.4 0 1.2
v -0.4 0.6 1.2
v -0.3 0.6 1.2
v -0.3 0.7 1.2
v -0.3 0.8 1.2
v -0.3 0.9 1.2
v -0.3 1 1.2
v -0.2 0 1.2
v -0.2 0.6 1.2
v -0.2 0.8 1.2
v -0.2 0.9 1.2
v -0.2 1 1.2
v -0.2 1.2 1.2
v -0.1 0.6 1.2
v -0.1 0.8 1.2
v -0.1 0.9 1.2
v -0.1 1 1.2
v -0.1 1.1 1.2
v 5.96046e-08 0 1.2
v 5.96046e-08 0.2 1.2
v 5.96046e-08 0.6 1.2
v 5.96046e-08 1 1.2
v 5.96046e-08 1.1 1.2
v 5.96046e-08 1.2 1.2
v 0.1 0 1.2
v 0.1 0.2 1.2
v 0.1 0.6 1.2
v 0.1 0.7 1.2
v 0.1 0.8 1.2
v 0.1 0.9 1.2
v 0.1 1 1.2
v 0.2 0 1.2
v 0.2 0.6 1.2
v -0.6 0 1.1
v -0.6 0.7 1.1
v -0.6 0.9 1.1
v -0.5 0.9 1.1
v -0.5 1.1 1.1
v -0.5 1.2 1.1
v -0.4 0 1.1
v -0.4 0.6 1.1
v -0.4 1 1.1
v -0.4 1.1 1.1
v -0.4 1.2 1.1
v -0.4 1.4 1.1
v -0.3 0.6 1.1
v -0.3 0.7 1.1
v -0.3 0.8 1.1
v -0.3 0.9 1.1
v -0.3 1 1.1
v -0.3 1.1 1.1
v -0.3 1.2 1.1
v -0.3 1.3 1.1
v -0.2 1 1.1
v -0.2 1.2 1.1
v -0.2 1.3 1.1
v 5.96046e-08 1 1.1
v 5.96046e-08 1.1 1.1
v 5.96046e-08 1.2 1.1
v 5.96046e-08 1.3 1.1
v 0.1 0.6 1.1
v 0.1 0.7 1.1
v 0.1 0.8 1.1
v 0.1 0.9 1.1
v 0.1 1 1.1
v 0.1 1.1 1.1
v 0.1 1.2 1.1
v 0.1 1.3 1.1
v 0.2 0 1.1
v 0.2 0.6 1.1
v 0.2 1 1.1
v 0.2 1.1 1.1
v 0.2 1.2 1.1
v 0.2 1.4 1.1
v 0.3 0.9 1.1
v 0.3 1 1.1
v 0.3 1.1 1.1
v 0.3 1.2 1.1
v 0.4 0 1.1
v 0.4 0.6 1.1
v 0.4 0.7 1.1
v 0.4 0.9 1.1
v -0.7 0 1
v -0.7 0.7 1
v -0.7 1.5 1
v -0.6 0 1
v -0.6 0.7 1
v -0.6 0.9 1
v -0.6 1 1
v -0.6 1.3 1
v -0.5 0.9 1
v -0.5 1 1
v -0.5 1.1 1
v -0.5 1.2 1
v -0.5 1.3 1
v -0.4 1.2 1
v -0.4 1.4 1
v 0.2 1.2 1
v 0.2 1.4 1
v 0.3 0.9 1
v 0.3 1 1
v 0.3 1.1 1
v 0.3 1.2 1
v 0.3 1.3 1
v 0.4 0 1
v 0.4 0.6 1
v 0.4 0.7 1
v 0.4 0.9 1
v 0.4 1 1
v 0.4 1.3 1
v 0.5 0 1
v 0.5 0.7 1
v 0.5 1.5 1
v -0.5 0 0.9
v -0.5 0.1 0.9
v -0.4 0 0.9
v -0.4 0.1 0.9
v 0.2 0 0.9
v 0.2 0.1 0.9
v 0.3 0 0.9
v 0.3 0.1 0.9
v -0.4 0 0.8
v -0.4 0.1 0.8
v -0.3 0 0.8
v -0.3 0.1 0.8
v 0.2 0 0.8
v 0.2 0.1 0.8
v -0.4 0 1.1
v -0.4 0.1 1.1
v 0.1 0 1.1
v 0.1 0.1 1.1
v 0.2 0 1.1
v 0.2 0.1 1.1
v -0.5 0 1
v -0.5 0.1 1
v -0.4 0 1
v -0.4 0.1 1
v 0.2 0 1
v 0.2 0.1 1
v 0.3 0 1
v 0.3 0.1 1
v -0.7 0 0.9
v -0.7 0.7 0.9
v -0.7 1.5 0.9
v -0.6 0 0.9
v -0.6 0.6 0.9
v -0.6 0.7 0.9
v -0.6 0.9 0.9
v -0.6 1 0.9
v -0.6 1.3 0.9
v -0.5 0.9 0.9
v -0.5 1 0.9
v -0.5 1.1 0.9
v -0.5 1.2 0.9
v -0.5 1.3 0.9
v -0.4 1.2 0.9
v -0.4 1.4 0.9
v 0.2 1.2 0.9
v 0.2 1.4 0.9
v 0.3 0.9 0.9
v 0.3 1 0.9
v 0.3 1.1 0.9
v 0.3 1.2 0.9
v 0.3 1.3 0.9
v 0.4 0 0.9
v 0.4 0.7 0.9
v 0.4 0.9 0.9
v 0.4 1 0.9
v 0.4 1.3 0.9
v 0.5 0 0.9
v 0.5 0.7 0.9
v 0.5 1.5 0.9
v -0.6 0 0.8
v -0.6 0.6 0.8
v -0.6 0.7 0.8
v -0.6 0.9 0.8
v -0.5 0.9 0.8
v -0.5 1 0.8
v -0.5 1.1 0.8
v -0.5 1.2 0.8
v -0.4 0 0.8
v -0.4 0.6 0.8
v -0.4 1 0.8
v -0.4 1.1 0.8
v -0.4 1.2 0.8
v -0.4 1.4 0.8
v -0.3 0.6 0.8
v -0.3 0.7 0.8
v -0.3 0.8 0.8
v -0.3 0.9 0.8
v -0.3 1 0.8
v -0.3 1.1 0.8
v -0.3 1.2 0.8
v -0.3 1.3 0.8
v -0.2 1 0.8
v -0.2 1.1 0.8
v -0.2 1.2 0.8
v -0.2 1.3 0.8
v 5.96046e-08 1 0.8
v 5.96046e-08 1.2 0.8
v 5.96046e-08 1.3 0.8
v 0.1 0.6 0.8
v 0.1 0.7 0.8
v 0.1 0.8 0.8
v 0.1 0.9 0.8
v 0.1 1 0.8
v 0.1 1.1 0.8
v 0.1 1.2 0.8
v 0.1 1.3 0.8
v 0.2 0 0.8
v 0.2 0.6 0.8
v 0.2 1 0.8
v 0.2 1.1 0.8
v 0.2 1.2 0.8
v 0.2 1.4 0.8
v 0.3 0.9 0.8
v 0.3 1.1 0.8
v 0.3 1.2 0.8
v 0.4 0 0.8
v 0.4 0.7 0.8
v 0.4 0.9 0.8
v -0.4 0 0.7
v -0.4 0.6 0.7
v -0.3 0 0.7
v -0.3 0.2 0.7
v -0.3 0.6 0.7
v -0.3 0.7 0.7
v -0.3 0.8 0.7
v -0.3 0.9 0.7
v -0.3 1 0.7
v -0.2 0 0.7
v -0.2 0.2 0.7
v -0.2 0.6 0.7
v -0.2 1 0.7
v -0.2 1.1 0.7
v -0.2 1.2 0.7
v -0.1 0.6 0.7
v -0.1 0.8 0.7
v -0.1 0.9 0.7
v -0.1 1 0.7
v -0.1 1.1 0.7
v 5.96046e-08 0 0.7
v 5.96046e-08 0.6 0.7
v 5.96046e-08 0.8 0.7
v 5.96046e-08 0.9 0.7
v 5.96046e-08 1 0.7
v 5.96046e-08 1.2 0.7
v 0.1 0.6 0.7
v 0.1 0.7 0.7
v 0.1 0.8 0.7
v 0.1 0.9 0.7
v 0.1 1 0.7
v 0.2 0 0.7
v 0.2 0.6 0.7
v -0.2 0 0.6
v -0.2 0.2 0.6
v -0.2 0.6 0.6
v -0.1 0.2 0.6
v -0.1 0.6 0.6
v 5.96046e-08 0 0.6
v 5.96046e-08 0.6 0.6
v -0.2 0 1.3
v 5.96046e-08 0 1.3
v -0.4 0 1.2
v -0.2 0 1.2
v 5.96046e-08 0 1.2
v 0.1 0 1.2
v 0.2 0 1.2
v -0.6 0 1.1
v -0.4 0 1.1
v 0.1 0 1.1
v 0.2 0 1.1
v 0.4 0 1.1
v -0.7 0 1
v -0.6 0 1
v -0.5 0 1
v -0.4 0 1
v 0.2 0 1
v 0.3 0 1
v 0.4 0 1
v 0.5 0 1
v -0.7 0 0.9
v -0.6 0 0.9
v -0.5 0 0.9
v -0.4 0 0.9
v 0.2 0 0.9
v 0.3 0 0.9
v 0.4 0 0.9
v 0.5 0 0.9
v -0.6 0 0.8
v -0.4 0 0.8
v -0.3 0 0.8
v 0.2 0 0.8
v 0.4 0 0.8
v -0.4 0 0.7
v -0.3 0 0.7
v -0.2 0 0.7
v 5.96046e-08 0 0.7
v 0.2 0 0.7
v -0.2 0 0.6
v 5.96046e-08 0 0.6
v -0.4 0.1 1.1
v 0.1 0.1 1.1
v 0.2 0.1 1.1
v -0.5 0.1 1
v -0.4 0.1 1
v 0.1 0.1 1
v 0.2 0.1 1
v 0.3 0.1 1
v -0.5 0.1 0.9
v -0.4 0.1 0.9
v -0.3 0.1 0.9
v 0.2 0.1 0.9
v 0.3 0.1 0.9
v -0.4 0.1 0.8
v -0.3 0.1 0.8
v 0.2 0.1 0.8
v -0.2 0.6 1.3
v -0.1 0.6 1.3
v 5.96046e-08 0.6 1.3
v -0.4 0.6 1.2
v -0.3 0.6 1.2
v -0.2 0.6 1.2
v -0.1 0.6 1.2
v 5.96046e-08 0.6 1.2
v 0.1 0.6 1.2
v 0.2 0.6 1.2
v -0.4 0.6 1.1
v -0.3 0.6 1.1
v 0.1 0.6 1.1
v 0.2 0.6 1.1
v -0.4 0.6 0.8
v -0.3 0.6 0.8
v 0.1 0.6 0.8
v 0.2 0.6 0.8
v -0.4 0.6 0.7
v -0.3 0.6 0.7
v -0.2 0.6 0.7
v -0.1 0.6 0.7
v 5.96046e-08 0.6 0.7
v 0.1 0.6 0.7
v 0.2 0.6 0.7
v -0.2 0.6 0.6
v -0.1 0.6 0.6
v 5.96046e-08 0.6 0.6
v -0.6 0.9 1.1
v -0.5 0.9 1.1
v 0.3 0.9 1.1
v 0.4 0.9 1.1
v -0.6 0.9 1
v -0.5 0.9 1
v 0.3 0.9 1
v 0.4 0.9 1
v -0.6 0.9 0.9
v -0.5 0.9 0.9
v 0.3 0.9 0.9
v 0.4 0.9 0.9
v -0.6 0.9 0.8
v -0.5 0.9 0.8
v 0.3 0.9 0.8
v 0.4 0.9 0.8
v -0.3 1 1.2
v -0.2 1 1.2
v 5.96046e-08 1 1.2
v 0.1 1 1.2
v -0.3 1 1.1
v -0.2 1 1.1
v 5.96046e-08 1 1.1
v 0.1 1 1.1
v -0.3 1 0.8
v -0.2 1 0.8
v 5.96046e-08 1 0.8
v 0.1 1 0.8
v -0.3 1 0.7
v -0.2 1 0.7
v 5.96046e-08 1 0.7
v 0.1 1 0.7
v -0.2 1.2 1.2
v 5.96046e-08 1.2 1.2
v -0.5 1.2 1.1
v -0.4 1.2 1.1
v -0.2 1.2 1.1
v 5.96046e-08 1.2 1.1
v 0.2 1.2 1.1
v 0.3 1.2 1.1
v -0.5 1.2 1
v -0.4 1.2 1
v 0.2 1.2 1
v 0.3 1.2 1
v -0.5 1.2 0.9
v -0.4 1.2 0.9
v 0.2 1.2 0.9
v 0.3 1.2 0.9
v -0.5 1.2 0.8
v -0.4 1.2 0.8
v -0.2 1.2 0.8
v 5.96046e-08 1.2 0.8
v 0.2 1.2 0.8
v 0.3 1.2 0.8
v -0.2 1.2 0.7
v 5.96046e-08 1.2 0.7
v -0.4 1.4 1.1
v 0.2 1.4 1.1
v -0.4 1.4 1
v 0.2 1.4 1
v -0.4 1.4 0.9
v 0.2 1.4 0.9
v -0.4 1.4 0.8
v 0.2 1.4 0.8
v -0.7 1.5 1
v 0.5 1.5 1
v -0.7 1.5 0.9
v 0.5 1.5 0.9

# faces
f 3/4/1 2/4/1 1/4/1
f 4/4/1 2/4/1 3/4/1
f 5/2/1 4/2/1 3/2/1
f 6/2/1 4/2/1 5/2/1
f 11/1/1 10/1/1 9/1/1
f 12/1/1 10/1/1 11/1/1
f 13/4/1 8/4/1 7/4/1
f 14/4/1 8/4/1 13/4/1
f 15/4/1 12/4/1 11/4/1
f 16/4/1 12/4/1 15/4/1
f 17/2/1 14/2/1 13/2/1
f 18/2/1 14/2/1 17/2/1
f 19/2/1 16/2/1 15/2/1
f 20/2/1 16/2/1 19/2/1
f 25/2/1 22/2/1 21/2/1
f 26/2/1 24/2/1 23/2/1
f 27/2/1 24/2/1 26/2/1
f 28/2/1 25/2/1 21/2/1
f 29/2/1 25/2/1 28/2/1
f 30/3/1 27/3/1 26/3/1
f 31/3/1 27/3/1 30/3/1
f 32/3/1 29/3/1 28/3/1
f 33/3/1 29/3/1 32/3/1
f 34/2/1 31/2/1 30/2/1
f 35/2/1 31/2/1 34/2/1
f 40/4/1 37/4/1 36/4/1
f 41/4/1 37/4/1 40/4/1
f 42/1/1 39/1/1 38/1/1
f 43/1/1 39/1/1 42/1/1
f 48/2/1 45/2/1 44/2/1
f 49/2/1 45/2/1 48/2/1
f 50/2/1 47/2/1 46/2/1
f 51/2/1 47/2/1 50/2/1
f 56/4/1 53/4/1 52/4/1
f 57/4/1 53/4/1 56/4/1
f 58/4/1 55/4/1 54/4/1
f 59/4/1 55/4/1 58/4/1
f 60/2/1 57/2/1 56/2/1
f 61/2/1 57/2/1 60/2/1
f 62/2/1 59/2/1 58/2/1
f 63/2/1 59/2/1 62/2/1
f 64/3/1 61/3/1 60/3/1
f 65/3/1 61/3/1 64/3/1
f 66/3/1 63/3/1 62/3/1
f 67/3/1 63/3/1 66/3/1
f 68/2/1 65/2/1 64/2/1
f 69/2/1 65/2/1 68/2/1
f 70/2/1 67/2/1 66/2/1
f 71/2/1 67/2/1 70/2/1
f 76/4/1 75/4/1 74/4/1
f 77/4/1 75/4/1 76/4/1
f 78/4/1 73/4/1 72/4/1
f 79/4/1 73/4/1 78/4/1
f 80/1/1 77/1/1 76/1/1
f 81/1/1 77/1/1 80/1/1
f 86/2/1 85/2/1 84/2/1
f 87/2/1 85/2/1 86/2/1
f 88/3/1 83/3/1 82/3/1
f 89/3/1 83/3/1 88/3/1
f 90/3/1 87/3/1 86/3/1
f 91/3/1 87/3/1 90/3/1
f 96/1/1 93/1/1 92/1/1
f 97/1/1 93/1/1 96/1/1
f 98/4/1 95/4/1 94/4/1
f 99/4/1 95/4/1 98/4/1
f 102/4/1 101/4/1 100/4/1
f 103/4/1 101/4/1 102/4/1
f 104/4/2 105/4/2 106/4/2
f 106/4/2 105/4/2 107/4/2
f 108/4/2 109/4/2 112/4/2
f 112/4/2 109/4/2 113/4/2
f 110/1/2 111/1/2 114/1/2
f 114/1/2 111/1/2 115/1/2
f 116/4/2 117/4/2 120/4/2
f 120/4/2 117/4/2 121/4/2
f 120/1/2 121/1/2 122/1/2
f 122/1/2 121/1/2 123/1/2
f 118/4/2 119/4/2 124/4/2
f 124/4/2 119/4/2 125/4/2
f 126/2/2 127/2/2 130/2/2
f 130/2/2 127/2/2 131/2/2
f 130/3/2 131/3/2 132/3/2
f 132/3/2 131/3/2 133/3/2
f 128/3/2 129/3/2 134/3/2
f 134/3/2 129/3/2 135/3/2
f 136/4/2 137/4/2 140/4/2
f 140/4/2 137/4/2 141/4/2
f 138/4/2 139/4/2 142/4/2
f 142/4/2 139/4/2 143/4/2
f 140/2/2 141/2/2 144/2/2
f 144/2/2 141/2/2 145/2/2
f 142/2/2 143/2/2 146/2/2
f 146/2/2 143/2/2 147/2/2
f 144/3/2 145/3/2 148/3/2
f 148/3/2 145/3/2 149/3/2
f 146/3/2 147/3/2 150/3/2
f 150/3/2 147/3/2 151/3/2
f 148/2/2 149/2/2 152/2/2
f 152/2/2 149/2/2 153/2/2
f 150/2/2 151/2/2 154/2/2
f 154/2/2 151/2/2 155/2/2
f 156/1/2 157/1/2 160/1/2
f 160/1/2 157/1/2 161/1/2
f 158/4/2 159/4/2 162/4/2
f 162/4/2 159/4/2 163/4/2
f 164/2/2 165/2/2 168/2/2
f 168/2/2 165/2/2 169/2/2
f 166/2/2 167/2/2 170/2/2
f 170/2/2 167/2/2 171/2/2
f 172/2/2 173/2/2 176/2/2
f 176/2/2 173/2/2 177/2/2
f 174/2/2 175/2/2 178/2/2
f 176/3/2 177/3/2 179/3/2
f 179/3/2 177/3/2 180/3/2
f 178/2/2 175/2/2 181/2/2
f 181/2/2 175/2/2 182/2/2
f 179/2/2 180/2/2 183/2/2
f 183/2/2 180/2/2 184/2/2
f 181/3/2 182/3/2 185/3/2
f 185/3/2 182/3/2 186/3/2
f 187/1/2 188/1/2 191/1/2
f 191/1/2 188/1/2 192/1/2
f 191/4/2 192/4/2 193/4/2
f 193/4/2 192/4/2 194/4/2
f 189/4/2 190/4/2 195/4/2
f 195/4/2 190/4/2 196/4/2
f 193/2/2 194/2/2 197/2/2
f 197/2/2 194/2/2 198/2/2
f 195/2/2 196/2/2 199/2/2
f 199/2/2 196/2/2 200/2/2
f 201/4/2 202/4/2 203/4/2
f 203/4/2 202/4/2 204/4/2
f 203/2/2 204/2/2 205/2/2
f 205/2/2 204/2/2 206/2/2
f 209/4/3 208/4/3 207/4/3
f 210/4/3 208/4/3 209/4/3
f 211/4/3 209/4/3 207/4/3
f 212/1/3 210/1/3 209/1/3
f 212/4/3 209/4/3 211/4/3
f 213/1/3 210/1/3 212/1/3
f 216/4/3 215/4/3 214/4/3
f 221/4/3 216/4/3 214/4/3
f 221/4/3 217/4/3 216/4/3
f 222/4/3 217/4/3 221/4/3
f 223/3/3 219/3/3 218/3/3
f 223/2/3 218/2/3 217/2/3
f 224/2/3 220/2/3 219/2/3
f 224/3/3 219/3/3 223/3/3
f 225/2/3 220/2/3 224/2/3
f 227/4/3 217/4/3 222/4/3
f 228/2/3 223/2/3 217/2/3
f 228/2/3 225/2/3 224/2/3
f 228/2/3 224/2/3 223/2/3
f 229/2/3 225/2/3 228/2/3
f 230/3/3 226/3/3 225/3/3
f 230/2/3 225/2/3 229/2/3
f 231/3/3 226/3/3 230/3/3
f 234/4/3 217/4/3 227/4/3
f 235/2/3 230/2/3 229/2/3
f 235/2/3 231/2/3 230/2/3
f 236/3/3 226/3/3 231/3/3
f 236/2/3 231/2/3 235/2/3
f 237/3/3 226/3/3 236/3/3
f 238/4/3 233/4/3 232/4/3
f 239/1/3 234/1/3 233/1/3
f 239/4/3 233/4/3 238/4/3
f 240/4/3 217/4/3 234/4/3
f 240/1/3 234/1/3 239/1/3
f 241/2/3 228/2/3 217/2/3
f 241/4/3 217/4/3 240/4/3
f 242/3/3 229/3/3 228/3/3
f 242/2/3 228/2/3 241/2/3
f 243/2/3 235/2/3 229/2/3
f 243/3/3 229/3/3 242/3/3
f 244/2/3 235/2/3 243/2/3
f 245/1/3 240/1/3 239/1/3
f 245/1/3 239/1/3 238/1/3
f 246/1/3 240/1/3 245/1/3
f 250/2/3 249/2/3 248/2/3
f 253/4/3 248/4/3 247/4/3
f 254/4/3 248/4/3 253/4/3
f 255/2/3 251/2/3 250/2/3
f 256/3/3 252/3/3 251/3/3
f 256/2/3 251/2/3 255/2/3
f 257/3/3 252/3/3 256/3/3
f 259/4/3 248/4/3 254/4/3
f 260/2/3 255/2/3 250/2/3
f 260/4/3 248/4/3 259/4/3
f 260/2/3 250/2/3 248/2/3
f 261/2/3 255/2/3 260/2/3
f 262/2/3 255/2/3 261/2/3
f 263/3/3 256/3/3 255/3/3
f 263/2/3 255/2/3 262/2/3
f 264/2/3 258/2/3 257/2/3
f 264/3/3 256/3/3 263/3/3
f 264/2/3 257/2/3 256/2/3
f 265/2/3 258/2/3 264/2/3
f 266/2/3 258/2/3 265/2/3
f 267/2/3 265/2/3 264/2/3
f 267/2/3 264/2/3 263/2/3
f 268/3/3 266/3/3 265/3/3
f 268/2/3 265/2/3 267/2/3
f 269/2/3 258/2/3 266/2/3
f 269/3/3 266/3/3 268/3/3
f 272/2/3 269/2/3 268/2/3
f 273/2/3 258/2/3 269/2/3
f 273/2/3 269/2/3 272/2/3
f 278/3/3 271/3/3 270/3/3
f 279/2/3 272/2/3 271/2/3
f 279/3/3 271/3/3 278/3/3
f 280/3/3 273/3/3 272/3/3
f 280/2/3 272/2/3 279/2/3
f 281/2/3 258/2/3 273/2/3
f 281/3/3 273/3/3 280/3/3
f 283/4/3 275/4/3 274/4/3
f 284/2/3 278/2/3 277/2/3
f 284/2/3 277/2/3 276/2/3
f 284/2/3 279/2/3 278/2/3
f 284/2/3 276/2/3 275/2/3
f 285/3/3 280/3/3 279/3/3
f 285/2/3 279/2/3 284/2/3
f 286/2/3 281/2/3 280/2/3
f 286/3/3 280/3/3 285/3/3
f 287/2/3 258/2/3 281/2/3
f 287/2/3 281/2/3 286/2/3
f 288/2/3 284/2/3 275/2/3
f 289/3/3 285/3/3 284/3/3
f 289/2/3 284/2/3 288/2/3
f 290/2/3 286/2/3 285/2/3
f 290/3/3 285/3/3 289/3/3
f 291/2/3 286/2/3 290/2/3
f 292/1/3 283/1/3 282/1/3
f 293/4/3 275/4/3 283/4/3
f 293/1/3 283/1/3 292/1/3
f 294/2/3 288/2/3 275/2/3
f 294/4/3 275/4/3 293/4/3
f 295/2/3 288/2/3 294/2/3
f 299/4/3 297/4/3 296/4/3
f 300/2/3 298/2/3 297/2/3
f 300/4/3 297/4/3 299/4/3
f 301/2/3 298/2/3 300/2/3
f 302/2/3 298/2/3 301/2/3
f 303/2/3 298/2/3 302/2/3
f 304/2/3 302/2/3 301/2/3
f 305/3/3 303/3/3 302/3/3
f 305/2/3 302/2/3 304/2/3
f 306/3/3 303/3/3 305/3/3
f 307/3/3 303/3/3 306/3/3
f 308/2/3 298/2/3 303/2/3
f 308/3/3 303/3/3 307/3/3
f 309/2/3 308/2/3 307/2/3
f 310/2/3 298/2/3 308/2/3
f 310/2/3 308/2/3 309/2/3
f 312/2/3 298/2/3 310/2/3
f 316/2/3 312/2/3 311/2/3
f 317/2/3 312/2/3 316/2/3
f 321/2/3 314/2/3 313/2/3
f 322/3/3 315/3/3 314/3/3
f 322/3/3 316/3/3 315/3/3
f 322/2/3 314/2/3 321/2/3
f 322/3/3 317/3/3 316/3/3
f 323/2/3 312/2/3 317/2/3
f 323/3/3 317/3/3 322/3/3
f 324/4/3 320/4/3 319/4/3
f 324/4/3 319/4/3 318/4/3
f 325/2/3 321/2/3 320/2/3
f 325/4/3 320/4/3 324/4/3
f 325/2/3 323/2/3 322/2/3
f 325/2/3 322/2/3 321/2/3
f 326/2/3 298/2/3 312/2/3
f 326/2/3 323/2/3 325/2/3
f 326/2/3 312/2/3 323/2/3
f 329/1/3 328/1/3 327/1/3
f 330/1/3 328/1/3 329/1/3
f 333/4/3 332/4/3 331/4/3
f 334/4/3 332/4/3 333/4/3
f 337/1/3 336/1/3 335/1/3
f 338/1/3 336/1/3 337/1/3
f 339/4/3 338/4/3 337/4/3
f 340/4/3 338/4/3 339/4/3
f 341/4/4 342/4/4 343/4/4
f 343/4/4 342/4/4 344/4/4
f 343/1/4 344/1/4 345/1/4
f 345/1/4 344/1/4 346/1/4
f 347/4/4 348/4/4 349/4/4
f 349/4/4 348/4/4 350/4/4
f 351/1/4 352/1/4 353/1/4
f 353/1/4 352/1/4 354/1/4
f 355/4/4 356/4/4 358/4/4
f 358/4/4 356/4/4 359/4/4
f 356/2/4 357/2/4 360/2/4
f 359/4/4 356/4/4 360/4/4
f 360/2/4 357/2/4 361/2/4
f 361/2/4 357/2/4 362/2/4
f 362/2/4 357/2/4 363/2/4
f 361/2/4 362/2/4 364/2/4
f 362/3/4 363/3/4 365/3/4
f 364/2/4 362/2/4 365/2/4
f 365/3/4 363/3/4 366/3/4
f 366/3/4 363/3/4 367/3/4
f 363/2/4 357/2/4 368/2/4
f 367/3/4 363/3/4 368/3/4
f 367/2/4 368/2/4 369/2/4
f 368/2/4 357/2/4 370/2/4
f 369/2/4 368/2/4 370/2/4
f 370/2/4 357/2/4 372/2/4
f 371/2/4 372/2/4 376/2/4
f 376/2/4 372/2/4 377/2/4
f 373/2/4 374/2/4 380/2/4
f 374/3/4 375/3/4 381/3/4
f 375/3/4 376/3/4 381/3/4
f 380/2/4 374/2/4 381/2/4
f 376/3/4 377/3/4 381/3/4
f 377/2/4 372/2/4 382/2/4
f 381/3/4 377/3/4 382/3/4
f 378/4/4 379/4/4 383/4/4
f 379/2/4 380/2/4 384/2/4
f 383/4/4 379/4/4 384/4/4
f 380/2/4 381/2/4 384/2/4
f 381/2/4 382/2/4 384/2/4
f 372/2/4 357/2/4 385/2/4
f 384/2/4 382/2/4 385/2/4
f 382/2/4 372/2/4 385/2/4
f 388/2/4 389/2/4 390/2/4
f 386/1/4 387/1/4 394/1/4
f 387/4/4 388/4/4 395/4/4
f 394/1/4 387/1/4 395/1/4
f 390/2/4 391/2/4 396/2/4
f 391/3/4 392/3/4 396/3/4
f 392/2/4 393/2/4 397/2/4
f 396/3/4 392/3/4 397/3/4
f 397/2/4 393/2/4 398/2/4
f 395/4/4 388/4/4 400/4/4
f 390/2/4 396/2/4 401/2/4
f 400/4/4 388/4/4 401/4/4
f 388/2/4 390/2/4 401/2/4
f 396/2/4 397/2/4 401/2/4
f 401/2/4 397/2/4 402/2/4
f 402/2/4 397/2/4 403/2/4
f 403/2/4 397/2/4 404/2/4
f 397/3/4 398/3/4 405/3/4
f 404/2/4 397/2/4 405/2/4
f 398/2/4 399/2/4 406/2/4
f 405/3/4 398/3/4 406/3/4
f 406/2/4 399/2/4 407/2/4
f 404/3/4 405/3/4 408/3/4
f 405/2/4 406/2/4 409/2/4
f 408/3/4 405/3/4 409/3/4
f 406/3/4 407/3/4 410/3/4
f 409/2/4 406/2/4 410/2/4
f 407/2/4 399/2/4 411/2/4
f 410/3/4 407/3/4 411/3/4
f 410/2/4 411/2/4 413/2/4
f 411/2/4 399/2/4 414/2/4
f 413/2/4 411/2/4 414/2/4
f 412/2/4 413/2/4 419/2/4
f 419/2/4 413/2/4 420/2/4
f 413/3/4 414/3/4 421/3/4
f 420/2/4 413/2/4 421/2/4
f 414/2/4 399/2/4 422/2/4
f 421/3/4 414/3/4 422/3/4
f 415/4/4 416/4/4 424/4/4
f 417/2/4 418/2/4 425/2/4
f 419/3/4 420/3/4 425/3/4
f 416/2/4 417/2/4 425/2/4
f 418/2/4 419/2/4 425/2/4
f 420/2/4 421/2/4 426/2/4
f 425/3/4 420/3/4 426/3/4
f 421/2/4 422/2/4 426/2/4
f 426/2/4 422/2/4 427/2/4
f 422/2/4 399/2/4 428/2/4
f 427/2/4 422/2/4 428/2/4
f 416/2/4 425/2/4 429/2/4
f 425/2/4 426/2/4 429/2/4
f 426/3/4 427/3/4 430/3/4
f 429/2/4 426/2/4 430/2/4
f 430/3/4 427/3/4 431/3/4
f 423/4/4 424/4/4 432/4/4
f 424/4/4 416/4/4 433/4/4
f 432/4/4 424/4/4 433/4/4
f 416/2/4 429/2/4 433/2/4
f 433/2/4 429/2/4 434/2/4
f 435/1/4 436/1/4 437/1/4
f 437/1/4 436/1/4 438/1/4
f 438/1/4 436/1/4 439/1/4
f 437/4/4 438/4/4 444/4/4
f 438/1/4 439/1/4 445/1/4
f 444/4/4 438/4/4 445/4/4
f 439/4/4 440/4/4 446/4/4
f 445/1/4 439/1/4 446/1/4
f 442/2/4 443/2/4 447/2/4
f 446/4/4 440/4/4 450/4/4
f 440/2/4 441/2/4 451/2/4
f 441/3/4 442/3/4 451/3/4
f 447/2/4 448/2/4 452/2/4
f 451/3/4 442/3/4 452/3/4
f 442/2/4 447/2/4 452/2/4
f 452/2/4 448/2/4 453/2/4
f 448/3/4 449/3/4 454/3/4
f 453/2/4 448/2/4 454/2/4
f 450/4/4 440/4/4 456/4/4
f 452/2/4 453/2/4 457/2/4
f 440/2/4 451/2/4 457/2/4
f 451/2/4 452/2/4 457/2/4
f 457/2/4 453/2/4 458/2/4
f 453/3/4 454/3/4 459/3/4
f 458/2/4 453/2/4 459/2/4
f 454/3/4 449/3/4 460/3/4
f 459/3/4 454/3/4 460/3/4
f 455/4/4 456/4/4 461/4/4
f 456/4/4 440/4/4 461/4/4
f 440/2/4 457/2/4 462/2/4
f 461/4/4 440/4/4 462/4/4
f 457/3/4 458/3/4 463/3/4
f 462/2/4 457/2/4 463/2/4
f 458/2/4 459/2/4 464/2/4
f 463/3/4 458/3/4 464/3/4
f 464/2/4 459/2/4 465/2/4
f 455/4/4 461/4/4 466/4/4
f 466/4/4 461/4/4 467/4/4
f 468/4/4 469/4/4 471/4/4
f 469/1/4 470/1/4 471/1/4
f 471/1/4 470/1/4 472/1/4
f 468/4/4 471/4/4 473/4/4
f 471/4/4 472/4/4 473/4/4
f 473/4/4 472/4/4 474/4/4
f 478/4/5 476/4/5 475/4/5
f 479/4/5 476/4/5 478/4/5
f 483/4/5 478/4/5 477/4/5
f 483/4/5 479/4/5 478/4/5
f 483/4/5 480/4/5 479/4/5
f 484/1/5 481/1/5 480/1/5
f 484/4/5 480/4/5 483/4/5
f 485/1/5 481/1/5 484/1/5
f 488/4/5 483/4/5 482/4/5
f 489/4/5 483/4/5 488/4/5
f 490/4/5 483/4/5 489/4/5
f 491/1/5 486/1/5 485/1/5
f 492/1/5 486/1/5 491/1/5
f 493/1/5 486/1/5 492/1/5
f 495/4/5 488/4/5 487/4/5
f 495/4/5 489/4/5 488/4/5
f 496/4/5 489/4/5 495/4/5
f 497/4/5 489/4/5 496/4/5
f 500/4/5 494/4/5 493/4/5
f 500/4/5 493/4/5 492/4/5
f 501/4/5 494/4/5 500/4/5
f 502/4/5 494/4/5 501/4/5
f 503/1/5 498/1/5 497/1/5
f 503/1/5 497/1/5 496/1/5
f 504/1/5 498/1/5 503/1/5
f 506/4/5 501/4/5 500/4/5
f 506/4/5 500/4/5 499/4/5
f 507/4/5 501/4/5 506/4/5
f 508/1/5 505/1/5 504/1/5
f 509/4/5 506/4/5 505/4/5
f 509/1/5 505/1/5 508/1/5
f 510/4/5 506/4/5 509/4/5
f 511/4/5 506/4/5 510/4/5
f 512/4/5 506/4/5 511/4/5
f 513/4/5 511/4/5 510/4/5
f 514/4/5 511/4/5 513/4/5
f 519/4/5 516/4/5 515/4/5
f 520/1/5 517/1/5 516/1/5
f 520/4/5 516/4/5 519/4/5
f 521/1/5 517/1/5 520/1/5
f 523/4/5 519/4/5 518/4/5
f 523/4/5 522/4/5 521/4/5
f 523/4/5 521/4/5 520/4/5
f 523/4/5 520/4/5 519/4/5
f 524/4/5 522/4/5 523/4/5
f 525/4/5 522/4/5 524/4/5
f 526/4/5 522/4/5 525/4/5
f 527/4/5 522/4/5 526/4/5
f 528/1/5 525/1/5 524/1/5
f 529/4/5 526/4/5 525/4/5
f 529/1/5 525/1/5 528/1/5
f 530/4/5 526/4/5 529/4/5
f 531/4/6 532/4/6 536/4/6
f 532/1/6 533/1/6 537/1/6
f 536/4/6 532/4/6 537/4/6
f 537/1/6 533/1/6 538/1/6
f 534/4/6 535/4/6 541/4/6
f 541/4/6 535/4/6 542/4/6
f 539/1/6 540/1/6 543/1/6
f 543/1/6 540/1/6 544/1/6
f 545/1/6 546/1/6 549/1/6
f 549/1/6 546/1/6 550/1/6
f 547/4/6 548/4/6 554/4/6
f 554/4/6 548/4/6 555/4/6
f 551/1/6 552/1/6 556/1/6
f 552/4/6 553/4/6 557/4/6
f 556/1/6 552/1/6 557/1/6
f 557/4/6 553/4/6 558/4/6
f 559/2/6 560/2/6 563/2/6
f 563/2/6 560/2/6 564/2/6
f 561/2/6 562/2/6 565/2/6
f 565/2/6 562/2/6 566/2/6
f 567/2/6 568/2/6 571/2/6
f 571/2/6 568/2/6 572/2/6
f 569/2/6 570/2/6 573/2/6
f 573/2/6 570/2/6 574/2/6
f 575/2/6 576/2/6 579/2/6
f 579/2/6 576/2/6 580/2/6
f 577/2/6 578/2/6 581/2/6
f 581/2/6 578/2/6 582/2/6
f 583/2/6 584/2/6 587/2/6
f 587/2/6 584/2/6 588/2/6
f 585/2/6 586/2/6 589/2/6
f 589/2/6 586/2/6 590/2/6
f 591/3/6 592/3/6 595/3/6
f 595/3/6 592/3/6 596/3/6
f 593/3/6 594/3/6 599/3/6
f 599/3/6 594/3/6 600/3/6
f 597/2/6 598/2/6 601/2/6
f 601/2/6 598/2/6 602/2/6
f 603/2/6 604/2/6 607/2/6
f 607/2/6 604/2/6 608/2/6
f 605/3/6 606/3/6 611/3/6
f 611/3/6 606/3/6 612/3/6
f 609/3/6 610/3/6 613/3/6
f 613/3/6 610/3/6 614/3/6
f 615/2/6 616/2/6 617/2/6
f 617/2/6 616/2/6 618/2/6
f 619/2/6 620/2/6 621/2/6
f 621/2/6 620/2/6 622/2/6
f 623/2/6 624/2/6 625/2/6
f 625/2/6 624/2/6 626/2/6
