# MagicaVoxel @ Ephtracy

# group
o 

# material
mtllib conveyorbeltbutton.mtl
usemtl palette

# normals
vn -1 0 0
vn 1 0 0
vn 0 0 1
vn 0 0 -1
vn 0 -1 0
vn 0 1 0

# texcoords
vt 0.880859 0.5
vt 0.884766 0.5

# verts
v -1 2.2 1
v -1 2.2 0.9
v -1 2.3 1.1
v -1 2.3 1
v -1 2.3 0.9
v -1 2.3 0.8
v -1 2.4 1.2
v -1 2.4 1.1
v -1 2.4 0.8
v -1 2.4 0.7
v -1 2.5 1.2
v -1 2.5 1.1
v -1 2.5 0.8
v -1 2.5 0.7
v -1 2.6 1.1
v -1 2.6 1
v -1 2.6 0.9
v -1 2.6 0.8
v -1 2.7 1
v -1 2.7 0.9
v -0.9 2.2 1.1
v -0.9 2.2 1
v -0.9 2.2 0.9
v -0.9 2.2 0.8
v -0.9 2.3 1.2
v -0.9 2.3 1.1
v -0.9 2.3 1
v -0.9 2.3 0.9
v -0.9 2.3 0.8
v -0.9 2.3 0.7
v -0.9 2.4 1.2
v -0.9 2.4 1.1
v -0.9 2.4 0.8
v -0.9 2.4 0.7
v -0.9 2.5 1.2
v -0.9 2.5 1.1
v -0.9 2.5 0.8
v -0.9 2.5 0.7
v -0.9 2.6 1.2
v -0.9 2.6 1.1
v -0.9 2.6 1
v -0.9 2.6 0.9
v -0.9 2.6 0.8
v -0.9 2.6 0.7
v -0.9 2.7 1.1
v -0.9 2.7 1
v -0.9 2.7 0.9
v -0.9 2.7 0.8
v -0.8 2.2 1.1
v -0.8 2.2 0.8
v -0.8 2.3 1.2
v -0.8 2.3 1.1
v -0.8 2.3 0.8
v -0.8 2.3 0.7
v -0.8 2.4 0.8
v -0.8 2.4 0.7
v -0.8 2.5 0.8
v -0.8 2.5 0.7
v -0.8 2.6 1.2
v -0.8 2.6 1.1
v -0.8 2.6 0.8
v -0.8 2.6 0.7
v -0.8 2.7 1.1
v -0.8 2.7 0.8
v -1 2.4 1.2
v -1 2.5 1.2
v -0.9 2.3 1.2
v -0.9 2.4 1.2
v -0.9 2.5 1.2
v -0.9 2.6 1.2
v -0.8 2.3 1.2
v -0.8 2.6 1.2
v -1 2.3 1.1
v -1 2.4 1.1
v -1 2.5 1.1
v -1 2.6 1.1
v -0.9 2.2 1.1
v -0.9 2.3 1.1
v -0.9 2.4 1.1
v -0.9 2.5 1.1
v -0.9 2.6 1.1
v -0.9 2.7 1.1
v -0.8 2.2 1.1
v -0.8 2.3 1.1
v -0.8 2.6 1.1
v -0.8 2.7 1.1
v -1 2.2 1
v -1 2.3 1
v -1 2.6 1
v -1 2.7 1
v -0.9 2.2 1
v -0.9 2.3 1
v -0.9 2.6 1
v -0.9 2.7 1
v -1 2.2 0.9
v -1 2.3 0.9
v -1 2.6 0.9
v -1 2.7 0.9
v -0.9 2.2 0.9
v -0.9 2.3 0.9
v -0.9 2.6 0.9
v -0.9 2.7 0.9
v -1 2.3 0.8
v -1 2.4 0.8
v -1 2.5 0.8
v -1 2.6 0.8
v -0.9 2.2 0.8
v -0.9 2.3 0.8
v -0.9 2.4 0.8
v -0.9 2.5 0.8
v -0.9 2.6 0.8
v -0.9 2.7 0.8
v -0.8 2.2 0.8
v -0.8 2.3 0.8
v -0.8 2.6 0.8
v -0.8 2.7 0.8
v -1 2.4 0.7
v -1 2.5 0.7
v -0.9 2.3 0.7
v -0.9 2.4 0.7
v -0.9 2.5 0.7
v -0.9 2.6 0.7
v -0.8 2.3 0.7
v -0.8 2.4 0.7
v -0.8 2.5 0.7
v -0.8 2.6 0.7
v -0.9 2.2 1.1
v -0.8 2.2 1.1
v -1 2.2 1
v -0.9 2.2 1
v -1 2.2 0.9
v -0.9 2.2 0.9
v -0.9 2.2 0.8
v -0.8 2.2 0.8
v -0.9 2.3 1.2
v -0.8 2.3 1.2
v -1 2.3 1.1
v -0.9 2.3 1.1
v -0.8 2.3 1.1
v -1 2.3 1
v -0.9 2.3 1
v -1 2.3 0.9
v -0.9 2.3 0.9
v -1 2.3 0.8
v -0.9 2.3 0.8
v -0.8 2.3 0.8
v -0.9 2.3 0.7
v -0.8 2.3 0.7
v -1 2.4 1.2
v -0.9 2.4 1.2
v -1 2.4 1.1
v -0.9 2.4 1.1
v -1 2.4 0.8
v -0.9 2.4 0.8
v -1 2.4 0.7
v -0.9 2.4 0.7
v -1 2.5 1.2
v -0.9 2.5 1.2
v -1 2.5 1.1
v -0.9 2.5 1.1
v -1 2.5 0.8
v -0.9 2.5 0.8
v -1 2.5 0.7
v -0.9 2.5 0.7
v -0.9 2.6 1.2
v -0.8 2.6 1.2
v -1 2.6 1.1
v -0.9 2.6 1.1
v -0.8 2.6 1.1
v -1 2.6 1
v -0.9 2.6 1
v -1 2.6 0.9
v -0.9 2.6 0.9
v -1 2.6 0.8
v -0.9 2.6 0.8
v -0.8 2.6 0.8
v -0.9 2.6 0.7
v -0.8 2.6 0.7
v -0.9 2.7 1.1
v -0.8 2.7 1.1
v -1 2.7 1
v -0.9 2.7 1
v -1 2.7 0.9
v -0.9 2.7 0.9
v -0.9 2.7 0.8
v -0.8 2.7 0.8

# faces
f 4/2/1 2/2/1 1/2/1
f 5/2/1 2/2/1 4/2/1
f 8/2/1 4/2/1 3/2/1
f 8/2/1 6/2/1 5/2/1
f 8/2/1 5/2/1 4/2/1
f 9/2/1 6/2/1 8/2/1
f 11/2/1 8/2/1 7/2/1
f 11/2/1 10/2/1 9/2/1
f 11/2/1 9/2/1 8/2/1
f 12/2/1 10/2/1 11/2/1
f 13/2/1 10/2/1 12/2/1
f 14/2/1 10/2/1 13/2/1
f 15/2/1 13/2/1 12/2/1
f 16/2/1 13/2/1 15/2/1
f 17/2/1 13/2/1 16/2/1
f 18/2/1 13/2/1 17/2/1
f 19/2/1 17/2/1 16/2/1
f 20/2/1 17/2/1 19/2/1
f 26/2/1 22/2/1 21/2/1
f 27/2/1 22/2/1 26/2/1
f 28/2/1 24/2/1 23/2/1
f 29/2/1 24/2/1 28/2/1
f 31/2/1 26/2/1 25/2/1
f 32/2/1 26/2/1 31/2/1
f 33/1/1 30/1/1 29/1/1
f 34/1/1 30/1/1 33/1/1
f 39/2/1 36/2/1 35/2/1
f 40/2/1 36/2/1 39/2/1
f 43/1/1 38/1/1 37/1/1
f 44/1/1 38/1/1 43/1/1
f 45/2/1 41/2/1 40/2/1
f 46/2/1 41/2/1 45/2/1
f 47/2/1 43/2/1 42/2/1
f 48/2/1 43/2/1 47/2/1
f 49/2/2 50/2/2 52/2/2
f 52/2/2 50/2/2 53/2/2
f 51/2/2 52/2/2 55/2/2
f 53/1/2 54/1/2 55/1/2
f 52/2/2 53/2/2 55/2/2
f 55/1/2 54/1/2 56/1/2
f 51/2/2 55/2/2 57/2/2
f 55/2/2 56/2/2 57/2/2
f 57/2/2 56/2/2 58/2/2
f 51/2/2 57/2/2 59/2/2
f 59/2/2 57/2/2 60/2/2
f 57/1/2 58/1/2 61/1/2
f 60/2/2 57/2/2 61/2/2
f 61/1/2 58/1/2 62/1/2
f 60/2/2 61/2/2 63/2/2
f 63/2/2 61/2/2 64/2/2
f 68/2/3 66/2/3 65/2/3
f 69/2/3 66/2/3 68/2/3
f 71/2/3 68/2/3 67/2/3
f 71/2/3 70/2/3 69/2/3
f 71/2/3 69/2/3 68/2/3
f 72/2/3 70/2/3 71/2/3
f 78/2/3 74/2/3 73/2/3
f 79/2/3 74/2/3 78/2/3
f 80/2/3 76/2/3 75/2/3
f 81/2/3 76/2/3 80/2/3
f 83/2/3 78/2/3 77/2/3
f 84/2/3 78/2/3 83/2/3
f 85/2/3 82/2/3 81/2/3
f 86/2/3 82/2/3 85/2/3
f 91/2/3 88/2/3 87/2/3
f 92/2/3 88/2/3 91/2/3
f 93/2/3 90/2/3 89/2/3
f 94/2/3 90/2/3 93/2/3
f 95/2/4 96/2/4 99/2/4
f 99/2/4 96/2/4 100/2/4
f 97/2/4 98/2/4 101/2/4
f 101/2/4 98/2/4 102/2/4
f 103/2/4 104/2/4 108/2/4
f 108/2/4 104/2/4 109/2/4
f 105/2/4 106/2/4 110/2/4
f 110/2/4 106/2/4 111/2/4
f 107/2/4 108/2/4 113/2/4
f 113/2/4 108/2/4 114/2/4
f 111/2/4 112/2/4 115/2/4
f 115/2/4 112/2/4 116/2/4
f 117/2/4 118/2/4 120/2/4
f 120/2/4 118/2/4 121/2/4
f 119/1/4 120/1/4 123/1/4
f 120/2/4 121/2/4 124/2/4
f 123/1/4 120/1/4 124/1/4
f 121/1/4 122/1/4 125/1/4
f 124/2/4 121/2/4 125/2/4
f 125/1/4 122/1/4 126/1/4
f 130/2/5 128/2/5 127/2/5
f 131/2/5 130/2/5 129/2/5
f 132/2/5 128/2/5 130/2/5
f 132/2/5 130/2/5 131/2/5
f 133/2/5 128/2/5 132/2/5
f 134/2/5 128/2/5 133/2/5
f 138/2/5 136/2/5 135/2/5
f 139/2/5 136/2/5 138/2/5
f 140/2/5 138/2/5 137/2/5
f 141/2/5 138/2/5 140/2/5
f 144/2/5 143/2/5 142/2/5
f 145/2/5 143/2/5 144/2/5
f 147/1/5 146/1/5 145/1/5
f 148/1/5 146/1/5 147/1/5
f 151/2/5 150/2/5 149/2/5
f 152/2/5 150/2/5 151/2/5
f 155/2/5 154/2/5 153/2/5
f 156/2/5 154/2/5 155/2/5
f 157/2/6 158/2/6 159/2/6
f 159/2/6 158/2/6 160/2/6
f 161/2/6 162/2/6 163/2/6
f 163/2/6 162/2/6 164/2/6
f 165/2/6 166/2/6 168/2/6
f 168/2/6 166/2/6 169/2/6
f 167/2/6 168/2/6 170/2/6
f 170/2/6 168/2/6 171/2/6
f 172/2/6 173/2/6 174/2/6
f 174/2/6 173/2/6 175/2/6
f 175/1/6 176/1/6 177/1/6
f 177/1/6 176/1/6 178/1/6
f 179/2/6 180/2/6 182/2/6
f 181/2/6 182/2/6 183/2/6
f 182/2/6 180/2/6 184/2/6
f 183/2/6 182/2/6 184/2/6
f 184/2/6 180/2/6 185/2/6
f 185/2/6 180/2/6 186/2/6
