# MagicaVoxel @ Ephtracy

# group
o 

# material
mtllib window.mtl
usemtl palette

# normals
vn -1 0 0
vn 1 0 0
vn 0 0 1
vn 0 0 -1
vn 0 -1 0
vn 0 1 0

# texcoords
vt 0.150391 0.5
vt 0.306641 0.5
vt 0.365234 0.5
vt 0.373047 0.5
vt 0.498047 0.5
vt 0.607422 0.5
vt 0.970703 0.5

# verts
v -2 0 2.5
v -2 0 -2.5
v -2 0.1 2.5
v -2 0.1 2.3
v -2 0.1 -2.3
v -2 0.1 -2.5
v -2 0.2 2.3
v -2 0.2 -2.3
v -1.9 0.1 2.5
v -1.9 0.1 2.3
v -1.9 0.1 -2.3
v -1.9 0.1 -2.5
v -1.9 0.2 2.5
v -1.9 0.2 2.4
v -1.9 0.2 2.3
v -1.9 0.2 -2.3
v -1.9 0.2 -2.4
v -1.9 0.2 -2.5
v -1.9 0.3 2.4
v -1.9 0.3 -2.4
v -1.8 0.2 2.5
v -1.8 0.2 2.4
v -1.8 0.2 -2.4
v -1.8 0.2 -2.5
v -1.8 0.3 2.4
v -1.8 0.3 -2.4
v -1.8 0.7 2.5
v -1.8 0.7 2.4
v -1.8 0.7 -2.4
v -1.8 0.7 -2.5
v -1.8 0.8 2.4
v -1.8 0.8 -2.4
v -1.7 0.7 2.5
v -1.7 0.7 2.4
v -1.7 0.7 -2.4
v -1.7 0.7 -2.5
v -1.7 0.8 2.5
v -1.7 0.8 2.4
v -1.7 0.8 -2.4
v -1.7 0.8 -2.5
v -1.5 0.2 2.2
v -1.5 0.2 2.1
v -1.5 0.2 2
v -1.5 0.2 1.9
v -1.5 0.3 2.3
v -1.5 0.3 2.2
v -1.5 0.3 2.1
v -1.5 0.3 2
v -1.5 0.3 1.9
v -1.5 0.3 1.8
v -1.5 0.4 2.3
v -1.5 0.4 2.2
v -1.5 0.4 1.9
v -1.5 0.4 1.8
v -1.5 0.5 2.3
v -1.5 0.5 2.2
v -1.5 0.5 1.9
v -1.5 0.5 1.8
v -1.5 0.6 2.3
v -1.5 0.6 2.2
v -1.5 0.6 2.1
v -1.5 0.6 2
v -1.5 0.6 1.9
v -1.5 0.6 1.8
v -1.5 0.7 2.2
v -1.5 0.7 2.1
v -1.5 0.7 2
v -1.5 0.7 1.9
v -1.1 0.4 2
v -1.1 0.4 1.9
v -1.1 0.5 2
v -1.1 0.5 1.9
v -0.9 0.3 2.1
v -0.9 0.3 2
v -0.9 0.4 2.2
v -0.9 0.4 2.1
v -0.9 0.4 2
v -0.9 0.4 1.9
v -0.9 0.5 2.2
v -0.9 0.5 2.1
v -0.9 0.5 2
v -0.9 0.5 1.9
v -0.9 0.6 2.1
v -0.9 0.6 2
v -0.8 0.3 2.2
v -0.8 0.3 2.1
v -0.8 0.3 2
v -0.8 0.3 1.9
v -0.8 0.4 2.2
v -0.8 0.4 2.1
v -0.8 0.4 2
v -0.8 0.4 1.9
v -0.8 0.5 2.2
v -0.8 0.5 2.1
v -0.8 0.5 2
v -0.8 0.5 1.9
v -0.8 0.6 2.2
v -0.8 0.6 2.1
v -0.8 0.6 2
v -0.8 0.6 1.9
v 1.4 0 2.3
v 1.4 0 -2.3
v 1.4 0.2 2.3
v 1.4 0.2 -2.3
v -1.6 0 2.3
v -1.6 0 -2.3
v -1.6 0.2 2.5
v -1.6 0.2 2.3
v -1.6 0.2 2.1
v -1.6 0.2 2
v -1.6 0.2 -2.3
v -1.6 0.2 -2.5
v -1.6 0.3 2.2
v -1.6 0.3 2.1
v -1.6 0.3 2
v -1.6 0.3 1.9
v -1.6 0.4 2.3
v -1.6 0.4 2.2
v -1.6 0.4 1.9
v -1.6 0.4 1.8
v -1.6 0.5 2.3
v -1.6 0.5 2.2
v -1.6 0.5 1.9
v -1.6 0.5 1.8
v -1.6 0.6 2.2
v -1.6 0.6 2.1
v -1.6 0.6 2
v -1.6 0.6 1.9
v -1.6 0.7 2.1
v -1.6 0.7 2
v -1.6 0.8 2.5
v -1.6 0.8 -2.5
v -1.3 0.3 2.2
v -1.3 0.3 1.9
v -1.3 0.4 2.1
v -1.3 0.4 2
v -1.3 0.5 2.1
v -1.3 0.5 2
v -1.3 0.6 2.2
v -1.3 0.6 1.9
v -1.2 0.2 2.2
v -1.2 0.2 1.9
v -1.2 0.3 2.3
v -1.2 0.3 2.2
v -1.2 0.3 1.9
v -1.2 0.3 1.8
v -1.2 0.6 2.3
v -1.2 0.6 2.2
v -1.2 0.6 1.9
v -1.2 0.6 1.8
v -1.2 0.7 2.2
v -1.2 0.7 1.9
v -1 0.4 2
v -1 0.4 1.9
v -1 0.5 2
v -1 0.5 1.9
v -0.7 0.3 2.1
v -0.7 0.3 2
v -0.7 0.4 2.2
v -0.7 0.4 2.1
v -0.7 0.4 2
v -0.7 0.4 1.9
v -0.7 0.5 2.2
v -0.7 0.5 2.1
v -0.7 0.5 2
v -0.7 0.5 1.9
v -0.7 0.6 2.1
v -0.7 0.6 2
v -0.6 0.3 2.2
v -0.6 0.3 2.1
v -0.6 0.3 2
v -0.6 0.3 1.9
v -0.6 0.4 2.2
v -0.6 0.4 2.1
v -0.6 0.4 2
v -0.6 0.4 1.9
v -0.6 0.5 2.2
v -0.6 0.5 2.1
v -0.6 0.5 2
v -0.6 0.5 1.9
v -0.6 0.6 2.2
v -0.6 0.6 2.1
v -0.6 0.6 2
v -0.6 0.6 1.9
v 1.5 0.1 2.5
v 1.5 0.1 2.4
v 1.5 0.1 -2.4
v 1.5 0.1 -2.5
v 1.5 0.2 2.5
v 1.5 0.2 2.4
v 1.5 0.2 -2.4
v 1.5 0.2 -2.5
v 1.6 0 2.5
v 1.6 0 -2.5
v 1.6 0.1 2.5
v 1.6 0.1 2.4
v 1.6 0.1 -2.4
v 1.6 0.1 -2.5
v 1.6 0.2 2.4
v 1.6 0.2 -2.4
v -2 0 2.5
v -2 0.1 2.5
v -1.9 0.1 2.5
v -1.9 0.2 2.5
v -1.8 0.2 2.5
v -1.8 0.7 2.5
v -1.7 0.7 2.5
v -1.7 0.8 2.5
v -1.6 0.2 2.5
v -1.6 0.8 2.5
v 1.5 0.1 2.5
v 1.5 0.2 2.5
v 1.6 0 2.5
v 1.6 0.1 2.5
v -1.9 0.2 2.4
v -1.9 0.3 2.4
v -1.8 0.2 2.4
v -1.8 0.3 2.4
v -1.8 0.7 2.4
v -1.8 0.8 2.4
v -1.7 0.7 2.4
v -1.7 0.8 2.4
v 1.5 0.1 2.4
v 1.5 0.2 2.4
v 1.6 0.1 2.4
v 1.6 0.2 2.4
v -2 0.1 2.3
v -2 0.2 2.3
v -1.9 0.1 2.3
v -1.9 0.2 2.3
v -1.6 0.4 2.3
v -1.6 0.5 2.3
v -1.5 0.3 2.3
v -1.5 0.4 2.3
v -1.5 0.5 2.3
v -1.5 0.6 2.3
v -1.2 0.3 2.3
v -1.2 0.6 2.3
v -1.6 0.3 2.2
v -1.6 0.4 2.2
v -1.6 0.5 2.2
v -1.6 0.6 2.2
v -1.5 0.2 2.2
v -1.5 0.3 2.2
v -1.5 0.4 2.2
v -1.5 0.5 2.2
v -1.5 0.6 2.2
v -1.5 0.7 2.2
v -1.2 0.2 2.2
v -1.2 0.3 2.2
v -1.2 0.6 2.2
v -1.2 0.7 2.2
v -0.9 0.4 2.2
v -0.9 0.5 2.2
v -0.8 0.3 2.2
v -0.8 0.4 2.2
v -0.8 0.5 2.2
v -0.8 0.6 2.2
v -0.7 0.4 2.2
v -0.7 0.5 2.2
v -0.6 0.3 2.2
v -0.6 0.4 2.2
v -0.6 0.5 2.2
v -0.6 0.6 2.2
v -1.6 0.2 2.1
v -1.6 0.3 2.1
v -1.6 0.6 2.1
v -1.6 0.7 2.1
v -1.5 0.2 2.1
v -1.5 0.3 2.1
v -1.5 0.6 2.1
v -1.5 0.7 2.1
v -1.3 0.4 2.1
v -1.3 0.5 2.1
v -0.9 0.3 2.1
v -0.9 0.4 2.1
v -0.9 0.5 2.1
v -0.9 0.6 2.1
v -0.8 0.3 2.1
v -0.8 0.4 2.1
v -0.8 0.5 2.1
v -0.8 0.6 2.1
v -0.7 0.4 2.1
v -0.7 0.5 2.1
v -0.6 0.4 2.1
v -0.6 0.5 2.1
v -0.7 0.3 2
v -0.7 0.4 2
v -0.7 0.5 2
v -0.7 0.6 2
v -0.6 0.3 2
v -0.6 0.4 2
v -0.6 0.5 2
v -0.6 0.6 2
v -1.3 0.3 1.9
v -1.3 0.6 1.9
v -1.2 0.3 1.9
v -1.2 0.6 1.9
v -1.6 0 -2.3
v -1.6 0.2 -2.3
v 1.4 0 -2.3
v 1.4 0.2 -2.3
v -1.6 0 2.3
v -1.6 0.2 2.3
v 1.4 0 2.3
v 1.4 0.2 2.3
v -1.3 0.3 2.2
v -1.3 0.6 2.2
v -1.2 0.3 2.2
v -1.2 0.6 2.2
v -0.7 0.3 2.1
v -0.7 0.4 2.1
v -0.7 0.5 2.1
v -0.7 0.6 2.1
v -0.6 0.3 2.1
v -0.6 0.4 2.1
v -0.6 0.5 2.1
v -0.6 0.6 2.1
v -1.6 0.2 2
v -1.6 0.3 2
v -1.6 0.6 2
v -1.6 0.7 2
v -1.5 0.2 2
v -1.5 0.3 2
v -1.5 0.6 2
v -1.5 0.7 2
v -1.3 0.4 2
v -1.3 0.5 2
v -1.1 0.4 2
v -1.1 0.5 2
v -1 0.4 2
v -1 0.5 2
v -0.9 0.3 2
v -0.9 0.4 2
v -0.9 0.5 2
v -0.9 0.6 2
v -0.8 0.3 2
v -0.8 0.4 2
v -0.8 0.5 2
v -0.8 0.6 2
v -0.7 0.4 2
v -0.7 0.5 2
v -0.6 0.4 2
v -0.6 0.5 2
v -1.6 0.3 1.9
v -1.6 0.4 1.9
v -1.6 0.5 1.9
v -1.6 0.6 1.9
v -1.5 0.2 1.9
v -1.5 0.3 1.9
v -1.5 0.4 1.9
v -1.5 0.5 1.9
v -1.5 0.6 1.9
v -1.5 0.7 1.9
v -1.2 0.2 1.9
v -1.2 0.3 1.9
v -1.2 0.6 1.9
v -1.2 0.7 1.9
v -1.1 0.4 1.9
v -1.1 0.5 1.9
v -1 0.4 1.9
v -1 0.5 1.9
v -0.9 0.4 1.9
v -0.9 0.5 1.9
v -0.8 0.3 1.9
v -0.8 0.4 1.9
v -0.8 0.5 1.9
v -0.8 0.6 1.9
v -0.7 0.4 1.9
v -0.7 0.5 1.9
v -0.6 0.3 1.9
v -0.6 0.4 1.9
v -0.6 0.5 1.9
v -0.6 0.6 1.9
v -1.6 0.4 1.8
v -1.6 0.5 1.8
v -1.5 0.3 1.8
v -1.5 0.4 1.8
v -1.5 0.5 1.8
v -1.5 0.6 1.8
v -1.2 0.3 1.8
v -1.2 0.6 1.8
v -2 0.1 -2.3
v -2 0.2 -2.3
v -1.9 0.1 -2.3
v -1.9 0.2 -2.3
v -1.9 0.2 -2.4
v -1.9 0.3 -2.4
v -1.8 0.2 -2.4
v -1.8 0.3 -2.4
v -1.8 0.7 -2.4
v -1.8 0.8 -2.4
v -1.7 0.7 -2.4
v -1.7 0.8 -2.4
v 1.5 0.1 -2.4
v 1.5 0.2 -2.4
v 1.6 0.1 -2.4
v 1.6 0.2 -2.4
v -2 0 -2.5
v -2 0.1 -2.5
v -1.9 0.1 -2.5
v -1.9 0.2 -2.5
v -1.8 0.2 -2.5
v -1.8 0.7 -2.5
v -1.7 0.7 -2.5
v -1.7 0.8 -2.5
v -1.6 0.2 -2.5
v -1.6 0.8 -2.5
v 1.5 0.1 -2.5
v 1.5 0.2 -2.5
v 1.6 0 -2.5
v 1.6 0.1 -2.5
v -2 0 2.5
v 1.6 0 2.5
v -1.6 0 2.3
v 1.4 0 2.3
v -1.6 0 -2.3
v 1.4 0 -2.3
v -2 0 -2.5
v 1.6 0 -2.5
v -1.5 0.2 2.2
v -1.2 0.2 2.2
v -1.6 0.2 2.1
v -1.5 0.2 2.1
v -1.6 0.2 2
v -1.5 0.2 2
v -1.5 0.2 1.9
v -1.2 0.2 1.9
v -1.5 0.3 2.3
v -1.2 0.3 2.3
v -1.6 0.3 2.2
v -1.5 0.3 2.2
v -1.2 0.3 2.2
v -0.8 0.3 2.2
v -0.6 0.3 2.2
v -1.6 0.3 2.1
v -1.5 0.3 2.1
v -0.9 0.3 2.1
v -0.8 0.3 2.1
v -0.7 0.3 2.1
v -0.6 0.3 2.1
v -1.6 0.3 2
v -1.5 0.3 2
v -0.9 0.3 2
v -0.8 0.3 2
v -0.7 0.3 2
v -0.6 0.3 2
v -1.6 0.3 1.9
v -1.5 0.3 1.9
v -1.2 0.3 1.9
v -0.8 0.3 1.9
v -0.6 0.3 1.9
v -1.5 0.3 1.8
v -1.2 0.3 1.8
v -1.6 0.4 2.3
v -1.5 0.4 2.3
v -1.6 0.4 2.2
v -1.5 0.4 2.2
v -0.9 0.4 2.2
v -0.8 0.4 2.2
v -1.3 0.4 2.1
v -0.9 0.4 2.1
v -0.8 0.4 2.1
v -0.7 0.4 2.1
v -0.6 0.4 2.1
v -1.3 0.4 2
v -1.1 0.4 2
v -1 0.4 2
v -0.9 0.4 2
v -0.8 0.4 2
v -0.7 0.4 2
v -0.6 0.4 2
v -1.6 0.4 1.9
v -1.5 0.4 1.9
v -1.1 0.4 1.9
v -1 0.4 1.9
v -0.9 0.4 1.9
v -0.8 0.4 1.9
v -1.6 0.4 1.8
v -1.5 0.4 1.8
v -0.7 0.5 2.2
v -0.6 0.5 2.2
v -0.7 0.5 2.1
v -0.6 0.5 2.1
v -0.7 0.5 2
v -0.6 0.5 2
v -0.7 0.5 1.9
v -0.6 0.5 1.9
v -1.3 0.6 2.2
v -1.2 0.6 2.2
v -1.3 0.6 1.9
v -1.2 0.6 1.9
v -2 0.1 2.5
v -1.9 0.1 2.5
v 1.5 0.1 2.5
v 1.6 0.1 2.5
v 1.5 0.1 2.4
v 1.6 0.1 2.4
v -2 0.1 2.3
v -1.9 0.1 2.3
v -2 0.1 -2.3
v -1.9 0.1 -2.3
v 1.5 0.1 -2.4
v 1.6 0.1 -2.4
v -2 0.1 -2.5
v -1.9 0.1 -2.5
v 1.5 0.1 -2.5
v 1.6 0.1 -2.5
v -1.9 0.2 2.5
v -1.8 0.2 2.5
v -1.6 0.2 2.5
v 1.5 0.2 2.5
v -1.9 0.2 2.4
v -1.8 0.2 2.4
v 1.5 0.2 2.4
v 1.6 0.2 2.4
v -2 0.2 2.3
v -1.9 0.2 2.3
v -1.6 0.2 2.3
v 1.4 0.2 2.3
v -2 0.2 -2.3
v -1.9 0.2 -2.3
v -1.6 0.2 -2.3
v 1.4 0.2 -2.3
v -1.9 0.2 -2.4
v -1.8 0.2 -2.4
v 1.5 0.2 -2.4
v 1.6 0.2 -2.4
v -1.9 0.2 -2.5
v -1.8 0.2 -2.5
v -1.6 0.2 -2.5
v 1.5 0.2 -2.5
v -1.9 0.3 2.4
v -1.8 0.3 2.4
v -1.3 0.3 2.2
v -1.2 0.3 2.2
v -1.3 0.3 1.9
v -1.2 0.3 1.9
v -1.9 0.3 -2.4
v -1.8 0.3 -2.4
v -0.7 0.4 2.2
v -0.6 0.4 2.2
v -0.7 0.4 2.1
v -0.6 0.4 2.1
v -0.7 0.4 2
v -0.6 0.4 2
v -0.7 0.4 1.9
v -0.6 0.4 1.9
v -1.6 0.5 2.3
v -1.5 0.5 2.3
v -1.6 0.5 2.2
v -1.5 0.5 2.2
v -0.9 0.5 2.2
v -0.8 0.5 2.2
v -1.3 0.5 2.1
v -0.9 0.5 2.1
v -0.8 0.5 2.1
v -0.7 0.5 2.1
v -0.6 0.5 2.1
v -1.3 0.5 2
v -1.1 0.5 2
v -1 0.5 2
v -0.9 0.5 2
v -0.8 0.5 2
v -0.7 0.5 2
v -0.6 0.5 2
v -1.6 0.5 1.9
v -1.5 0.5 1.9
v -1.1 0.5 1.9
v -1 0.5 1.9
v -0.9 0.5 1.9
v -0.8 0.5 1.9
v -1.6 0.5 1.8
v -1.5 0.5 1.8
v -1.5 0.6 2.3
v -1.2 0.6 2.3
v -1.6 0.6 2.2
v -1.5 0.6 2.2
v -1.2 0.6 2.2
v -0.8 0.6 2.2
v -0.6 0.6 2.2
v -1.6 0.6 2.1
v -1.5 0.6 2.1
v -0.9 0.6 2.1
v -0.8 0.6 2.1
v -0.7 0.6 2.1
v -0.6 0.6 2.1
v -1.6 0.6 2
v -1.5 0.6 2
v -0.9 0.6 2
v -0.8 0.6 2
v -0.7 0.6 2
v -0.6 0.6 2
v -1.6 0.6 1.9
v -1.5 0.6 1.9
v -1.2 0.6 1.9
v -0.8 0.6 1.9
v -0.6 0.6 1.9
v -1.5 0.6 1.8
v -1.2 0.6 1.8
v -1.8 0.7 2.5
v -1.7 0.7 2.5
v -1.8 0.7 2.4
v -1.7 0.7 2.4
v -1.5 0.7 2.2
v -1.2 0.7 2.2
v -1.6 0.7 2.1
v -1.5 0.7 2.1
v -1.6 0.7 2
v -1.5 0.7 2
v -1.5 0.7 1.9
v -1.2 0.7 1.9
v -1.8 0.7 -2.4
v -1.7 0.7 -2.4
v -1.8 0.7 -2.5
v -1.7 0.7 -2.5
v -1.7 0.8 2.5
v -1.6 0.8 2.5
v -1.8 0.8 2.4
v -1.7 0.8 2.4
v -1.8 0.8 -2.4
v -1.7 0.8 -2.4
v -1.7 0.8 -2.5
v -1.6 0.8 -2.5

# faces
f 3/7/1 2/7/1 1/7/1
f 4/7/1 2/7/1 3/7/1
f 5/7/1 2/7/1 4/7/1
f 6/7/1 2/7/1 5/7/1
f 7/7/1 5/7/1 4/7/1
f 8/7/1 5/7/1 7/7/1
f 13/7/1 10/7/1 9/7/1
f 14/7/1 10/7/1 13/7/1
f 15/7/1 10/7/1 14/7/1
f 16/7/1 12/7/1 11/7/1
f 17/7/1 12/7/1 16/7/1
f 18/7/1 12/7/1 17/7/1
f 19/7/1 15/7/1 14/7/1
f 19/7/1 17/7/1 16/7/1
f 19/7/1 16/7/1 15/7/1
f 20/7/1 17/7/1 19/7/1
f 25/7/1 22/7/1 21/7/1
f 26/7/1 24/7/1 23/7/1
f 27/7/1 25/7/1 21/7/1
f 27/7/1 26/7/1 25/7/1
f 28/7/1 26/7/1 27/7/1
f 29/7/1 24/7/1 26/7/1
f 29/7/1 26/7/1 28/7/1
f 30/7/1 24/7/1 29/7/1
f 31/7/1 29/7/1 28/7/1
f 32/7/1 29/7/1 31/7/1
f 37/7/1 34/7/1 33/7/1
f 38/7/1 34/7/1 37/7/1
f 39/7/1 36/7/1 35/7/1
f 40/7/1 36/7/1 39/7/1
f 46/3/1 42/3/1 41/3/1
f 47/3/1 42/3/1 46/3/1
f 48/3/1 44/3/1 43/3/1
f 49/3/1 44/3/1 48/3/1
f 51/3/1 46/3/1 45/3/1
f 52/3/1 46/3/1 51/3/1
f 53/3/1 50/3/1 49/3/1
f 54/3/1 50/3/1 53/3/1
f 59/3/1 56/3/1 55/3/1
f 60/3/1 56/3/1 59/3/1
f 63/3/1 58/3/1 57/3/1
f 64/3/1 58/3/1 63/3/1
f 65/3/1 61/3/1 60/3/1
f 66/3/1 61/3/1 65/3/1
f 67/3/1 63/3/1 62/3/1
f 68/3/1 63/3/1 67/3/1
f 71/6/1 70/6/1 69/6/1
f 72/6/1 70/6/1 71/6/1
f 76/5/1 74/5/1 73/5/1
f 77/5/1 74/5/1 76/5/1
f 79/5/1 76/5/1 75/5/1
f 80/5/1 76/5/1 79/5/1
f 81/5/1 78/5/1 77/5/1
f 82/5/1 78/5/1 81/5/1
f 83/5/1 81/5/1 80/5/1
f 84/5/1 81/5/1 83/5/1
f 89/5/1 86/5/1 85/5/1
f 90/5/1 86/5/1 89/5/1
f 91/5/1 88/5/1 87/5/1
f 92/5/1 88/5/1 91/5/1
f 97/5/1 94/5/1 93/5/1
f 98/5/1 94/5/1 97/5/1
f 99/5/1 96/5/1 95/5/1
f 100/5/1 96/5/1 99/5/1
f 103/7/1 102/7/1 101/7/1
f 104/7/1 102/7/1 103/7/1
f 105/7/2 106/7/2 108/7/2
f 108/7/2 106/7/2 109/7/2
f 109/7/2 106/7/2 110/7/2
f 110/7/2 106/7/2 111/7/2
f 107/7/2 108/7/2 113/7/2
f 108/7/2 109/7/2 113/7/2
f 113/7/2 109/7/2 114/7/2
f 111/7/2 112/7/2 115/7/2
f 110/7/2 111/7/2 115/7/2
f 115/7/2 112/7/2 116/7/2
f 107/7/2 113/7/2 117/7/2
f 117/7/2 113/7/2 118/7/2
f 116/7/2 112/7/2 119/7/2
f 119/7/2 112/7/2 120/7/2
f 107/7/2 117/7/2 121/7/2
f 120/7/2 112/7/2 124/7/2
f 121/7/2 122/7/2 125/7/2
f 123/7/2 124/7/2 128/7/2
f 125/7/2 126/7/2 129/7/2
f 127/7/2 128/7/2 130/7/2
f 125/7/2 129/7/2 131/7/2
f 129/7/2 130/7/2 131/7/2
f 107/7/2 121/7/2 131/7/2
f 121/7/2 125/7/2 131/7/2
f 130/7/2 128/7/2 132/7/2
f 131/7/2 130/7/2 132/7/2
f 124/7/2 112/7/2 132/7/2
f 128/7/2 124/7/2 132/7/2
f 133/4/2 134/4/2 135/4/2
f 135/4/2 134/4/2 136/4/2
f 133/4/2 135/4/2 137/4/2
f 136/4/2 134/4/2 138/4/2
f 133/4/2 137/4/2 139/4/2
f 137/4/2 138/4/2 139/4/2
f 138/4/2 134/4/2 140/4/2
f 139/4/2 138/4/2 140/4/2
f 141/3/2 142/3/2 144/3/2
f 144/3/2 142/3/2 145/3/2
f 143/3/2 144/3/2 147/3/2
f 147/3/2 144/3/2 148/3/2
f 145/3/2 146/3/2 149/3/2
f 149/3/2 146/3/2 150/3/2
f 148/3/2 149/3/2 151/3/2
f 151/3/2 149/3/2 152/3/2
f 153/6/2 154/6/2 155/6/2
f 155/6/2 154/6/2 156/6/2
f 157/5/2 158/5/2 160/5/2
f 160/5/2 158/5/2 161/5/2
f 159/5/2 160/5/2 163/5/2
f 163/5/2 160/5/2 164/5/2
f 161/5/2 162/5/2 165/5/2
f 165/5/2 162/5/2 166/5/2
f 164/5/2 165/5/2 167/5/2
f 167/5/2 165/5/2 168/5/2
f 169/5/2 170/5/2 173/5/2
f 173/5/2 170/5/2 174/5/2
f 171/5/2 172/5/2 175/5/2
f 175/5/2 172/5/2 176/5/2
f 174/1/2 175/1/2 178/1/2
f 178/1/2 175/1/2 179/1/2
f 177/5/2 178/5/2 181/5/2
f 181/5/2 178/5/2 182/5/2
f 179/5/2 180/5/2 183/5/2
f 183/5/2 180/5/2 184/5/2
f 185/7/2 186/7/2 189/7/2
f 189/7/2 186/7/2 190/7/2
f 187/7/2 188/7/2 191/7/2
f 191/7/2 188/7/2 192/7/2
f 193/7/2 194/7/2 195/7/2
f 195/7/2 194/7/2 196/7/2
f 196/7/2 194/7/2 197/7/2
f 197/7/2 194/7/2 198/7/2
f 196/7/2 197/7/2 199/7/2
f 199/7/2 197/7/2 200/7/2
f 203/7/3 202/7/3 201/7/3
f 205/7/3 204/7/3 203/7/3
f 207/7/3 206/7/3 205/7/3
f 209/7/3 205/7/3 203/7/3
f 209/7/3 208/7/3 207/7/3
f 209/7/3 207/7/3 205/7/3
f 210/7/3 208/7/3 209/7/3
f 211/7/3 203/7/3 201/7/3
f 211/7/3 209/7/3 203/7/3
f 212/7/3 209/7/3 211/7/3
f 213/7/3 211/7/3 201/7/3
f 214/7/3 211/7/3 213/7/3
f 217/7/3 216/7/3 215/7/3
f 218/7/3 216/7/3 217/7/3
f 221/7/3 220/7/3 219/7/3
f 222/7/3 220/7/3 221/7/3
f 225/7/3 224/7/3 223/7/3
f 226/7/3 224/7/3 225/7/3
f 229/7/3 228/7/3 227/7/3
f 230/7/3 228/7/3 229/7/3
f 234/3/3 232/3/3 231/3/3
f 235/3/3 232/3/3 234/3/3
f 237/3/3 234/3/3 233/3/3
f 237/3/3 236/3/3 235/3/3
f 237/3/3 235/3/3 234/3/3
f 238/3/3 236/3/3 237/3/3
f 244/3/3 240/3/3 239/3/3
f 245/3/3 240/3/3 244/3/3
f 246/3/3 242/3/3 241/3/3
f 247/3/3 242/3/3 246/3/3
f 249/3/3 244/3/3 243/3/3
f 250/3/3 244/3/3 249/3/3
f 251/3/3 248/3/3 247/3/3
f 252/3/3 248/3/3 251/3/3
f 256/5/3 254/5/3 253/5/3
f 257/5/3 254/5/3 256/5/3
f 259/5/3 256/5/3 255/5/3
f 259/5/3 258/5/3 257/5/3
f 259/5/3 257/5/3 256/5/3
f 260/5/3 258/5/3 259/5/3
f 261/5/3 259/5/3 255/5/3
f 262/5/3 259/5/3 261/5/3
f 263/5/3 258/5/3 260/5/3
f 264/5/3 258/5/3 263/5/3
f 269/3/3 266/3/3 265/3/3
f 270/3/3 266/3/3 269/3/3
f 271/3/3 268/3/3 267/3/3
f 272/3/3 268/3/3 271/3/3
f 276/6/3 274/6/3 273/6/3
f 277/6/3 274/6/3 276/6/3
f 279/5/3 276/5/3 275/5/3
f 280/5/3 276/5/3 279/5/3
f 281/5/3 278/5/3 277/5/3
f 282/5/3 278/5/3 281/5/3
f 285/1/3 284/1/3 283/1/3
f 286/1/3 284/1/3 285/1/3
f 291/5/3 288/5/3 287/5/3
f 292/5/3 288/5/3 291/5/3
f 293/5/3 290/5/3 289/5/3
f 294/5/3 290/5/3 293/5/3
f 297/3/3 296/3/3 295/3/3
f 298/3/3 296/3/3 297/3/3
f 301/7/3 300/7/3 299/7/3
f 302/7/3 300/7/3 301/7/3
f 303/7/4 304/7/4 305/7/4
f 305/7/4 304/7/4 306/7/4
f 307/3/4 308/3/4 309/3/4
f 309/3/4 308/3/4 310/3/4
f 311/5/4 312/5/4 315/5/4
f 315/5/4 312/5/4 316/5/4
f 313/5/4 314/5/4 317/5/4
f 317/5/4 314/5/4 318/5/4
f 319/3/4 320/3/4 323/3/4
f 323/3/4 320/3/4 324/3/4
f 321/3/4 322/3/4 325/3/4
f 325/3/4 322/3/4 326/3/4
f 327/6/4 328/6/4 329/6/4
f 329/6/4 328/6/4 330/6/4
f 331/6/4 332/6/4 334/6/4
f 334/6/4 332/6/4 335/6/4
f 333/5/4 334/5/4 337/5/4
f 337/5/4 334/5/4 338/5/4
f 335/5/4 336/5/4 339/5/4
f 339/5/4 336/5/4 340/5/4
f 341/1/4 342/1/4 343/1/4
f 343/1/4 342/1/4 344/1/4
f 345/3/4 346/3/4 350/3/4
f 350/3/4 346/3/4 351/3/4
f 347/3/4 348/3/4 352/3/4
f 352/3/4 348/3/4 353/3/4
f 349/3/4 350/3/4 355/3/4
f 355/3/4 350/3/4 356/3/4
f 353/3/4 354/3/4 357/3/4
f 357/3/4 354/3/4 358/3/4
f 359/6/4 360/6/4 361/6/4
f 361/6/4 360/6/4 362/6/4
f 363/5/4 364/5/4 366/5/4
f 366/5/4 364/5/4 367/5/4
f 366/5/4 367/5/4 369/5/4
f 367/5/4 368/5/4 369/5/4
f 365/5/4 366/5/4 369/5/4
f 369/5/4 368/5/4 370/5/4
f 365/5/4 369/5/4 371/5/4
f 371/5/4 369/5/4 372/5/4
f 370/5/4 368/5/4 373/5/4
f 373/5/4 368/5/4 374/5/4
f 375/3/4 376/3/4 378/3/4
f 378/3/4 376/3/4 379/3/4
f 377/3/4 378/3/4 381/3/4
f 379/3/4 380/3/4 381/3/4
f 378/3/4 379/3/4 381/3/4
f 381/3/4 380/3/4 382/3/4
f 383/7/4 384/7/4 385/7/4
f 385/7/4 384/7/4 386/7/4
f 387/7/4 388/7/4 389/7/4
f 389/7/4 388/7/4 390/7/4
f 391/7/4 392/7/4 393/7/4
f 393/7/4 392/7/4 394/7/4
f 395/7/4 396/7/4 397/7/4
f 397/7/4 396/7/4 398/7/4
f 399/7/4 400/7/4 401/7/4
f 401/7/4 402/7/4 403/7/4
f 403/7/4 404/7/4 405/7/4
f 401/7/4 403/7/4 407/7/4
f 405/7/4 406/7/4 407/7/4
f 403/7/4 405/7/4 407/7/4
f 407/7/4 406/7/4 408/7/4
f 399/7/4 401/7/4 409/7/4
f 401/7/4 407/7/4 409/7/4
f 409/7/4 407/7/4 410/7/4
f 399/7/4 409/7/4 411/7/4
f 411/7/4 409/7/4 412/7/4
f 415/7/5 414/7/5 413/7/5
f 416/7/5 414/7/5 415/7/5
f 417/7/5 415/7/5 413/7/5
f 418/7/5 414/7/5 416/7/5
f 419/7/5 417/7/5 413/7/5
f 419/7/5 418/7/5 417/7/5
f 420/7/5 414/7/5 418/7/5
f 420/7/5 418/7/5 419/7/5
f 424/3/5 422/3/5 421/3/5
f 425/3/5 424/3/5 423/3/5
f 426/3/5 422/3/5 424/3/5
f 426/3/5 424/3/5 425/3/5
f 427/3/5 422/3/5 426/3/5
f 428/3/5 422/3/5 427/3/5
f 432/3/5 430/3/5 429/3/5
f 433/3/5 430/3/5 432/3/5
f 436/3/5 432/3/5 431/3/5
f 437/3/5 432/3/5 436/3/5
f 439/5/5 435/5/5 434/5/5
f 440/5/5 435/5/5 439/5/5
f 441/5/5 435/5/5 440/5/5
f 444/5/5 439/5/5 438/5/5
f 444/5/5 440/5/5 439/5/5
f 445/5/5 440/5/5 444/5/5
f 446/5/5 440/5/5 445/5/5
f 448/3/5 443/3/5 442/3/5
f 449/3/5 443/3/5 448/3/5
f 451/5/5 447/5/5 446/5/5
f 451/5/5 446/5/5 445/5/5
f 452/5/5 447/5/5 451/5/5
f 453/3/5 450/3/5 449/3/5
f 454/3/5 450/3/5 453/3/5
f 457/3/5 456/3/5 455/3/5
f 458/3/5 456/3/5 457/3/5
f 462/5/5 460/5/5 459/5/5
f 463/5/5 460/5/5 462/5/5
f 466/6/5 462/6/5 461/6/5
f 467/6/5 462/6/5 466/6/5
f 468/6/5 462/6/5 467/6/5
f 469/6/5 462/6/5 468/6/5
f 471/1/5 465/1/5 464/1/5
f 472/1/5 465/1/5 471/1/5
f 475/6/5 468/6/5 467/6/5
f 476/6/5 468/6/5 475/6/5
f 477/5/5 470/5/5 469/5/5
f 478/5/5 470/5/5 477/5/5
f 479/3/5 474/3/5 473/3/5
f 480/3/5 474/3/5 479/3/5
f 483/5/5 482/5/5 481/5/5
f 484/5/5 482/5/5 483/5/5
f 487/5/5 486/5/5 485/5/5
f 488/5/5 486/5/5 487/5/5
f 491/3/5 490/3/5 489/3/5
f 492/3/5 490/3/5 491/3/5
f 495/7/6 496/7/6 497/7/6
f 497/7/6 496/7/6 498/7/6
f 493/7/6 494/7/6 499/7/6
f 499/7/6 494/7/6 500/7/6
f 501/7/6 502/7/6 505/7/6
f 505/7/6 502/7/6 506/7/6
f 503/7/6 504/7/6 507/7/6
f 507/7/6 504/7/6 508/7/6
f 509/7/6 510/7/6 513/7/6
f 513/7/6 510/7/6 514/7/6
f 511/7/6 512/7/6 515/7/6
f 515/7/6 516/7/6 519/7/6
f 511/7/6 515/7/6 519/7/6
f 519/7/6 516/7/6 520/7/6
f 517/7/6 518/7/6 521/7/6
f 521/7/6 518/7/6 522/7/6
f 520/7/6 516/7/6 524/7/6
f 523/7/6 524/7/6 527/7/6
f 524/7/6 516/7/6 527/7/6
f 527/7/6 516/7/6 528/7/6
f 525/7/6 526/7/6 529/7/6
f 529/7/6 526/7/6 530/7/6
f 523/7/6 527/7/6 531/7/6
f 531/7/6 527/7/6 532/7/6
f 535/3/6 536/3/6 537/3/6
f 537/3/6 536/3/6 538/3/6
f 533/7/6 534/7/6 539/7/6
f 539/7/6 534/7/6 540/7/6
f 541/5/6 542/5/6 543/5/6
f 543/5/6 542/5/6 544/5/6
f 545/5/6 546/5/6 547/5/6
f 547/5/6 546/5/6 548/5/6
f 549/3/6 550/3/6 551/3/6
f 551/3/6 550/3/6 552/3/6
f 553/5/6 554/5/6 556/5/6
f 556/5/6 554/5/6 557/5/6
f 555/6/6 556/6/6 560/6/6
f 560/6/6 556/6/6 561/6/6
f 561/6/6 556/6/6 562/6/6
f 562/6/6 556/6/6 563/6/6
f 558/1/6 559/1/6 565/1/6
f 565/1/6 559/1/6 566/1/6
f 561/6/6 562/6/6 569/6/6
f 569/6/6 562/6/6 570/6/6
f 563/5/6 564/5/6 571/5/6
f 571/5/6 564/5/6 572/5/6
f 567/3/6 568/3/6 573/3/6
f 573/3/6 568/3/6 574/3/6
f 575/3/6 576/3/6 578/3/6
f 578/3/6 576/3/6 579/3/6
f 577/3/6 578/3/6 582/3/6
f 582/3/6 578/3/6 583/3/6
f 580/5/6 581/5/6 585/5/6
f 585/5/6 581/5/6 586/5/6
f 586/5/6 581/5/6 587/5/6
f 584/5/6 585/5/6 590/5/6
f 585/5/6 586/5/6 590/5/6
f 590/5/6 586/5/6 591/5/6
f 591/5/6 586/5/6 592/5/6
f 588/3/6 589/3/6 594/3/6
f 594/3/6 589/3/6 595/3/6
f 592/5/6 593/5/6 597/5/6
f 591/5/6 592/5/6 597/5/6
f 597/5/6 593/5/6 598/5/6
f 595/3/6 596/3/6 599/3/6
f 599/3/6 596/3/6 600/3/6
f 601/7/6 602/7/6 603/7/6
f 603/7/6 602/7/6 604/7/6
f 605/3/6 606/3/6 608/3/6
f 607/3/6 608/3/6 609/3/6
f 608/3/6 606/3/6 610/3/6
f 609/3/6 608/3/6 610/3/6
f 610/3/6 606/3/6 611/3/6
f 611/3/6 606/3/6 612/3/6
f 613/7/6 614/7/6 615/7/6
f 615/7/6 614/7/6 616/7/6
f 617/7/6 618/7/6 620/7/6
f 619/7/6 620/7/6 621/7/6
f 620/7/6 618/7/6 622/7/6
f 621/7/6 620/7/6 622/7/6
f 622/7/6 618/7/6 623/7/6
f 623/7/6 618/7/6 624/7/6
