# MagicaVoxel @ Ephtracy

# group
o 

# material
mtllib Box1v2.mtl
usemtl palette

# normals
vn -1 0 0
vn 1 0 0
vn 0 0 1
vn 0 0 -1
vn 0 -1 0
vn 0 1 0

# texcoords
vt 0.365234 0.5
vt 0.369141 0.5
vt 0.958984 0.5
vt 0.978516 0.5
vt 0.982422 0.5

# verts
v -2 0 1.9
v -2 0 1.2
v -2 0 0.8
v -2 0 -2.38419e-07
v -2 0.1 2
v -2 0.1 1.9
v -2 0.3 1.2
v -2 0.3 0.8
v -2 0.6 1.2
v -2 0.6 0.8
v -2 1.2 1.4
v -2 1.2 1.2
v -2 1.2 0.8
v -2 1.2 0.6
v -2 1.3 1.4
v -2 1.3 1.3
v -2 1.3 0.7
v -2 1.3 0.6
v -2 1.4 1.3
v -2 1.4 1.2
v -2 1.4 0.8
v -2 1.4 0.7
v -2 1.5 1.2
v -2 1.5 1.1
v -2 1.5 0.9
v -2 1.5 0.8
v -2 1.6 1.1
v -2 1.6 0.9
v -2 2 2
v -2 2 -2.38419e-07
v -1.9 0 2
v -1.9 0 1.9
v -1.9 0.1 2
v -1.9 0.1 1.9
v 0.8 0.2 1.8
v 0.8 0.2 0.2
v 0.8 1.9 1.8
v 0.8 1.9 0.2
v 0.9 1.9 1.9
v 0.9 1.9 0.0999999
v 0.9 2 1.9
v 0.9 2 0.0999999
v -1.9 1.9 1.9
v -1.9 1.9 0.0999999
v -1.9 2 1.9
v -1.9 2 0.0999999
v -1.8 0.2 1.8
v -1.8 0.2 0.2
v -1.8 1.9 1.8
v -1.8 1.9 0.2
v 0.8 0 2
v 0.8 0 1.9
v 0.8 0.1 2
v 0.8 0.1 1.9
v 0.9 0 1.9
v 0.9 0 1.8
v 0.9 0 0.0999999
v 0.9 0 -2.38419e-07
v 0.9 0.1 2
v 0.9 0.1 1.9
v 0.9 0.1 1.8
v 0.9 0.1 0.0999999
v 0.9 0.1 -2.38419e-07
v 0.9 0.3 2
v 0.9 0.3 1.9
v 1 0 1.8
v 1 0 1.2
v 1 0 0.8
v 1 0 0.0999999
v 1 0.1 1.9
v 1 0.1 1.8
v 1 0.1 0.0999999
v 1 0.1 -2.38419e-07
v 1 0.3 2
v 1 0.3 1.9
v 1 0.3 1.2
v 1 0.3 0.8
v 1 0.6 1.2
v 1 0.6 0.8
v 1 1.2 1.4
v 1 1.2 1.2
v 1 1.2 0.8
v 1 1.2 0.6
v 1 1.3 1.4
v 1 1.3 1.3
v 1 1.3 0.7
v 1 1.3 0.6
v 1 1.4 1.3
v 1 1.4 1.2
v 1 1.4 0.8
v 1 1.4 0.7
v 1 1.5 1.2
v 1 1.5 1.1
v 1 1.5 0.9
v 1 1.5 0.8
v 1 1.6 1.1
v 1 1.6 0.9
v 1 2 2
v 1 2 -2.38419e-07
v -2 0.1 2
v -2 2 2
v -1.9 0 2
v -1.9 0.1 2
v -1.8 0.8 2
v -1.8 1.8 2
v -1.7 1 2
v -1.7 1.1 2
v -1.7 1.3 2
v -1.7 1.4 2
v -1.7 1.5 2
v -1.7 1.6 2
v -1.6 1.2 2
v -1.6 1.3 2
v -1.6 1.4 2
v -1.6 1.6 2
v -1.6 1.7 2
v -1.5 1 2
v -1.5 1.1 2
v -1.5 1.2 2
v -1.5 1.3 2
v -1.5 1.4 2
v -1.5 1.6 2
v -1.5 1.7 2
v -1.4 0.9 2
v -1.4 1 2
v -1.4 1.1 2
v -1.4 1.2 2
v -1.4 1.3 2
v -1.4 1.4 2
v -1.3 1.1 2
v -1.3 1.2 2
v -1.3 1.3 2
v -1.2 0.9 2
v -1.2 1 2
v -1.2 1.2 2
v -1.2 1.3 2
v -1.2 1.5 2
v -1.2 1.6 2
v -1.1 0.8 2
v -1.1 1.8 2
v -0.5 0.1 2
v -0.5 0.5 2
v -0.4 0.2 2
v -0.4 0.3 2
v -0.2 0.2 2
v -0.2 0.3 2
v -0.0999999 0.1 2
v -0.0999999 0.5 2
v 2.38419e-07 0.1 2
v 2.38419e-07 0.5 2
v 0.2 0.3 2
v 0.2 0.4 2
v 0.3 0.3 2
v 0.3 0.4 2
v 0.4 0.1 2
v 0.4 0.5 2
v 0.5 0.1 2
v 0.5 0.5 2
v 0.6 0.3 2
v 0.6 0.4 2
v 0.7 0.2 2
v 0.7 0.3 2
v 0.7 0.4 2
v 0.8 0 2
v 0.8 0.1 2
v 0.8 0.2 2
v 0.8 0.3 2
v 0.9 0.1 2
v 0.9 0.3 2
v 0.9 0.5 2
v 1 0.3 2
v 1 2 2
v -2 0 1.9
v -2 0.1 1.9
v -1.9 0 1.9
v -1.9 0.1 1.9
v 0.8 0 1.9
v 0.8 0.1 1.9
v 0.9 0 1.9
v 0.9 0.1 1.9
v 0.9 0.3 1.9
v 1 0.1 1.9
v 1 0.3 1.9
v 0.9 0 1.8
v 0.9 0.1 1.8
v 1 0 1.8
v 1 0.1 1.8
v -1.8 0.2 0.2
v -1.8 1.9 0.2
v 0.8 0.2 0.2
v 0.8 1.9 0.2
v -1.9 1.9 0.0999999
v -1.9 2 0.0999999
v 0.9 1.9 0.0999999
v 0.9 2 0.0999999
v -1.9 1.9 1.9
v -1.9 2 1.9
v 0.9 1.9 1.9
v 0.9 2 1.9
v -1.8 0.2 1.8
v -1.8 1.9 1.8
v 0.8 0.2 1.8
v 0.8 1.9 1.8
v 0.9 0 0.0999999
v 0.9 0.1 0.0999999
v 1 0 0.0999999
v 1 0.1 0.0999999
v -2 0 -2.38419e-07
v -2 2 -2.38419e-07
v -1.9 0.1 -2.38419e-07
v -1.9 0.4 -2.38419e-07
v -1.8 0.2 -2.38419e-07
v -1.8 0.3 -2.38419e-07
v -1.8 0.4 -2.38419e-07
v -1.8 0.5 -2.38419e-07
v -1.7 0.5 -2.38419e-07
v -1.7 0.6 -2.38419e-07
v -1.6 0.3 -2.38419e-07
v -1.6 0.4 -2.38419e-07
v -1.5 0.2 -2.38419e-07
v -1.5 0.4 -2.38419e-07
v -1.5 0.5 -2.38419e-07
v -1.5 0.6 -2.38419e-07
v -1.4 0.3 -2.38419e-07
v -1.4 0.5 -2.38419e-07
v -1.3 0.1 -2.38419e-07
v -1.3 0.3 -2.38419e-07
v -0.3 1.2 -2.38419e-07
v -0.3 1.8 -2.38419e-07
v -0.0999999 1.3 -2.38419e-07
v -0.0999999 1.7 -2.38419e-07
v 2.38419e-07 1.3 -2.38419e-07
v 2.38419e-07 1.7 -2.38419e-07
v 0.1 1.3 -2.38419e-07
v 0.1 1.7 -2.38419e-07
v 0.2 1.3 -2.38419e-07
v 0.2 1.7 -2.38419e-07
v 0.4 1.3 -2.38419e-07
v 0.4 1.7 -2.38419e-07
v 0.5 1.3 -2.38419e-07
v 0.5 1.7 -2.38419e-07
v 0.6 1.3 -2.38419e-07
v 0.6 1.7 -2.38419e-07
v 0.7 1.3 -2.38419e-07
v 0.7 1.7 -2.38419e-07
v 0.8 1.2 -2.38419e-07
v 0.8 1.8 -2.38419e-07
v 0.9 0 -2.38419e-07
v 0.9 0.1 -2.38419e-07
v 1 0.1 -2.38419e-07
v 1 2 -2.38419e-07
v -1.9 0 2
v 0.8 0 2
v -2 0 1.9
v -1.9 0 1.9
v 0.8 0 1.9
v 0.9 0 1.9
v 0.9 0 1.8
v 1 0 1.8
v -2 0 1.2
v 1 0 1.2
v -2 0 0.8
v 1 0 0.8
v 0.9 0 0.0999999
v 1 0 0.0999999
v -2 0 -2.38419e-07
v 0.9 0 -2.38419e-07
v -2 0.1 2
v -1.9 0.1 2
v 0.8 0.1 2
v 0.9 0.1 2
v -2 0.1 1.9
v -1.9 0.1 1.9
v 0.8 0.1 1.9
v 0.9 0.1 1.9
v 1 0.1 1.9
v 0.9 0.1 1.8
v 1 0.1 1.8
v 0.9 0.1 0.0999999
v 1 0.1 0.0999999
v 0.9 0.1 -2.38419e-07
v 1 0.1 -2.38419e-07
v 0.9 0.3 2
v 1 0.3 2
v 0.9 0.3 1.9
v 1 0.3 1.9
v -1.8 0.2 1.8
v 0.8 0.2 1.8
v -1.8 0.2 0.2
v 0.8 0.2 0.2
v -1.9 1.9 1.9
v 0.9 1.9 1.9
v -1.8 1.9 1.8
v 0.8 1.9 1.8
v -1.8 1.9 0.2
v 0.8 1.9 0.2
v -1.9 1.9 0.0999999
v 0.9 1.9 0.0999999
v -2 2 2
v 1 2 2
v -1.9 2 1.9
v 0.9 2 1.9
v -1.9 2 0.0999999
v 0.9 2 0.0999999
v -2 2 -2.38419e-07
v 1 2 -2.38419e-07

# faces
f 6/2/1 2/2/1 1/2/1
f 7/1/1 3/1/1 2/1/1
f 7/2/1 6/2/1 5/2/1
f 7/2/1 2/2/1 6/2/1
f 8/2/1 4/2/1 3/2/1
f 8/1/1 3/1/1 7/1/1
f 9/2/1 7/2/1 5/2/1
f 9/2/1 8/2/1 7/2/1
f 10/2/1 4/2/1 8/2/1
f 10/2/1 8/2/1 9/2/1
f 11/2/1 9/2/1 5/2/1
f 12/5/1 10/5/1 9/5/1
f 12/2/1 9/2/1 11/2/1
f 13/2/1 4/2/1 10/2/1
f 13/5/1 10/5/1 12/5/1
f 14/2/1 4/2/1 13/2/1
f 15/5/1 12/5/1 11/5/1
f 15/2/1 11/2/1 5/2/1
f 15/5/1 14/5/1 13/5/1
f 15/5/1 13/5/1 12/5/1
f 16/5/1 14/5/1 15/5/1
f 17/5/1 14/5/1 16/5/1
f 18/2/1 4/2/1 14/2/1
f 18/5/1 14/5/1 17/5/1
f 19/5/1 17/5/1 16/5/1
f 19/2/1 16/2/1 15/2/1
f 20/5/1 17/5/1 19/5/1
f 21/5/1 17/5/1 20/5/1
f 22/2/1 18/2/1 17/2/1
f 22/5/1 17/5/1 21/5/1
f 23/5/1 21/5/1 20/5/1
f 23/2/1 20/2/1 19/2/1
f 24/5/1 21/5/1 23/5/1
f 25/5/1 21/5/1 24/5/1
f 26/2/1 22/2/1 21/2/1
f 26/5/1 21/5/1 25/5/1
f 27/5/1 25/5/1 24/5/1
f 27/2/1 24/2/1 23/2/1
f 28/2/1 26/2/1 25/2/1
f 28/5/1 25/5/1 27/5/1
f 29/2/1 15/2/1 5/2/1
f 29/2/1 19/2/1 15/2/1
f 29/2/1 28/2/1 27/2/1
f 29/2/1 27/2/1 23/2/1
f 29/2/1 23/2/1 19/2/1
f 30/2/1 4/2/1 18/2/1
f 30/2/1 28/2/1 29/2/1
f 30/2/1 26/2/1 28/2/1
f 30/2/1 22/2/1 26/2/1
f 30/2/1 18/2/1 22/2/1
f 33/2/1 32/2/1 31/2/1
f 34/2/1 32/2/1 33/2/1
f 37/2/1 36/2/1 35/2/1
f 38/2/1 36/2/1 37/2/1
f 41/2/1 40/2/1 39/2/1
f 42/2/1 40/2/1 41/2/1
f 43/2/2 44/2/2 45/2/2
f 45/2/2 44/2/2 46/2/2
f 47/2/2 48/2/2 49/2/2
f 49/2/2 48/2/2 50/2/2
f 51/2/2 52/2/2 53/2/2
f 53/2/2 52/2/2 54/2/2
f 55/2/2 56/2/2 60/2/2
f 60/2/2 56/2/2 61/2/2
f 57/2/2 58/2/2 62/2/2
f 62/2/2 58/2/2 63/2/2
f 59/5/2 60/5/2 64/5/2
f 64/5/2 60/5/2 65/5/2
f 66/2/2 67/2/2 71/2/2
f 68/2/2 69/2/2 72/2/2
f 70/2/2 71/2/2 75/2/2
f 67/1/2 68/1/2 76/1/2
f 71/2/2 67/2/2 76/2/2
f 75/2/2 71/2/2 76/2/2
f 72/2/2 73/2/2 77/2/2
f 76/1/2 68/1/2 77/1/2
f 68/2/2 72/2/2 77/2/2
f 75/2/2 76/2/2 78/2/2
f 74/2/2 75/2/2 78/2/2
f 76/2/2 77/2/2 78/2/2
f 77/2/2 73/2/2 79/2/2
f 78/2/2 77/2/2 79/2/2
f 74/2/2 78/2/2 80/2/2
f 78/5/2 79/5/2 81/5/2
f 80/2/2 78/2/2 81/2/2
f 79/2/2 73/2/2 82/2/2
f 81/5/2 79/5/2 82/5/2
f 82/2/2 73/2/2 83/2/2
f 80/5/2 81/5/2 84/5/2
f 74/2/2 80/2/2 84/2/2
f 82/5/2 83/5/2 84/5/2
f 81/5/2 82/5/2 84/5/2
f 84/5/2 83/5/2 85/5/2
f 85/5/2 83/5/2 86/5/2
f 83/2/2 73/2/2 87/2/2
f 86/5/2 83/5/2 87/5/2
f 85/5/2 86/5/2 88/5/2
f 84/2/2 85/2/2 88/2/2
f 88/5/2 86/5/2 89/5/2
f 89/5/2 86/5/2 90/5/2
f 86/2/2 87/2/2 91/2/2
f 90/5/2 86/5/2 91/5/2
f 89/5/2 90/5/2 92/5/2
f 88/2/2 89/2/2 92/2/2
f 92/5/2 90/5/2 93/5/2
f 93/5/2 90/5/2 94/5/2
f 90/2/2 91/2/2 95/2/2
f 94/5/2 90/5/2 95/5/2
f 93/5/2 94/5/2 96/5/2
f 92/2/2 93/2/2 96/2/2
f 94/2/2 95/2/2 97/2/2
f 96/5/2 94/5/2 97/5/2
f 74/2/2 84/2/2 98/2/2
f 84/2/2 88/2/2 98/2/2
f 96/2/2 97/2/2 98/2/2
f 92/2/2 96/2/2 98/2/2
f 88/2/2 92/2/2 98/2/2
f 87/2/2 73/2/2 99/2/2
f 98/2/2 97/2/2 99/2/2
f 97/2/2 95/2/2 99/2/2
f 95/2/2 91/2/2 99/2/2
f 91/2/2 87/2/2 99/2/2
f 103/2/3 101/2/3 100/2/3
f 104/2/3 101/2/3 103/2/3
f 104/2/3 103/2/3 102/2/3
f 105/2/3 101/2/3 104/2/3
f 106/3/3 105/3/3 104/3/3
f 107/3/3 105/3/3 106/3/3
f 108/3/3 105/3/3 107/3/3
f 109/3/3 105/3/3 108/3/3
f 110/3/3 105/3/3 109/3/3
f 111/3/3 105/3/3 110/3/3
f 112/3/3 108/3/3 107/3/3
f 113/4/3 109/4/3 108/4/3
f 113/3/3 108/3/3 112/3/3
f 114/3/3 110/3/3 109/3/3
f 114/4/3 109/4/3 113/4/3
f 115/3/3 105/3/3 111/3/3
f 115/4/3 111/4/3 110/4/3
f 116/3/3 105/3/3 115/3/3
f 117/3/3 106/3/3 104/3/3
f 117/4/3 107/4/3 106/4/3
f 118/3/3 112/3/3 107/3/3
f 118/4/3 107/4/3 117/4/3
f 119/4/3 113/4/3 112/4/3
f 119/3/3 112/3/3 118/3/3
f 120/3/3 114/3/3 113/3/3
f 120/4/3 113/4/3 119/4/3
f 121/3/3 110/3/3 114/3/3
f 121/3/3 114/3/3 120/3/3
f 122/4/3 116/4/3 115/4/3
f 122/4/3 115/4/3 110/4/3
f 123/3/3 105/3/3 116/3/3
f 123/4/3 116/4/3 122/4/3
f 124/3/3 120/3/3 119/3/3
f 124/3/3 117/3/3 104/3/3
f 124/3/3 118/3/3 117/3/3
f 124/3/3 119/3/3 118/3/3
f 125/3/3 120/3/3 124/3/3
f 126/3/3 120/3/3 125/3/3
f 127/3/3 120/3/3 126/3/3
f 128/4/3 121/4/3 120/4/3
f 128/3/3 120/3/3 127/3/3
f 129/3/3 110/3/3 121/3/3
f 129/4/3 121/4/3 128/4/3
f 130/4/3 127/4/3 126/4/3
f 130/3/3 126/3/3 125/3/3
f 131/3/3 128/3/3 127/3/3
f 131/4/3 127/4/3 130/4/3
f 131/3/3 129/3/3 128/3/3
f 132/3/3 129/3/3 131/3/3
f 133/3/3 124/3/3 104/3/3
f 133/4/3 125/4/3 124/4/3
f 134/3/3 130/3/3 125/3/3
f 134/4/3 125/4/3 133/4/3
f 134/3/3 131/3/3 130/3/3
f 135/4/3 132/4/3 131/4/3
f 135/3/3 131/3/3 134/3/3
f 136/3/3 129/3/3 132/3/3
f 136/4/3 132/4/3 135/4/3
f 137/4/3 122/4/3 110/4/3
f 137/3/3 129/3/3 136/3/3
f 137/3/3 110/3/3 129/3/3
f 138/3/3 123/3/3 122/3/3
f 138/4/3 122/4/3 137/4/3
f 139/2/3 104/2/3 102/2/3
f 139/3/3 136/3/3 135/3/3
f 139/3/3 138/3/3 137/3/3
f 139/3/3 135/3/3 134/3/3
f 139/3/3 134/3/3 133/3/3
f 139/3/3 137/3/3 136/3/3
f 139/3/3 133/3/3 104/3/3
f 140/3/3 123/3/3 138/3/3
f 140/3/3 138/3/3 139/3/3
f 140/2/3 101/2/3 105/2/3
f 140/3/3 105/3/3 123/3/3
f 141/2/3 139/2/3 102/2/3
f 141/2/3 140/2/3 139/2/3
f 142/2/3 140/2/3 141/2/3
f 143/5/3 142/5/3 141/5/3
f 144/5/3 142/5/3 143/5/3
f 145/5/3 143/5/3 141/5/3
f 145/2/3 144/2/3 143/2/3
f 146/5/3 142/5/3 144/5/3
f 146/2/3 144/2/3 145/2/3
f 147/2/3 141/2/3 102/2/3
f 147/5/3 145/5/3 141/5/3
f 147/5/3 146/5/3 145/5/3
f 148/5/3 142/5/3 146/5/3
f 148/5/3 146/5/3 147/5/3
f 148/2/3 140/2/3 142/2/3
f 149/2/3 147/2/3 102/2/3
f 149/2/3 148/2/3 147/2/3
f 150/2/3 140/2/3 148/2/3
f 150/2/3 148/2/3 149/2/3
f 151/5/3 150/5/3 149/5/3
f 152/5/3 150/5/3 151/5/3
f 153/5/3 151/5/3 149/5/3
f 153/2/3 152/2/3 151/2/3
f 154/5/3 150/5/3 152/5/3
f 154/2/3 152/2/3 153/2/3
f 155/2/3 149/2/3 102/2/3
f 155/5/3 153/5/3 149/5/3
f 155/5/3 154/5/3 153/5/3
f 156/5/3 150/5/3 154/5/3
f 156/5/3 154/5/3 155/5/3
f 156/2/3 140/2/3 150/2/3
f 157/2/3 155/2/3 102/2/3
f 157/2/3 156/2/3 155/2/3
f 158/2/3 140/2/3 156/2/3
f 158/2/3 156/2/3 157/2/3
f 159/5/3 158/5/3 157/5/3
f 160/5/3 158/5/3 159/5/3
f 161/5/3 159/5/3 157/5/3
f 162/2/3 160/2/3 159/2/3
f 162/5/3 159/5/3 161/5/3
f 163/5/3 158/5/3 160/5/3
f 163/2/3 160/2/3 162/2/3
f 164/2/3 157/2/3 102/2/3
f 165/5/3 161/5/3 157/5/3
f 165/2/3 157/2/3 164/2/3
f 166/2/3 162/2/3 161/2/3
f 166/5/3 161/5/3 165/5/3
f 167/5/3 163/5/3 162/5/3
f 167/2/3 162/2/3 166/2/3
f 168/5/3 166/5/3 165/5/3
f 168/5/3 167/5/3 166/5/3
f 169/5/3 163/5/3 167/5/3
f 169/5/3 167/5/3 168/5/3
f 170/5/3 158/5/3 163/5/3
f 170/5/3 163/5/3 169/5/3
f 170/2/3 140/2/3 158/2/3
f 171/2/3 170/2/3 169/2/3
f 172/2/3 101/2/3 140/2/3
f 172/2/3 170/2/3 171/2/3
f 172/2/3 140/2/3 170/2/3
f 175/2/3 174/2/3 173/2/3
f 176/2/3 174/2/3 175/2/3
f 179/2/3 178/2/3 177/2/3
f 180/2/3 178/2/3 179/2/3
f 182/2/3 181/2/3 180/2/3
f 183/2/3 181/2/3 182/2/3
f 186/2/3 185/2/3 184/2/3
f 187/2/3 185/2/3 186/2/3
f 190/2/3 189/2/3 188/2/3
f 191/2/3 189/2/3 190/2/3
f 194/2/3 193/2/3 192/2/3
f 195/2/3 193/2/3 194/2/3
f 196/2/4 197/2/4 198/2/4
f 198/2/4 197/2/4 199/2/4
f 200/2/4 201/2/4 202/2/4
f 202/2/4 201/2/4 203/2/4
f 204/2/4 205/2/4 206/2/4
f 206/2/4 205/2/4 207/2/4
f 208/2/4 209/2/4 210/2/4
f 210/2/4 209/2/4 211/2/4
f 210/5/4 211/5/4 212/5/4
f 212/5/4 211/5/4 213/5/4
f 211/2/4 209/2/4 214/2/4
f 213/5/4 211/5/4 214/5/4
f 214/2/4 209/2/4 215/2/4
f 213/5/4 214/5/4 216/5/4
f 215/2/4 209/2/4 216/2/4
f 214/5/4 215/5/4 216/5/4
f 216/2/4 209/2/4 217/2/4
f 212/2/4 213/2/4 218/2/4
f 213/5/4 216/5/4 218/5/4
f 216/5/4 217/5/4 218/5/4
f 218/5/4 217/5/4 219/5/4
f 210/5/4 212/5/4 220/5/4
f 212/2/4 218/2/4 220/2/4
f 218/2/4 219/2/4 220/2/4
f 219/5/4 217/5/4 221/5/4
f 220/2/4 219/2/4 221/2/4
f 221/5/4 217/5/4 222/5/4
f 217/2/4 209/2/4 223/2/4
f 222/5/4 217/5/4 223/5/4
f 221/5/4 222/5/4 224/5/4
f 220/5/4 221/5/4 224/5/4
f 222/2/4 223/2/4 225/2/4
f 224/5/4 222/5/4 225/5/4
f 208/2/4 210/2/4 226/2/4
f 210/5/4 220/5/4 226/5/4
f 220/5/4 224/5/4 226/5/4
f 224/2/4 225/2/4 227/2/4
f 226/5/4 224/5/4 227/5/4
f 225/2/4 223/2/4 228/2/4
f 227/2/4 225/2/4 228/2/4
f 226/2/4 227/2/4 228/2/4
f 223/2/4 209/2/4 228/2/4
f 228/2/4 209/2/4 229/2/4
f 228/5/4 229/5/4 230/5/4
f 230/5/4 229/5/4 231/5/4
f 228/5/4 230/5/4 232/5/4
f 230/2/4 231/2/4 232/2/4
f 231/5/4 229/5/4 233/5/4
f 232/2/4 231/2/4 233/2/4
f 228/5/4 232/5/4 234/5/4
f 232/5/4 233/5/4 234/5/4
f 233/5/4 229/5/4 235/5/4
f 234/5/4 233/5/4 235/5/4
f 228/5/4 234/5/4 236/5/4
f 234/2/4 235/2/4 236/2/4
f 235/5/4 229/5/4 237/5/4
f 236/2/4 235/2/4 237/2/4
f 228/5/4 236/5/4 238/5/4
f 236/5/4 237/5/4 238/5/4
f 237/5/4 229/5/4 239/5/4
f 238/5/4 237/5/4 239/5/4
f 228/5/4 238/5/4 240/5/4
f 238/2/4 239/2/4 240/2/4
f 239/5/4 229/5/4 241/5/4
f 240/2/4 239/2/4 241/2/4
f 228/5/4 240/5/4 242/5/4
f 240/5/4 241/5/4 242/5/4
f 241/5/4 229/5/4 243/5/4
f 242/5/4 241/5/4 243/5/4
f 228/5/4 242/5/4 244/5/4
f 242/2/4 243/2/4 244/2/4
f 243/5/4 229/5/4 245/5/4
f 244/2/4 243/2/4 245/2/4
f 226/2/4 228/2/4 246/2/4
f 228/5/4 244/5/4 246/5/4
f 244/5/4 245/5/4 246/5/4
f 245/5/4 229/5/4 247/5/4
f 246/5/4 245/5/4 247/5/4
f 229/2/4 209/2/4 247/2/4
f 208/2/4 226/2/4 248/2/4
f 226/2/4 246/2/4 248/2/4
f 246/2/4 247/2/4 248/2/4
f 248/2/4 247/2/4 249/2/4
f 249/2/4 247/2/4 250/2/4
f 247/2/4 209/2/4 251/2/4
f 250/2/4 247/2/4 251/2/4
f 255/2/5 253/2/5 252/2/5
f 256/2/5 253/2/5 255/2/5
f 258/2/5 255/2/5 254/2/5
f 258/2/5 257/2/5 256/2/5
f 258/2/5 256/2/5 255/2/5
f 260/2/5 258/2/5 254/2/5
f 260/2/5 259/2/5 258/2/5
f 261/2/5 259/2/5 260/2/5
f 262/1/5 261/1/5 260/1/5
f 263/1/5 261/1/5 262/1/5
f 264/2/5 263/2/5 262/2/5
f 265/2/5 263/2/5 264/2/5
f 266/2/5 264/2/5 262/2/5
f 267/2/5 264/2/5 266/2/5
f 272/2/5 269/2/5 268/2/5
f 273/2/5 269/2/5 272/2/5
f 274/5/5 271/5/5 270/5/5
f 275/5/5 271/5/5 274/5/5
f 277/2/5 276/2/5 275/2/5
f 278/2/5 276/2/5 277/2/5
f 281/2/5 280/2/5 279/2/5
f 282/2/5 280/2/5 281/2/5
f 285/2/5 284/2/5 283/2/5
f 286/2/5 284/2/5 285/2/5
f 287/2/6 288/2/6 289/2/6
f 289/2/6 288/2/6 290/2/6
f 291/2/6 292/2/6 293/2/6
f 293/2/6 292/2/6 294/2/6
f 291/2/6 293/2/6 295/2/6
f 294/2/6 292/2/6 296/2/6
f 291/2/6 295/2/6 297/2/6
f 295/2/6 296/2/6 297/2/6
f 296/2/6 292/2/6 298/2/6
f 297/2/6 296/2/6 298/2/6
f 299/2/6 300/2/6 301/2/6
f 301/2/6 300/2/6 302/2/6
f 299/2/6 301/2/6 303/2/6
f 302/2/6 300/2/6 304/2/6
f 299/2/6 303/2/6 305/2/6
f 303/2/6 304/2/6 305/2/6
f 304/2/6 300/2/6 306/2/6
f 305/2/6 304/2/6 306/2/6
